SplineFontDB: 1.0
FontName: DBThaiText-Bold
FullName: DBThaiText Bold
FamilyName: DBThaiText
Weight: Bold
Copyright: Typeface (c) The Monotype Corporation plc. Data (c) The Monotype Corporation plc/Type Solutions Inc. 1990-1992. All Rights Reserved\n\nModified by TLWG
Version: 1.1 : May 12, 2003
ItalicAngle: 0
UnderlinePosition: -477
UnderlineWidth: 205
Ascent: 1638
Descent: 410
NeedsXUIDChange: 1
FSType: 0
PfmFamily: 33
TTFWeight: 700
TTFWidth: 5
Panose: 2 0 8 3 0 0 0 0 0 0
LineGap: 184
VLineGap: 0
LangName: 1033 "" "" "" "PfaEdit : DBThaiTextBold : 13-0-2003" 
Encoding: compacted
OldEncoding: iso8859_1
DisplaySize: -72
AntiAlias: 1
WinInfo: 128 8 4
BeginPrivate: 3
BlueValues 31 [-31 0 726 753 786 804 959 976]
OtherBlues 11 [-260 -260]
ForceBold 4 true
EndPrivate
BeginChars: 293 258
StartChar: .notdef
Encoding: 0 -1
OldEncoding: 0
Width: 1090
Flags: W
HStem: 1742.29 143.51<235 797>
VStem: 76.9502 145.77<101 1735> 801.28 145.77<101 1735>
Fore
76.9502 -57.7998 m 1
 76.9502 1885.8 l 1
 947.05 1885.8 l 1
 947.05 -57.7998 l 1
 76.9502 -57.7998 l 1
222.72 85.71 m 1
 801.28 85.71 l 1
 801.28 1742.29 l 1
 222.72 1742.29 l 1
 222.72 85.71 l 1
EndSplineSet
MinimumDistance: x2,-1 
EndChar
StartChar: exclam
Encoding: 33 33
OldEncoding: 33
Width: 408
Flags: W
HStem: -1.25 21G<119.69 316.31> 939.25 20G<119.69 316.31>
VStem: 119.69 196.62<13 175 680 959>
Fore
170.54 272.21 m 1
 119.69 681.27 l 1
 119.69 959.25 l 1
 316.31 959.25 l 1
 316.31 681.27 l 1
 258.68 272.21 l 1
 170.54 272.21 l 1
119.69 190.85 m 1
 316.31 190.85 l 1
 316.31 -1.25 l 1
 119.69 -1.25 l 1
 119.69 190.85 l 1
EndSplineSet
MinimumDistance: x3,-1 
EndChar
StartChar: quotedbl
Encoding: 34 34
OldEncoding: 34
Width: 588
Flags: HW
Fore
520.396 857.045 m 4
 522.656 795.271 500.81 743.669 454.855 702.235 c 4
 411.162 660.801 367.846 637.825 324.906 633.305 c 5
 309.086 664.945 l 5
 341.479 683.025 364.832 697.715 379.146 709.015 c 4
 397.226 724.081 408.525 746.682 413.046 776.815 c 5
 388.186 776.815 364.456 783.595 341.855 797.155 c 4
 319.256 809.961 306.826 836.329 304.565 876.255 c 4
 304.565 902.621 313.229 926.352 330.556 947.445 c 4
 346.376 966.278 368.6 975.695 397.226 975.695 c 4
 437.906 975.695 468.04 964.771 487.626 942.925 c 5
 509.472 921.079 520.396 892.451 520.396 857.045 c 4
242.416 857.045 m 4
 244.676 795.271 222.829 743.669 176.876 702.235 c 5
 133.936 660.801 90.9961 637.825 48.0557 633.305 c 5
 31.1055 664.945 l 5
 63.499 683.025 86.8525 697.715 101.166 709.015 c 4
 118.492 723.329 130.17 745.929 136.196 776.815 c 5
 112.09 776.815 87.9824 783.595 63.876 797.155 c 4
 41.2754 810.715 28.8457 837.081 26.5859 876.255 c 4
 26.5859 902.621 35.249 926.352 52.5762 947.445 c 4
 68.3955 966.278 90.6191 975.695 119.246 975.695 c 4
 161.433 975.695 191.565 964.771 209.646 942.925 c 5
 231.492 922.585 242.416 893.959 242.416 857.045 c 4
EndSplineSet
EndChar
StartChar: numbersign
Encoding: 35 35
OldEncoding: 35
Width: 689
Flags: W
HStem: 191.14 150.29<-23 75 265 347 537 634> 503.02 148.03<25 139 310 418.985 585 683>
DStem: 81.1152 191.14 221.235 191.14 39.3047 -35.9902 178.295 -35.9902 143.265 503.02 282.255 503.02 110.495 341.43 249.485 341.43 221.235 919.99 360.225 919.99 170.385 651.05 309.375 651.05 353.445 191.14 492.435 191.14 309.375 -35.9902 450.625 -35.9902 418.985 503.02 556.845 503.02 383.955 341.43 525.205 341.43 492.435 919.99 631.425 919.99 441.585 653.31 580.575 651.05
Fore
221.235 919.99 m 1
 360.225 919.99 l 1
 309.375 651.05 l 1
 441.585 653.31 l 1
 492.435 919.99 l 1
 631.425 919.99 l 1
 580.575 651.05 l 1
 684.535 651.05 l 1
 684.535 503.02 l 1
 556.845 503.02 l 1
 525.205 341.43 l 1
 649.505 341.43 l 1
 649.505 191.14 l 1
 492.435 191.14 l 1
 450.625 -35.9902 l 1
 309.375 -35.9902 l 1
 353.445 191.14 l 1
 221.235 191.14 l 1
 178.295 -35.9902 l 1
 39.3047 -35.9902 l 1
 81.1152 191.14 l 1
 -37.5352 191.14 l 1
 -37.5352 341.43 l 1
 110.495 341.43 l 1
 143.265 503.02 l 1
 15.5752 503.02 l 1
 15.5752 651.05 l 1
 170.385 651.05 l 1
 221.235 919.99 l 1
282.255 503.02 m 1
 249.485 341.43 l 1
 383.955 341.43 l 1
 418.985 503.02 l 1
 282.255 503.02 l 1
EndSplineSet
MinimumDistance: x5,-1 
EndChar
StartChar: dollar
Encoding: 36 36
OldEncoding: 36
Width: 689
Flags: W
VStem: 280.507 84.75<-155 -23 121 370 576 802 939 1010> 477.127 172.89<232.64 276.71>
Fore
640.977 663.17 m 1
 470.347 663.17 l 1
 470.347 704.604 458.671 737.75 435.316 762.61 c 1
 409.703 785.21 386.351 799.146 365.257 804.42 c 1
 365.257 542.26 l 1
 454.15 519.66 524.587 487.267 576.566 445.08 c 0
 627.793 403.646 652.276 347.523 650.017 276.71 c 0
 650.017 217.196 639.471 168.606 618.377 130.94 c 0
 595.776 90.2598 570.917 61.6338 543.797 45.0596 c 1
 512.157 21.707 480.517 7.0166 448.877 0.990234 c 1
 365.257 -20.4805 l 1
 365.257 -158.34 l 1
 278.247 -158.34 l 1
 280.507 -22.7402 l 1
 234.177 -14.8301 l 2
 225.137 -13.3232 206.681 -8.0498 178.807 0.990234 c 0
 150.933 8.52344 130.593 16.8096 117.787 25.8496 c 0
 83.8867 52.9697 64.6768 68.4131 60.1572 72.1797 c 0
 12.6963 121.9 -11.0332 190.83 -11.0332 278.97 c 1
 161.856 278.97 l 1
 164.117 244.316 170.521 216.443 181.066 195.35 c 0
 191.613 171.996 201.407 156.554 210.446 149.02 c 0
 221.747 139.98 234.177 133.2 247.736 128.68 c 1
 255.271 123.406 266.193 119.264 280.507 116.25 c 1
 280.507 410.05 l 1
 205.173 425.116 142.646 452.99 92.9268 493.67 c 0
 38.6865 538.87 11.5664 596.876 11.5664 667.69 c 0
 9.30664 745.283 33.4131 809.316 83.8867 859.79 c 1
 128.333 906.496 193.873 933.24 280.507 940.02 c 1
 280.507 1012.34 l 1
 365.257 1012.34 l 1
 365.257 940.02 l 1
 535.511 928.72 627.417 836.437 640.977 663.17 c 1
280.507 570.51 m 1
 280.507 808.94 l 1
 213.461 796.887 178.807 754.324 176.547 681.25 c 1
 178.807 662.416 183.327 646.22 190.106 632.66 c 0
 198.393 616.84 208.94 605.164 221.747 597.63 c 0
 238.32 587.084 257.907 578.044 280.507 570.51 c 1
365.257 378.41 m 1
 365.257 120.77 l 1
 393.507 133.2 l 1
 407.82 137.72 421.003 143.746 433.057 151.28 c 0
 444.356 158.06 454.15 168.23 462.437 181.79 c 0
 469.971 194.597 474.867 211.546 477.127 232.64 c 1
 477.127 308.727 439.837 357.316 365.257 378.41 c 1
EndSplineSet
MinimumDistance: x6,-1 
EndChar
StartChar: percent
Encoding: 37 37
OldEncoding: 37
Width: 1103
Flags: W
HStem: -20.9248 21G<204.185 308.145> -14.1445 128.82<824 842> 335.025 132.21<824 842> 445.765 132.21<187.508 218> 798.325 131.08<186.952 218>
VStem: -38.7646 131.08<682 700> 312.665 132.21<682 700> 588.385 131.08<218 236> 937.555 132.205<218 236>
DStem: 731.895 933.925 833.595 933.925 204.185 -20.9248 308.145 -20.9248
Fore
308.145 -20.9248 m 1
 204.185 -20.9248 l 1
 731.895 933.925 l 1
 833.595 933.925 l 1
 308.145 -20.9248 l 1
588.385 226.545 m 0
 588.385 290.579 611.361 346.701 657.315 394.915 c 0
 703.269 443.129 760.521 467.235 829.075 467.235 c 0
 893.108 467.235 949.231 443.129 997.445 394.915 c 0
 1045.66 346.701 1069.76 290.579 1069.76 226.545 c 0
 1069.76 157.991 1045.66 100.738 997.445 54.7852 c 0
 949.231 8.83203 893.108 -14.1445 829.075 -14.1445 c 0
 760.521 -14.1445 703.269 8.83203 657.315 54.7852 c 0
 611.361 100.738 588.385 157.991 588.385 226.545 c 0
-38.7646 686.455 m 0
 -38.7646 753.501 -15.0352 810.755 32.4248 858.215 c 0
 79.8848 905.675 137.139 929.405 204.185 929.405 c 0
 271.231 929.405 327.355 905.675 372.555 858.215 c 1
 420.769 810.001 444.875 752.749 444.875 686.455 c 0
 444.875 618.655 420.769 561.778 372.555 515.825 c 0
 325.849 469.119 269.725 445.765 204.185 445.765 c 0
 138.645 445.765 81.3916 469.119 32.4248 515.825 c 0
 -15.0352 561.025 -38.7646 617.901 -38.7646 686.455 c 0
719.465 226.545 m 0
 719.465 199.425 730.389 173.059 752.235 147.445 c 1
 774.081 125.599 799.695 114.675 829.075 114.675 c 0
 859.209 114.675 885.198 125.599 907.045 147.445 c 0
 927.385 170.045 937.555 196.411 937.555 226.545 c 0
 937.555 256.679 926.631 281.915 904.785 302.255 c 1
 884.445 324.102 859.209 335.025 829.075 335.025 c 0
 798.188 335.025 772.575 324.102 752.235 302.255 c 0
 730.389 280.409 719.465 255.171 719.465 226.545 c 0
92.3154 686.455 m 0
 92.3154 657.829 103.238 632.592 125.085 610.745 c 0
 145.425 588.898 171.791 577.975 204.185 577.975 c 0
 234.318 577.975 259.555 588.898 279.895 610.745 c 1
 301.741 631.085 312.665 656.321 312.665 686.455 c 0
 312.665 718.095 302.495 745.215 282.155 767.815 c 0
 261.815 788.155 235.825 798.325 204.185 798.325 c 0
 171.791 798.325 145.425 788.155 125.085 767.815 c 1
 103.238 742.201 92.3154 715.081 92.3154 686.455 c 0
EndSplineSet
MinimumDistance: x8,-1 
EndChar
StartChar: ampersand
Encoding: 38 38
OldEncoding: 38
Width: 891
Flags: W
HStem: -25.7363 151.42<312.273 331.961 332 334> 0.25293 21G<645.05 857.49> 812.724 148.029<349 383>
VStem: 115.08 175.15<728 766.394> 442.78 155.94<719 750.573>
DStem: 307.18 419.483 445.04 518.924 482.33 201.394 586.29 340.384
Fore
632.62 492.934 m 1
 785.17 492.934 l 1
 785.17 446.227 776.884 396.13 760.31 342.644 c 0
 745.244 293.677 721.137 250.359 687.99 212.693 c 1
 857.49 0.25293 l 1
 645.05 0.25293 l 1
 579.51 81.6133 l 1
 532.05 41.6865 495.89 15.3203 471.03 2.51367 c 0
 431.856 -16.3203 385.526 -25.7363 332.04 -25.7363 c 0
 247.666 -27.9971 172.71 -3.88965 107.17 46.583 c 0
 45.3965 94.7969 14.5098 163.35 14.5098 252.243 c 1
 20.1602 309.873 l 1
 26.9404 349.8 42.3838 385.583 66.4902 417.224 c 0
 91.3496 447.357 117.34 469.58 144.46 483.894 c 1
 221.3 530.224 l 1
 170.45 587.854 l 2
 157.644 602.167 145.214 622.884 133.16 650.003 c 0
 121.106 677.877 115.08 704.243 115.08 729.104 c 0
 115.08 759.989 121.86 789.369 135.42 817.243 c 2
 137.68 821.764 l 2
 155.76 866.21 185.894 900.863 228.08 925.724 c 0
 269.514 949.077 315.844 960.753 367.07 960.753 c 0
 427.336 960.753 477.434 946.817 517.36 918.943 c 0
 558.794 891.069 584.03 851.897 593.07 801.424 c 1
 598.72 750.573 l 1
 598.72 700.854 585.536 657.537 559.17 620.623 c 1
 532.05 586.724 494.006 552.823 445.04 518.924 c 1
 586.29 340.384 l 1
 599.85 350.93 611.526 369.387 621.32 395.753 c 0
 631.866 419.859 637.14 443.967 637.14 468.073 c 1
 632.62 492.934 l 1
320.74 673.733 m 2
 362.55 622.884 l 1
 402.1 645.483 l 1
 414.906 656.783 423.193 665.447 426.96 671.474 c 0
 435.246 685.787 440.52 701.983 442.78 720.063 c 1
 442.78 748.689 438.26 770.913 429.22 786.733 c 1
 422.44 804.06 401.724 812.724 367.07 812.724 c 0
 322.624 812.724 297.01 797.279 290.23 766.394 c 1
 290.23 728.727 300.4 697.84 320.74 673.733 c 2
482.33 201.394 m 1
 307.18 419.483 l 1
 216.78 360.724 l 1
 194.934 342.644 184.01 315.147 184.01 278.233 c 0
 184.01 233.033 203.974 192.729 243.9 157.323 c 1
 271.02 136.229 298.894 125.684 327.52 125.684 c 0
 373.474 125.684 425.076 150.92 482.33 201.394 c 1
EndSplineSet
MinimumDistance: x24,-1 
EndChar
StartChar: quotesingle
Encoding: 39 39
OldEncoding: 39
Width: 294
Flags: HW
Fore
258.406 857.045 m 4
 260.666 795.271 238.819 743.669 192.866 702.235 c 5
 149.926 660.801 106.986 637.825 64.0459 633.305 c 5
 47.0957 664.945 l 5
 79.4893 683.025 102.842 697.715 117.156 709.015 c 4
 134.482 723.329 146.159 745.929 152.186 776.815 c 5
 128.079 776.815 103.972 783.595 79.8662 797.155 c 4
 57.2656 810.715 44.8359 837.081 42.5762 876.255 c 4
 42.5762 902.621 51.2393 926.352 68.5654 947.445 c 4
 84.3857 966.278 106.609 975.695 135.236 975.695 c 4
 177.422 975.695 207.556 964.771 225.636 942.925 c 5
 247.482 922.585 258.406 893.959 258.406 857.045 c 4
EndSplineSet
EndChar
StartChar: parenleft
Encoding: 40 40
OldEncoding: 40
Width: 411
Flags: W
HStem: 954.59 20G<240.745 371.825>
Fore
240.745 974.59 m 1
 371.825 974.59 l 1
 321.352 884.19 278.411 790.776 243.005 694.35 c 0
 209.105 602.443 192.155 510.536 192.155 418.63 c 1
 194.415 361 l 1
 198.935 251.767 218.145 142.156 252.045 32.1699 c 1
 283.685 -81.583 323.611 -176.504 371.825 -252.59 c 1
 240.745 -252.59 l 1
 148.085 -87.6104 l 2
 129.251 -53.71 111.171 -13.7832 93.8447 32.1699 c 0
 78.0254 75.1104 63.7119 125.583 50.9053 183.59 c 0
 37.3447 239.336 29.4346 298.474 27.1748 361 c 1
 27.1748 424.28 33.9551 484.17 47.5146 540.67 c 0
 47.5146 542.93 47.8916 544.813 48.6445 546.32 c 0
 59.1914 601.313 76.1416 656.684 99.4951 712.43 c 0
 119.835 765.164 140.552 808.48 161.645 842.38 c 2
 240.745 974.59 l 1
EndSplineSet
EndChar
StartChar: parenright
Encoding: 41 41
OldEncoding: 41
Width: 413
Flags: W
HStem: 954.59 20G<7.16504 135.984>
Fore
7.16504 974.59 m 1
 135.984 974.59 l 1
 197.759 879.67 250.491 782.49 294.185 683.05 c 0
 334.864 587.376 354.075 480.026 351.814 361 c 0
 349.555 248 331.099 145.546 296.444 53.6396 c 1
 261.038 -30.7334 207.551 -132.81 135.984 -252.59 c 1
 7.16504 -252.59 l 1
 56.1318 -175.75 96.8105 -80.8301 129.205 32.1699 c 0
 161.599 142.91 180.055 252.52 184.575 361 c 2
 186.835 414.11 l 1
 186.835 460.816 182.314 508.653 173.274 557.62 c 0
 167.248 590.014 153.311 638.604 131.465 703.39 c 0
 110.371 765.164 91.915 811.494 76.0947 842.38 c 0
 61.7812 874.773 38.8047 918.844 7.16504 974.59 c 1
EndSplineSet
EndChar
StartChar: asterisk
Encoding: 42 42
OldEncoding: 42
Width: 481
Flags: W
VStem: 170.085 101.7<769 925>
DStem: 216.415 603.495 297.775 675.815 315.855 476.935 399.475 548.125
Fore
128.275 476.935 m 1
 42.3945 548.125 l 1
 145.225 675.815 l 1
 1.71484 726.665 l 1
 35.6152 819.325 l 1
 170.085 768.475 l 1
 170.085 930.065 l 1
 271.785 930.065 l 1
 271.785 768.475 l 1
 406.255 819.325 l 1
 441.285 726.665 l 1
 297.775 675.815 l 1
 399.475 548.125 l 1
 315.855 476.935 l 1
 216.415 603.495 l 1
 128.275 476.935 l 1
EndSplineSet
MinimumDistance: x12,-1 
EndChar
StartChar: plus
Encoding: 43 43
OldEncoding: 43
Width: 723
Flags: W
HStem: 390.965 157.07<35 260 419 645> 768.725 20G<260.9 419.1>
VStem: 260.9 158.199<165 390 548 775>
Fore
260.9 788.725 m 5
 419.1 788.725 l 5
 419.1 548.035 l 5
 659.79 548.035 l 5
 659.79 390.965 l 5
 419.1 390.965 l 5
 419.1 150.275 l 5
 260.9 150.275 l 5
 260.9 390.965 l 5
 20.21 390.965 l 5
 20.21 548.035 l 5
 260.9 548.035 l 5
 260.9 788.725 l 5
EndSplineSet
MinimumDistance: x3,-1 y5,7 y5,6 y2,0 y2,1 x8,10 x8,9 x2,4 x2,3 
EndChar
StartChar: comma
Encoding: 44 44
OldEncoding: 44
Width: 423
Flags: HW
Fore
319.341 81.1104 m 4
 321.601 18.583 300.131 -33.0195 254.931 -73.7002 c 4
 211.237 -115.134 167.921 -138.486 124.98 -143.76 c 5
 109.161 -110.99 l 5
 140.801 -94.417 163.777 -79.7266 178.091 -66.9199 c 5
 196.925 -54.1133 208.601 -31.8896 213.121 -0.25 c 5
 189.767 -0.25 166.037 6.90625 141.931 21.2197 c 4
 119.331 34.0264 106.9 60.0166 104.641 99.1904 c 4
 104.641 126.31 112.927 150.416 129.501 171.51 c 5
 146.827 190.344 169.427 199.76 197.301 199.76 c 4
 237.227 199.76 267.36 188.836 287.701 166.99 c 4
 308.794 144.39 319.341 115.764 319.341 81.1104 c 4
EndSplineSet
EndChar
StartChar: hyphen
Encoding: 45 45
OldEncoding: 45
Width: 412
Flags: W
HStem: 285.665 179.67<25 363>
Fore
10.3945 465.335 m 1
 368.605 465.335 l 1
 368.605 285.665 l 1
 10.3945 285.665 l 1
 10.3945 465.335 l 1
EndSplineSet
EndChar
StartChar: period
Encoding: 46 46
OldEncoding: 46
Width: 309
Flags: W
Fore
141.13 -27.0498 m 4
 109.49 -27.0498 85.7598 -17.6338 69.9404 1.2002 c 4
 52.6133 20.0332 43.9502 43.0098 43.9502 70.1299 c 4
 43.9502 95.7441 52.6133 117.966 69.9404 136.8 c 4
 85.7598 155.634 109.49 165.05 141.13 165.05 c 4
 171.264 165.05 194.616 155.634 211.19 136.8 c 4
 227.764 120.227 236.05 98.0039 236.05 70.1299 c 4
 236.05 43.0098 227.764 20.0332 211.19 1.2002 c 4
 194.616 -17.6338 171.264 -27.0498 141.13 -27.0498 c 4
EndSplineSet
EndChar
StartChar: slash
Encoding: 47 47
OldEncoding: 47
Width: 344
Flags: W
HStem: -17.25 21G<-18.6055 65.0146>
DStem: 259.375 943.25 339.605 943.25 -18.6055 -17.25 65.0146 -17.25
Fore
259.375 943.25 m 1
 339.605 943.25 l 1
 65.0146 -17.25 l 5
 -18.6055 -17.25 l 1
 259.375 943.25 l 1
EndSplineSet
MinimumDistance: x1,-1 
EndChar
StartChar: zero
Encoding: 48 48
OldEncoding: 48
Width: 689
Flags: W
HStem: -29.6152 169.5<301 335> 787.375 167.24<301 335>
VStem: -1.85547 183.06<417 515> 453.535 185.32<417 515>
Fore
316.805 -29.6152 m 0
 272.358 -29.6152 230.171 -21.7051 190.245 -5.88477 c 0
 148.812 10.6885 116.419 32.9121 93.0654 60.7852 c 0
 29.7852 139.885 -1.85547 274.355 -1.85547 464.195 c 0
 -1.85547 654.035 29.7852 787.375 93.0654 864.215 c 0
 115.665 891.335 148.059 913.559 190.245 930.885 c 0
 227.159 946.705 269.345 954.615 316.805 954.615 c 0
 416.999 954.615 492.709 924.481 543.935 864.215 c 1
 607.215 785.869 638.855 652.528 638.855 464.195 c 0
 638.855 275.861 607.215 141.392 543.935 60.7852 c 1
 492.709 0.518555 416.999 -29.6152 316.805 -29.6152 c 0
316.805 139.885 m 0
 374.812 139.885 412.102 160.602 428.675 202.035 c 1
 445.249 250.249 453.535 337.635 453.535 464.195 c 0
 453.535 586.988 445.249 673.999 428.675 725.225 c 1
 412.102 766.658 374.812 787.375 316.805 787.375 c 0
 289.685 787.375 266.709 782.102 247.875 771.555 c 0
 228.289 760.255 215.105 744.812 208.325 725.225 c 0
 190.245 679.271 181.205 592.262 181.205 464.195 c 0
 181.205 333.115 190.245 245.729 208.325 202.035 c 1
 219.625 160.602 255.785 139.885 316.805 139.885 c 0
EndSplineSet
MinimumDistance: x8,-1 
EndChar
StartChar: one
Encoding: 49 49
OldEncoding: 49
Width: 697
Flags: W
HStem: 0.375 21G<278.08 463.4>
VStem: 278.08 185.32<15 645>
Fore
463.4 932.625 m 5
 463.4 0.375 l 1
 278.08 0.375 l 1
 278.08 645.605 l 1
 56.5996 645.605 l 1
 56.5996 768.775 l 1
 92.7598 768.775 130.427 773.295 169.6 782.335 c 0
 208.02 789.115 238.153 800.791 260 817.365 c 0
 311.98 853.525 339.1 891.945 341.36 932.625 c 1
 463.4 932.625 l 5
EndSplineSet
MinimumDistance: x0,-1 y5,3 x3,5 x3,4 
EndChar
StartChar: two
Encoding: 50 50
OldEncoding: 50
Width: 689
Flags: W
HStem: -1.01562 166.11<253 623>
VStem: 449.271 185.32<613 655>
Fore
632.331 165.094 m 1
 632.331 -1.01562 l 1
 -1.59863 -1.01562 l 1
 2.9209 59.251 13.4678 115.75 30.041 168.484 c 0
 48.1211 221.218 85.4111 268.678 141.911 310.864 c 0
 145.677 313.878 184.851 343.258 259.431 399.004 c 2
 260.561 400.134 l 1
 261.691 401.264 l 1
 289.941 422.734 l 2
 343.427 462.66 378.835 492.794 396.161 513.134 c 0
 431.567 557.58 449.271 602.027 449.271 646.474 c 0
 449.271 662.294 447.011 681.128 442.491 702.974 c 0
 437.971 736.874 423.281 761.357 398.421 776.424 c 0
 371.301 793.75 344.181 802.414 317.061 802.414 c 1
 285.421 797.894 l 1
 222.141 783.58 190.501 721.054 190.501 610.314 c 1
 11.9609 610.314 l 1
 11.9609 720.301 39.0811 805.804 93.3213 866.824 c 0
 151.327 930.104 233.064 959.484 338.531 954.964 c 0
 488.444 948.184 581.857 881.138 618.771 753.824 c 0
 630.071 713.144 635.345 666.814 634.591 614.834 c 0
 632.331 528.954 557.375 434.034 409.721 330.074 c 0
 312.541 261.521 255.665 206.527 239.091 165.094 c 1
 632.331 165.094 l 1
EndSplineSet
MinimumDistance: x20,-1 
EndChar
StartChar: three
Encoding: 51 51
OldEncoding: 51
Width: 689
Flags: W
HStem: -29.6328 148.03<309 345>
Fore
-1.87305 274.337 m 1
 173.277 274.337 l 1
 176.291 247.217 180.434 223.863 185.707 204.277 c 0
 190.228 187.703 198.514 173.014 210.567 160.207 c 0
 223.374 147.401 239.571 137.607 259.157 130.827 c 0
 290.797 122.541 319.424 118.397 345.037 118.397 c 1
 366.884 126.684 383.834 136.854 395.888 148.907 c 0
 432.801 183.561 451.257 224.617 451.257 272.077 c 0
 451.257 314.264 433.554 349.671 398.147 378.297 c 1
 361.233 404.664 310.384 417.848 245.598 417.848 c 1
 245.598 542.147 l 1
 294.563 542.147 337.127 550.811 373.287 568.138 c 0
 405.681 583.957 424.138 610.701 428.657 648.367 c 2
 433.178 687.917 l 1
 433.178 707.504 429.411 727.844 421.877 748.938 c 1
 412.084 766.264 398.147 780.577 380.067 791.877 c 0
 358.974 803.178 334.867 808.827 307.747 808.827 c 0
 256.521 811.087 221.867 795.644 203.787 762.497 c 1
 190.981 733.871 183.447 692.813 181.188 639.327 c 1
 11.6875 639.327 l 1
 11.6875 707.881 21.1035 763.627 39.9375 806.567 c 0
 57.2637 849.507 96.4375 888.681 157.457 924.087 c 0
 196.631 946.688 259.911 956.857 347.297 954.598 c 0
 418.863 954.598 476.117 936.141 519.058 899.228 c 0
 554.464 869.094 578.193 835.947 590.247 799.787 c 0
 602.301 762.121 608.327 718.804 608.327 669.837 c 1
 603.808 629.911 594.768 599.777 581.207 579.438 c 0
 566.894 558.344 541.281 531.978 504.367 500.337 c 1
 554.087 470.203 588.741 437.058 608.327 400.897 c 1
 630.928 365.491 641.098 313.134 638.837 243.827 c 0
 636.577 180.547 609.457 118.021 557.478 56.2471 c 1
 507.004 -1.00586 424.514 -29.6328 310.007 -29.6328 c 0
 266.313 -29.6328 222.621 -23.2295 178.928 -10.4229 c 0
 138.247 0.876953 100.203 28.374 64.7969 72.0674 c 0
 36.9238 105.967 19.9736 137.607 13.9473 166.987 c 1
 5.66016 196.367 0.387695 232.151 -1.87305 274.337 c 1
EndSplineSet
EndChar
StartChar: four
Encoding: 52 52
OldEncoding: 52
Width: 689
Flags: W
HStem: 0.375 21G<363.135 548.455> 206.035 150.29<134 363 548 632>
VStem: 363.135 185.32<15 206 357 737>
DStem: 333.755 932.625 363.135 745.045 -8.63477 364.235 122.445 356.325
Fore
333.755 932.625 m 1
 548.455 932.625 l 1
 548.455 356.325 l 1
 645.635 356.325 l 1
 645.635 206.035 l 1
 548.455 206.035 l 1
 548.455 0.375 l 1
 363.135 0.375 l 1
 363.135 206.035 l 1
 -8.63477 206.035 l 1
 -8.63477 364.235 l 1
 333.755 932.625 l 1
363.135 745.045 m 1
 122.445 356.325 l 1
 363.135 356.325 l 1
 363.135 745.045 l 1
EndSplineSet
MinimumDistance: x3,-1 y5,7 y5,6 x0,2 y2,0 y2,1 y10,8 x8,10 x8,9 x2,4 x2,3 
EndChar
StartChar: five
Encoding: 53 53
OldEncoding: 53
Width: 689
Flags: W
HStem: 770.53 163.85<218 602>
VStem: 451.535 187.58<290 324>
DStem: 106.885 934.38 219.885 770.53 21.0049 416.84 188.245 578.43
Fore
-6.11523 245.08 m 1
 176.945 245.08 l 1
 179.205 222.48 183.725 203.27 190.505 187.45 c 0
 198.039 169.37 211.222 155.434 230.055 145.64 c 0
 251.901 133.586 280.151 127.56 314.805 127.56 c 0
 361.512 129.82 396.541 148.276 419.895 182.93 c 1
 440.988 218.336 451.535 259.017 451.535 304.97 c 0
 451.535 359.964 441.741 401.02 422.155 428.14 c 1
 390.515 467.313 347.951 485.77 294.465 483.51 c 0
 242.485 483.51 207.831 461.286 190.505 416.84 c 1
 21.0049 416.84 l 1
 106.885 934.38 l 1
 604.085 934.38 l 1
 604.085 770.53 l 1
 219.885 770.53 l 1
 188.245 578.43 l 1
 222.898 598.77 251.525 612.706 274.125 620.24 c 0
 301.999 627.773 327.235 631.54 349.835 631.54 c 0
 383.735 631.54 416.881 626.267 449.275 615.72 c 0
 511.802 593.874 559.639 555.076 592.785 499.33 c 1
 623.671 443.584 639.115 381.81 639.115 314.01 c 0
 639.115 241.69 621.411 176.15 586.005 117.39 c 0
 558.131 73.6963 524.231 40.5498 484.305 17.9502 c 0
 446.639 -4.65039 390.892 -20.0938 317.065 -28.3799 c 1
 259.812 -28.3799 214.611 -21.9766 181.465 -9.16992 c 0
 151.331 2.12988 121.198 19.833 91.0654 43.9404 c 0
 64.6982 65.7871 42.0986 90.2695 23.2646 117.39 c 1
 8.19824 146.017 -0.0878906 168.616 -1.59473 185.19 c 1
 -6.11523 245.08 l 1
EndSplineSet
MinimumDistance: x20,-1 
EndChar
StartChar: six
Encoding: 54 54
OldEncoding: 54
Width: 689
Flags: W
HStem: 475.374 141.25<318.805 386.605> 725.104 21G<453.275 625.035>
VStem: 467.965 172.89<289 323>
Fore
625.035 725.104 m 1
 453.275 725.104 l 1
 435.195 780.098 399.035 808.725 344.795 810.984 c 0
 307.129 810.984 275.488 801.568 249.875 782.734 c 1
 225.015 766.914 208.818 746.951 201.285 722.845 c 0
 187.725 687.438 180.945 645.628 180.945 597.414 c 0
 180.945 580.088 182.451 563.138 185.465 546.564 c 1
 213.339 570.671 240.081 587.621 265.695 597.414 c 0
 297.335 610.221 337.639 616.624 386.605 616.624 c 0
 470.225 616.624 537.271 579.334 587.745 504.754 c 0
 623.151 451.269 640.855 388.364 640.855 316.044 c 0
 640.855 251.258 631.062 197.771 611.475 155.584 c 0
 582.849 93.0576 546.312 47.4814 501.865 18.8545 c 0
 454.405 -11.2793 396.775 -27.4756 328.975 -29.7354 c 0
 258.915 -31.9951 195.635 -10.9023 139.135 33.5439 c 1
 84.8945 78.7441 48.3584 132.608 29.5254 195.135 c 1
 9.93848 268.961 0.144531 359.36 0.144531 466.334 c 0
 0.144531 560.501 9.93848 641.484 29.5254 709.284 c 1
 53.6318 781.604 90.9209 840.74 141.395 886.694 c 0
 192.621 933.4 258.915 956.754 340.275 956.754 c 1
 391.125 954.494 l 1
 479.265 943.194 540.285 913.814 574.185 866.354 c 1
 605.825 815.881 622.775 768.798 625.035 725.104 c 1
199.025 391.754 m 1
 185.465 364.635 178.685 332.994 178.685 296.834 c 0
 178.685 248.621 189.985 208.694 212.585 177.055 c 0
 232.925 149.935 264.565 132.984 307.505 126.204 c 1
 354.965 126.204 391.501 139.765 417.115 166.885 c 1
 451.015 206.811 467.965 254.648 467.965 310.395 c 0
 467.965 351.828 458.549 388.364 439.715 420.004 c 1
 413.349 456.918 373.045 475.374 318.805 475.374 c 1
 290.932 473.114 267.955 465.204 249.875 451.645 c 1
 226.521 438.838 209.571 418.874 199.025 391.754 c 1
EndSplineSet
MinimumDistance: x10,-1 
EndChar
StartChar: seven
Encoding: 55 55
OldEncoding: 55
Width: 688
Flags: W
HStem: 0.375 21G<131.835 316.025> 768.775 163.85<12 446>
Fore
-2.63477 932.625 m 1
 651.635 932.625 l 1
 651.635 789.115 l 1
 603.421 731.861 559.729 672.725 520.555 611.705 c 0
 484.395 555.959 450.495 493.432 418.855 424.125 c 0
 389.475 355.571 366.121 288.525 348.795 222.985 c 1
 332.222 149.911 321.299 75.708 316.025 0.375 c 1
 131.835 0.375 l 1
 143.135 93.0352 158.579 173.265 178.165 241.065 c 1
 193.231 304.345 214.701 366.871 242.575 428.645 c 0
 267.435 484.392 297.568 539.009 332.975 592.495 c 1
 365.369 645.981 406.802 704.741 457.275 768.775 c 1
 -2.63477 768.775 l 1
 -2.63477 932.625 l 1
EndSplineSet
EndChar
StartChar: eight
Encoding: 56 56
OldEncoding: 56
Width: 689
Flags: W
HStem: 435.828 125.431<298 309 309.951 318.876>
VStem: -11.0254 189.84<257 291> 20.6152 162.72<689 707> 451.145 198.88<269 291> 462.445 160.46<689 707>
Fore
601.435 132.988 m 1
 577.329 82.5156 537.401 42.2119 481.655 12.0781 c 1
 420.635 -18.0547 361.875 -31.9912 305.375 -29.7314 c 1
 248.875 -29.7314 192.751 -14.2881 137.005 16.5986 c 0
 84.2715 45.2256 44.7217 84.7754 18.3555 135.248 c 0
 -1.23145 173.669 -11.0254 219.245 -11.0254 271.979 c 0
 -11.0254 379.705 36.8115 459.183 132.485 510.408 c 1
 101.599 534.515 74.4785 562.012 51.125 592.898 c 0
 30.7852 621.524 20.6152 656.179 20.6152 696.858 c 0
 20.6152 740.553 30.7852 780.103 51.125 815.509 c 1
 74.4785 860.709 107.625 895.362 150.565 919.469 c 0
 192.751 944.328 242.095 956.759 298.595 956.759 c 0
 427.415 956.759 516.309 922.104 565.275 852.799 c 0
 603.695 800.064 622.905 747.332 622.905 694.599 c 0
 622.905 650.904 610.475 612.484 585.615 579.339 c 0
 560.001 544.685 529.869 521.709 495.215 510.408 c 1
 544.182 495.342 581.849 467.469 608.215 426.788 c 0
 636.089 385.354 650.025 338.272 650.025 285.538 c 0
 650.025 227.532 633.829 176.683 601.435 132.988 c 1
402.555 590.639 m 1
 422.142 601.185 436.831 617.382 446.625 639.229 c 0
 457.171 659.568 462.445 680.662 462.445 702.509 c 0
 462.445 731.889 453.405 755.618 435.325 773.698 c 1
 411.972 801.572 378.071 815.509 333.625 815.509 c 0
 286.919 817.769 249.629 806.092 221.755 780.479 c 1
 196.142 759.385 183.335 730.759 183.335 694.599 c 0
 183.335 659.192 196.142 626.799 221.755 597.419 c 1
 247.369 573.312 276.749 561.259 309.895 561.259 c 0
 354.341 558.998 385.229 568.792 402.555 590.639 c 1
413.855 166.889 m 1
 424.401 177.435 433.065 193.632 439.845 215.479 c 0
 447.379 241.845 451.145 265.198 451.145 285.538 c 0
 451.145 318.685 442.858 348.818 426.285 375.938 c 0
 402.179 413.604 366.395 433.568 318.935 435.828 c 0
 272.981 435.828 237.575 421.139 212.715 391.759 c 0
 190.115 366.898 178.815 329.984 178.815 281.019 c 0
 178.815 238.078 187.102 203.425 203.675 177.059 c 1
 236.821 141.652 271.475 123.948 307.635 123.948 c 1
 351.329 120.935 386.735 135.248 413.855 166.889 c 1
EndSplineSet
MinimumDistance: x13,-1 
EndChar
StartChar: nine
Encoding: 57 57
OldEncoding: 57
Width: 689
Flags: W
HStem: -30.0049 145.77<283 309> 303.345 158.2<290 309>
VStem: -3.98535 163.85<608 642>
Fore
7.31543 218.595 m 1
 188.115 218.595 l 1
 188.115 194.488 197.909 171.135 217.495 148.535 c 1
 240.849 126.688 264.201 115.765 287.555 115.765 c 0
 359.121 115.765 406.959 145.145 431.065 203.905 c 0
 449.145 250.611 458.185 293.929 458.185 333.855 c 0
 458.185 355.701 455.171 372.651 449.145 384.705 c 1
 424.285 353.818 392.645 330.842 354.225 315.775 c 0
 335.392 307.488 314.675 303.345 292.075 303.345 c 0
 256.669 303.345 232.562 304.852 219.755 307.865 c 0
 129.355 325.191 65.3213 377.171 27.6553 463.805 c 0
 6.56152 514.278 -3.98535 568.142 -3.98535 625.395 c 0
 -3.98535 696.209 9.95117 755.722 37.8252 803.935 c 0
 62.6846 848.381 98.8447 886.049 146.305 916.935 c 0
 188.491 946.315 239.341 961.005 298.855 961.005 c 1
 345.185 956.485 l 1
 368.539 956.485 397.165 949.329 431.065 935.015 c 0
 467.225 918.441 499.619 896.972 528.245 870.605 c 0
 559.885 840.472 579.849 808.831 588.135 775.685 c 1
 622.035 701.105 638.985 608.445 638.985 497.705 c 0
 638.985 423.879 632.205 353.818 618.645 287.525 c 1
 599.059 212.191 581.355 159.081 565.535 128.195 c 0
 529.375 62.6553 486.812 20.0918 437.845 0.504883 c 0
 386.619 -19.835 336.521 -30.0049 287.555 -30.0049 c 0
 197.909 -30.0049 128.225 -2.13184 78.5049 53.6152 c 1
 31.0449 110.115 7.31543 165.108 7.31543 218.595 c 1
411.855 762.125 m 1
 386.241 789.999 350.081 803.935 303.375 803.935 c 0
 266.461 803.935 230.302 785.479 194.895 748.565 c 1
 171.541 718.432 159.865 677.375 159.865 625.395 c 0
 159.865 574.169 174.555 533.865 203.935 504.485 c 0
 231.809 475.858 266.461 461.545 307.895 461.545 c 0
 350.081 461.545 384.735 476.988 411.855 507.875 c 1
 439.729 536.501 453.665 575.675 453.665 625.395 c 0
 453.665 656.281 449.145 684.908 440.105 711.275 c 0
 433.325 736.135 423.909 753.085 411.855 762.125 c 1
EndSplineSet
MinimumDistance: x28,-1 
EndChar
StartChar: colon
Encoding: 58 58
OldEncoding: 58
Width: 375
Flags: W
HStem: -24.7051 185.32<171 189> 535.775 181.93<171 189>
Fore
184.87 -24.7051 m 4
 156.244 -24.7051 134.02 -15.2881 118.2 3.54492 c 5
 100.874 20.8721 92.21 42.3418 92.21 67.9551 c 4
 92.21 91.3086 100.874 112.778 118.2 132.365 c 4
 134.02 151.198 156.244 160.615 184.87 160.615 c 4
 215.756 160.615 239.11 151.198 254.93 132.365 c 5
 271.504 115.791 279.79 94.3213 279.79 67.9551 c 4
 279.79 43.8486 271.504 22.3779 254.93 3.54492 c 4
 239.11 -15.2881 215.756 -24.7051 184.87 -24.7051 c 4
184.87 535.775 m 4
 156.244 535.775 134.02 544.815 118.2 562.895 c 4
 100.874 583.988 92.21 605.835 92.21 628.435 c 4
 92.21 648.775 100.874 669.491 118.2 690.585 c 4
 134.02 708.665 156.244 717.705 184.87 717.705 c 4
 215.004 717.705 238.356 709.419 254.93 692.845 c 5
 271.504 672.505 279.79 651.035 279.79 628.435 c 4
 279.79 605.081 271.504 583.235 254.93 562.895 c 4
 239.11 544.815 215.756 535.775 184.87 535.775 c 4
EndSplineSet
EndChar
StartChar: semicolon
Encoding: 59 59
OldEncoding: 59
Width: 423
Flags: HW
HStem: 518.05 204.53<195 216>
Fore
204.081 480.05 m 4
 171.687 480.05 146.827 490.22 129.501 510.56 c 4
 112.927 531.653 104.641 555.384 104.641 581.75 c 4
 104.641 607.363 112.927 631.47 129.501 654.07 c 5
 146.827 674.41 171.687 684.58 204.081 684.58 c 4
 238.734 684.58 263.971 674.41 279.791 654.07 c 4
 297.117 632.224 305.78 608.116 305.78 581.75 c 4
 305.78 555.384 297.117 531.653 279.791 510.56 c 4
 261.711 490.22 236.475 480.05 204.081 480.05 c 4
319.341 82.29 m 4
 321.601 19.7637 300.131 -31.8398 254.931 -72.5195 c 4
 211.237 -113.953 167.921 -137.307 124.98 -142.58 c 5
 109.161 -109.81 l 5
 140.801 -93.2363 163.777 -78.5469 178.091 -65.7402 c 5
 196.925 -52.9336 208.601 -30.71 213.121 0.929688 c 5
 189.767 0.929688 166.037 8.08691 141.931 22.4004 c 4
 119.331 35.207 106.9 61.1963 104.641 100.37 c 4
 104.641 127.49 112.927 151.597 129.501 172.69 c 5
 146.827 191.523 169.427 200.94 197.301 200.94 c 4
 237.227 200.94 267.36 190.017 287.701 168.17 c 4
 308.794 145.57 319.341 116.943 319.341 82.29 c 4
EndSplineSet
EndChar
StartChar: less
Encoding: 60 60
OldEncoding: 60
Width: 724
Flags: W
DStem: 10.0146 390.965 239.405 468.935 652.985 150.275 652.985 320.905 652.985 788.725 652.985 616.965 10.0146 548.035 239.405 468.935
Fore
10.0146 390.965 m 5
 10.0146 548.035 l 5
 652.985 788.725 l 5
 652.985 616.965 l 5
 239.405 468.935 l 5
 652.985 320.905 l 5
 652.985 150.275 l 5
 10.0146 390.965 l 5
EndSplineSet
MinimumDistance: x2,-1 
EndChar
StartChar: equal
Encoding: 61 61
OldEncoding: 61
Width: 723
Flags: W
HStem: 229.57 162.72<35 645> 549.36 157.069<35 645>
Fore
20.21 706.43 m 5
 659.79 706.43 l 5
 659.79 549.36 l 5
 20.21 549.36 l 5
 20.21 706.43 l 5
20.21 392.29 m 5
 659.79 392.29 l 5
 659.79 229.57 l 5
 20.21 229.57 l 5
 20.21 392.29 l 5
EndSplineSet
EndChar
StartChar: greater
Encoding: 62 62
OldEncoding: 62
Width: 724
Flags: W
DStem: 10.0146 616.965 10.0146 788.725 422.465 468.935 652.985 548.035 422.465 468.935 652.985 390.965 10.0146 320.905 10.0146 150.275
Fore
10.0146 788.725 m 5
 652.985 548.035 l 5
 652.985 390.965 l 5
 10.0146 150.275 l 5
 10.0146 320.905 l 5
 422.465 468.935 l 5
 10.0146 616.965 l 5
 10.0146 788.725 l 5
EndSplineSet
MinimumDistance: x1,-1 
EndChar
StartChar: question
Encoding: 63 63
OldEncoding: 63
Width: 757
Flags: W
HStem: -2.41992 21G<268.275 464.895> 805.53 172.89<346 375>
VStem: 492.015 192.1<682 686>
Fore
436.645 260.87 m 1
 277.315 260.87 l 1
 277.315 327.916 289.369 382.91 313.475 425.85 c 1
 342.855 471.05 381.651 510.977 429.865 545.63 c 0
 473.559 577.27 494.275 622.847 492.015 682.36 c 0
 492.015 720.78 478.079 750.914 450.205 772.76 c 0
 424.591 794.606 394.459 805.53 359.805 805.53 c 0
 320.631 805.53 286.731 790.84 258.105 761.46 c 1
 230.231 729.82 216.295 686.504 216.295 631.51 c 1
 38.8848 631.51 l 1
 38.8848 746.017 72.0312 838.676 138.325 909.49 c 1
 195.579 955.443 265.639 978.42 348.505 978.42 c 0
 400.485 978.42 447.568 970.887 489.755 955.82 c 0
 533.448 940 568.102 919.283 593.715 893.67 c 0
 653.981 835.664 684.115 765.227 684.115 682.36 c 0
 684.115 628.12 673.191 581.036 651.345 541.11 c 0
 645.318 529.81 637.785 518.51 628.745 507.21 c 0
 619.705 495.156 608.781 484.986 595.975 476.7 c 1
 564.335 450.71 l 1
 524.785 421.33 l 2
 484.105 390.443 459.999 367.09 452.465 351.27 c 0
 441.919 330.177 436.645 300.044 436.645 260.87 c 1
268.275 -2.41992 m 1
 268.275 189.68 l 1
 464.895 189.68 l 1
 464.895 -2.41992 l 1
 268.275 -2.41992 l 1
EndSplineSet
MinimumDistance: x14,-1 
EndChar
StartChar: at
Encoding: 64 64
OldEncoding: 64
Width: 1207
Flags: W
HStem: -172.82 116.39<531 603> 84.8203 103.96<833 858> 880.34 108.48<565 622>
VStem: -38.7451 128.82<325 356> 1055.09 118.66<473 500>
Fore
773.725 679.2 m 1
 891.245 679.2 l 1
 780.505 281.44 l 1
 780.505 259.594 782.765 241.89 787.285 228.33 c 1
 789.545 212.51 797.079 200.834 809.885 193.3 c 1
 818.925 190.286 829.095 188.78 840.395 188.78 c 0
 863.749 188.78 882.959 194.054 898.025 204.6 c 1
 924.392 215.9 948.499 234.356 970.345 259.97 c 0
 994.451 290.104 1009.89 314.21 1016.67 332.29 c 1
 1042.29 387.283 1055.09 441.9 1055.09 496.14 c 0
 1055.09 527.78 1050.58 558.666 1041.54 588.8 c 1
 1034.75 622.7 1014.04 661.12 979.385 704.06 c 0
 948.499 743.233 910.455 777.51 865.255 806.89 c 0
 789.169 855.856 696.131 880.34 586.145 880.34 c 0
 555.259 880.34 517.969 876.574 474.275 869.04 c 0
 431.335 860.754 381.991 835.894 326.245 794.46 c 0
 278.031 757.546 234.339 713.1 195.165 661.12 c 0
 125.105 570.72 90.0752 465.63 90.0752 345.85 c 0
 90.0752 320.236 95.7246 287.09 107.025 246.41 c 0
 121.339 202.716 133.769 171.83 144.315 153.75 c 0
 161.642 125.124 176.709 104.406 189.515 91.5996 c 0
 252.041 26.8135 335.661 -18.0098 440.375 -42.8701 c 0
 478.795 -51.9102 520.229 -56.4297 564.675 -56.4297 c 0
 653.568 -56.4297 743.969 -40.2334 835.875 -7.83984 c 1
 873.165 -111.8 l 1
 791.805 -152.48 686.715 -172.82 557.895 -172.82 c 0
 514.955 -172.82 478.795 -170.56 449.415 -166.04 c 0
 392.161 -155.494 351.858 -146.83 328.505 -140.05 c 0
 290.085 -128.75 249.405 -108.786 206.465 -80.1602 c 0
 159.005 -50.0264 115.688 -11.9834 76.5146 33.9697 c 0
 43.3691 72.3896 15.4951 120.227 -7.10547 177.48 c 0
 -28.1982 232.474 -38.7451 281.816 -38.7451 325.51 c 0
 -38.7451 377.49 -34.2246 424.573 -25.1846 466.76 c 1
 -18.4053 508.946 -4.46875 550.38 16.625 591.06 c 1
 33.9512 630.986 56.1748 669.406 83.2949 706.32 c 0
 125.481 764.326 175.579 817.06 233.585 864.52 c 1
 293.852 910.474 360.521 944.374 433.595 966.22 c 0
 484.068 981.286 540.945 988.82 604.225 988.82 c 0
 716.472 988.82 815.159 963.584 900.285 913.11 c 0
 1046.43 827.23 1133.82 719.88 1162.45 591.06 c 1
 1169.98 549.626 1173.75 513.467 1173.75 482.58 c 0
 1173.75 416.286 1160.56 356.02 1134.2 301.78 c 0
 1090.5 209.874 1034.38 146.594 965.825 111.94 c 0
 928.159 93.8604 888.608 84.8203 847.175 84.8203 c 0
 821.562 84.8203 794.441 88.5869 765.815 96.1201 c 0
 731.915 105.16 702.159 130.396 676.545 171.83 c 1
 629.839 133.41 593.302 108.927 566.935 98.3799 c 0
 536.049 85.5732 507.799 79.1699 482.185 79.1699 c 0
 461.845 79.1699 431.711 87.833 391.785 105.16 c 0
 355.625 120.227 326.999 143.204 305.905 174.09 c 0
 278.031 217.784 264.095 262.606 264.095 308.56 c 0
 264.095 325.887 265.602 341.33 268.615 354.89 c 0
 286.695 461.863 333.025 545.106 407.605 604.62 c 1
 472.392 661.874 537.179 690.5 601.965 690.5 c 0
 619.291 690.5 634.735 688.24 648.295 683.72 c 0
 704.041 670.16 738.695 642.286 752.255 600.1 c 1
 773.725 679.2 l 1
488.965 186.52 m 1
 535.671 186.52 572.585 198.573 599.705 222.68 c 1
 632.852 247.54 659.219 285.584 678.805 336.81 c 0
 698.392 385.776 708.185 432.106 708.185 475.8 c 0
 705.925 536.066 676.545 575.24 620.045 593.32 c 1
 597.445 597.84 l 1
 576.352 597.84 554.881 591.813 533.035 579.76 c 0
 517.215 572.227 495.369 555.276 467.495 528.91 c 0
 446.401 507.063 429.451 479.19 416.645 445.29 c 0
 400.071 402.35 391.785 367.696 391.785 341.33 c 0
 389.525 303.664 398.565 269.764 418.905 239.63 c 0
 436.231 211.004 459.585 193.3 488.965 186.52 c 1
EndSplineSet
MinimumDistance: x40,-1 
EndChar
StartChar: A
Encoding: 65 65
OldEncoding: 65
Width: 892
Flags: W
HStem: -1.25 21G<-20.2197 180.92 669.08 870.22> 190.85 163.85<311 556> 939.25 20G<313.13 541.39>
DStem: 313.13 959.25 247.59 190.85 -20.2197 -1.25 180.92 -1.25 428.39 727.6 541.39 959.25 556.08 354.7 870.22 -1.25 602.41 190.85 541.39 959.25 669.08 -1.25 870.22 -1.25
Fore
541.39 959.25 m 1
 870.22 -1.25 l 1
 669.08 -1.25 l 1
 602.41 190.85 l 1
 247.59 190.85 l 1
 180.92 -1.25 l 1
 -20.2197 -1.25 l 1
 313.13 959.25 l 1
 541.39 959.25 l 1
428.39 727.6 m 1
 310.87 354.7 l 1
 556.08 354.7 l 1
 428.39 727.6 l 1
EndSplineSet
MinimumDistance: x1,-1 
EndChar
StartChar: B
Encoding: 66 66
OldEncoding: 66
Width: 891
Flags: W
HStem: -1.25 163.85<258 500> 411.2 163.85<258 487> 795.4 163.85<258 500>
VStem: 51.9297 196.62<166 399 589 783> 628.23 189.84<297 308.325>
Fore
51.9297 -1.25 m 1
 51.9297 959.25 l 1
 477.94 959.25 l 2
 510.334 959.25 551.39 953.224 601.11 941.17 c 0
 647.063 928.363 682.47 909.53 707.33 884.67 c 1
 735.204 864.33 755.166 842.86 767.22 820.26 c 1
 783.04 767.15 l 1
 795.47 707.26 l 1
 795.47 671.1 787.56 637.2 771.74 605.56 c 1
 758.18 570.153 735.204 538.514 702.81 510.64 c 1
 732.943 488.794 758.18 460.166 778.52 424.76 c 0
 800.366 387.094 813.55 348.296 818.07 308.37 c 1
 818.07 251.87 810.536 205.164 795.47 168.25 c 0
 778.144 127.57 752.53 92.54 718.63 63.1602 c 0
 666.65 20.2197 588.68 -1.25 484.72 -1.25 c 2
 51.9297 -1.25 l 1
248.55 795.4 m 1
 248.55 575.05 l 1
 473.42 575.05 l 2
 517.113 575.05 549.506 585.22 570.6 605.56 c 0
 593.954 626.653 605.63 652.644 605.63 683.53 c 0
 603.37 758.11 562.313 795.4 482.46 795.4 c 2
 248.55 795.4 l 1
248.55 411.2 m 1
 248.55 162.6 l 1
 480.2 162.6 l 2
 520.126 162.6 554.78 170.51 584.16 186.33 c 0
 615.8 202.903 630.49 239.816 628.23 297.07 c 0
 628.23 343.776 615.046 373.91 588.68 387.47 c 1
 563.82 403.29 529.166 411.2 484.72 411.2 c 2
 248.55 411.2 l 1
EndSplineSet
MinimumDistance: x11,-1 
EndChar
StartChar: C
Encoding: 67 67
OldEncoding: 67
Width: 892
Flags: W
HStem: -30.7783 169.5<415 443> 809.942 163.85<415 417 417.136 441.763 442 461.24>
Fore
655.52 328.562 m 1
 847.62 328.562 l 1
 847.62 279.596 835.19 231.006 810.33 182.792 c 0
 785.47 134.578 754.584 94.2754 717.67 61.8818 c 0
 685.276 35.5156 644.22 14.7988 594.5 -0.267578 c 1
 537.246 -20.6084 484.137 -30.7783 435.17 -30.7783 c 0
 331.964 -33.0381 242.693 -3.6582 167.36 57.3623 c 0
 95.04 117.628 46.4502 199.365 21.5898 302.572 c 1
 8.7832 347.771 2.37988 404.271 2.37988 472.072 c 0
 2.37988 546.652 10.29 607.672 26.1104 655.132 c 1
 87.8838 867.572 226.496 973.792 441.95 973.792 c 0
 544.403 973.792 631.036 949.309 701.85 900.342 c 0
 794.51 837.062 843.1 748.168 847.62 633.662 c 1
 657.78 633.662 l 1
 655.52 657.769 647.61 682.628 634.05 708.242 c 0
 617.477 736.115 592.994 759.846 560.6 779.432 c 0
 523.687 802.032 475.85 812.202 417.09 809.942 c 0
 379.424 809.942 340.626 794.498 300.7 763.612 c 1
 265.294 731.972 240.057 696.565 224.99 657.392 c 0
 206.91 615.206 196.74 559.458 194.48 490.152 c 0
 192.974 462.278 195.233 426.118 201.26 381.672 c 1
 203.52 350.786 211.43 319.898 224.99 289.012 c 0
 252.11 226.485 293.544 181.662 349.29 154.542 c 1
 375.656 143.996 401.27 138.722 426.13 138.722 c 0
 447.977 138.722 475.85 142.488 509.75 150.021 c 0
 567.756 165.088 605.424 189.195 622.75 222.342 c 0
 640.076 254.735 651 290.142 655.52 328.562 c 1
EndSplineSet
EndChar
StartChar: D
Encoding: 68 68
OldEncoding: 68
Width: 890
Flags: W
HStem: -1.25 163.85<251 421> 795.4 163.85<251 429>
VStem: 44.3047 196.62<166 783> 638.685 200.01<493 527>
Fore
44.3047 -1.25 m 1
 44.3047 959.25 l 1
 490.655 959.25 l 2
 527.568 959.25 564.105 952.094 600.265 937.78 c 0
 639.438 921.96 674.845 898.23 706.485 866.59 c 1
 735.865 839.47 765.999 795.4 796.885 734.38 c 1
 824.759 674.866 838.695 604.054 838.695 521.94 c 0
 838.695 448.866 830.031 379.56 812.705 314.02 c 0
 799.145 261.286 778.429 212.696 750.555 168.25 c 0
 717.409 117.023 676.352 75.9668 627.385 45.0801 c 0
 578.419 14.1934 528.321 -1.25 477.095 -1.25 c 2
 44.3047 -1.25 l 1
240.925 795.4 m 1
 240.925 162.6 l 1
 397.995 162.6 l 2
 497.435 162.6 567.119 205.916 607.045 292.55 c 1
 628.139 343.023 638.685 410.823 638.685 495.95 c 0
 638.685 587.856 622.488 658.294 590.095 707.26 c 0
 566.741 742.666 542.259 765.644 516.645 776.19 c 0
 485.005 788.996 452.611 795.4 419.465 795.4 c 2
 240.925 795.4 l 1
EndSplineSet
MinimumDistance: x6,-1 
EndChar
StartChar: E
Encoding: 69 69
OldEncoding: 69
Width: 823
Flags: W
HStem: -1.25 163.85<257 755> 411.2 163.85<257 707> 795.4 163.85<257 739>
VStem: 50.7246 196.62<161 411 574 795>
Fore
50.7246 959.25 m 1
 745.675 959.25 l 1
 745.675 795.4 l 1
 247.345 795.4 l 1
 247.345 575.05 l 1
 708.385 575.05 l 1
 708.385 411.2 l 1
 247.345 411.2 l 1
 247.345 162.6 l 1
 768.275 162.6 l 1
 768.275 -1.25 l 1
 50.7246 -1.25 l 1
 50.7246 959.25 l 1
EndSplineSet
MinimumDistance: x9,-1 x8,10 x8,9 x4,6 x4,5 x3,1 x3,2 
EndChar
StartChar: F
Encoding: 70 70
OldEncoding: 70
Width: 754
Flags: W
HStem: -1.25 21G<47.2598 243.88> 411.2 163.85<244 656> 795.4 163.85<244 720>
VStem: 47.2598 196.62<13 411 574 795>
Fore
47.2598 959.25 m 1
 720.74 959.25 l 1
 720.74 795.4 l 1
 243.88 795.4 l 1
 243.88 575.05 l 1
 665.37 575.05 l 1
 665.37 411.2 l 1
 243.88 411.2 l 1
 243.88 -1.25 l 1
 47.2598 -1.25 l 1
 47.2598 959.25 l 1
EndSplineSet
MinimumDistance: x1,-1 x9,7 y7,9 y7,8 x4,6 x4,5 x3,1 x3,2 
EndChar
StartChar: G
Encoding: 71 71
OldEncoding: 71
Width: 965
Flags: W
HStem: -4.77344 21G<760.05 877.57> 351.177 164.979<509 703> 812.217 161.59<440 479>
VStem: -1.57031 189.84<448 498>
Fore
493.37 351.177 m 1
 493.37 516.156 l 1
 877.57 516.156 l 1
 877.57 -4.77344 l 1
 760.05 -4.77344 l 1
 736.32 115.007 l 1
 707.693 80.3535 684.716 56.623 667.39 43.8164 c 1
 649.31 24.2305 617.67 7.28027 572.47 -7.0332 c 1
 525.01 -25.1133 474.914 -33.0234 422.18 -30.7637 c 0
 388.28 -30.7637 352.12 -24.3604 313.7 -11.5537 c 1
 292.606 -8.54004 267.746 0.5 239.12 15.5664 c 1
 217.273 29.127 198.063 43.0635 181.49 57.377 c 2
 141.94 92.4062 l 1
 95.9863 138.36 60.5801 194.483 35.7197 260.776 c 0
 10.8604 325.562 -1.57031 396 -1.57031 472.087 c 0
 -1.57031 575.293 22.5371 669.46 70.75 754.587 c 0
 118.964 843.48 186.01 906.007 271.89 942.167 c 0
 321.61 963.261 382.63 973.807 454.95 973.807 c 0
 515.97 973.807 572.847 967.026 625.58 953.467 c 0
 677.56 939.153 725.396 911.28 769.09 869.847 c 1
 832.37 806.566 868.53 735 877.57 655.146 c 1
 697.9 655.146 l 1
 680.573 710.141 651.946 749.312 612.02 772.667 c 0
 569.834 799.033 520.49 812.217 463.99 812.217 c 0
 406.736 812.217 350.236 794.513 294.49 759.106 c 1
 260.59 728.973 234.6 687.163 216.52 633.677 c 0
 197.687 577.177 188.27 522.561 188.27 469.826 c 0
 188.27 400.521 199.193 344.773 221.04 302.587 c 0
 274.526 198.627 347.6 140.997 440.26 129.696 c 1
 535.934 129.696 608.63 159.83 658.35 220.097 c 1
 691.496 263.037 709.954 306.73 713.72 351.177 c 1
 493.37 351.177 l 1
EndSplineSet
MinimumDistance: x26,-1 
EndChar
StartChar: H
Encoding: 72 72
OldEncoding: 72
Width: 893
Flags: W
HStem: -1.25 21G<35.4102 232.03 611.71 810.59> 433.8 163.85<232 611> 939.25 20G<35.4102 232.03 611.71 810.59>
VStem: 35.4102 196.62<13 431 605 959> 611.71 198.88<13 431 605 959>
Fore
35.4102 -1.25 m 1
 35.4102 959.25 l 1
 232.03 959.25 l 1
 232.03 597.65 l 1
 611.71 597.65 l 1
 611.71 959.25 l 1
 810.59 959.25 l 1
 810.59 -1.25 l 1
 611.71 -1.25 l 1
 611.71 433.8 l 1
 232.03 433.8 l 1
 232.03 -1.25 l 1
 35.4102 -1.25 l 1
EndSplineSet
MinimumDistance: x6,-1 x0,10 y10,0 y10,11 y9,7 y9,8 y4,6 y4,5 x1,3 y3,1 y3,2 
EndChar
StartChar: I
Encoding: 73 73
OldEncoding: 73
Width: 344
Flags: W
HStem: -1.25 21G<62.6904 259.31> 939.25 20G<62.6904 259.31>
VStem: 62.6904 196.62<13 959>
Fore
259.31 959.25 m 1
 259.31 -1.25 l 1
 62.6904 -1.25 l 1
 62.6904 959.25 l 1
 259.31 959.25 l 1
EndSplineSet
MinimumDistance: x0,-1 
EndChar
StartChar: J
Encoding: 74 74
OldEncoding: 74
Width: 692
Flags: W
HStem: 941.021 20G<403.22 599.84>
VStem: -5.83984 196.62<241 339> 403.22 196.62<227 947>
Fore
403.22 961.021 m 1
 599.84 961.021 l 1
 599.84 229.911 l 2
 599.84 165.877 577.616 109.377 533.17 60.4111 c 0
 481.943 2.4043 410.754 -27.7295 319.6 -29.9893 c 0
 238.24 -32.249 172.7 -20.5723 122.98 5.04102 c 0
 92.0938 21.6143 67.6104 42.3311 49.5303 67.1904 c 0
 29.1904 94.3105 16.0068 122.185 9.98047 150.811 c 1
 -0.566406 186.217 -5.83984 217.857 -5.83984 245.73 c 2
 -5.83984 354.211 l 1
 190.78 354.211 l 1
 190.78 257.031 l 2
 190.78 226.897 197.56 199.4 211.12 174.541 c 0
 225.434 147.421 255.566 134.991 301.52 137.251 c 0
 336.174 137.251 362.54 148.927 380.62 172.281 c 0
 395.687 191.867 403.22 215.597 403.22 243.471 c 2
 403.22 961.021 l 1
EndSplineSet
MinimumDistance: x1,-1 
EndChar
StartChar: K
Encoding: 75 75
OldEncoding: 75
Width: 888
Flags: W
HStem: -1.25 21G<37.25 233.87 646.32 884.75> 939.25 20G<37.25 233.87 611.29 845.2>
VStem: 37.25 196.62<13 306 538 959>
DStem: 611.29 959.25 845.2 959.25 233.87 537.76 465.52 542.28
Fore
37.25 -1.25 m 1
 37.25 959.25 l 1
 233.87 959.25 l 1
 233.87 537.76 l 1
 611.29 959.25 l 1
 845.2 959.25 l 1
 465.52 542.28 l 1
 884.75 -1.25 l 1
 646.32 -1.25 l 1
 335.57 415.72 l 1
 233.87 306.11 l 1
 233.87 -1.25 l 1
 37.25 -1.25 l 1
EndSplineSet
MinimumDistance: x5,-1 
EndChar
StartChar: L
Encoding: 76 76
OldEncoding: 76
Width: 754
Flags: W
HStem: -1.25 163.85<252 711> 939.25 20G<54.1699 253.05>
VStem: 54.1699 198.88<161 959>
Fore
54.1699 959.25 m 1
 253.05 959.25 l 1
 253.05 162.6 l 1
 711.83 162.6 l 1
 711.83 -1.25 l 1
 54.1699 -1.25 l 1
 54.1699 959.25 l 1
EndSplineSet
MinimumDistance: x3,-1 x0,2 y2,0 y2,1 x2,4 x2,3 
EndChar
StartChar: M
Encoding: 77 77
OldEncoding: 77
Width: 1032
Flags: W
HStem: -1.25 21G<22.1152 220.995 391.625 589.375 760.005 958.885> 939.25 20G<22.1152 311.395 669.605 958.885>
VStem: 22.1152 198.88<13 767> 760.005 198.88<13 767>
Fore
589.375 -1.25 m 1
 391.625 -1.25 l 1
 220.995 776.19 l 1
 220.995 -1.25 l 1
 22.1152 -1.25 l 1
 22.1152 959.25 l 1
 311.395 959.25 l 1
 492.195 221.36 l 1
 669.605 959.25 l 1
 958.885 959.25 l 1
 958.885 -1.25 l 1
 760.005 -1.25 l 1
 760.005 776.19 l 1
 589.375 -1.25 l 1
EndSplineSet
MinimumDistance: x9,-1 
EndChar
StartChar: N
Encoding: 78 78
OldEncoding: 78
Width: 892
Flags: W
HStem: -1.25 21G<35.1504 231.77 620.49 814.85> 939.25 20G<35.1504 229.51 618.23 814.85>
VStem: 618.23 196.62<300 959>
DStem: 231.77 667.71 229.51 959.25 620.49 -1.25 618.23 299.33
Fore
35.1504 959.25 m 1
 229.51 959.25 l 1
 618.23 299.33 l 1
 618.23 959.25 l 1
 814.85 959.25 l 1
 814.85 -1.25 l 1
 620.49 -1.25 l 1
 231.77 667.71 l 1
 231.77 -1.25 l 1
 35.1504 -1.25 l 1
 35.1504 959.25 l 1
EndSplineSet
MinimumDistance: x4,-1 
EndChar
StartChar: O
Encoding: 79 79
OldEncoding: 79
Width: 963
Flags: W
HStem: -30.915 171.76<440 474> 803.025 172.89<440 474>
VStem: -6.10547 189.84<448 498> 727.265 189.84<448 498>
Fore
917.105 471.935 m 0
 917.105 403.381 903.921 333.698 877.555 262.885 c 0
 851.941 189.812 818.041 132.182 775.855 89.9951 c 1
 700.521 9.38867 594.302 -30.915 457.195 -30.915 c 0
 320.841 -30.915 213.491 9.38867 135.145 89.9951 c 0
 92.959 132.182 59.0586 189.812 33.4453 262.885 c 0
 7.07812 333.698 -6.10547 403.381 -6.10547 471.935 c 0
 -6.10547 544.255 7.07812 614.315 33.4453 682.115 c 0
 59.0586 753.682 92.959 811.688 135.145 856.135 c 1
 214.245 935.988 321.595 975.915 457.195 975.915 c 0
 490.341 975.915 528.762 972.148 572.455 964.615 c 1
 613.889 954.821 650.802 940.885 683.195 922.805 c 1
 714.835 908.491 745.722 886.269 775.855 856.135 c 0
 818.041 811.688 851.941 753.682 877.555 682.115 c 0
 903.921 614.315 917.105 544.255 917.105 471.935 c 0
457.195 140.845 m 0
 526.501 140.845 584.885 162.315 632.345 205.255 c 0
 666.245 236.142 690.352 274.185 704.665 319.385 c 0
 719.731 365.339 727.265 416.188 727.265 471.935 c 0
 727.265 527.682 719.731 578.531 704.665 624.485 c 0
 689.599 670.438 665.491 708.105 632.345 737.485 c 0
 584.131 781.179 525.749 803.025 457.195 803.025 c 0
 386.381 803.025 326.869 781.179 278.655 737.485 c 0
 248.521 711.119 225.545 674.205 209.725 626.745 c 0
 192.398 577.025 183.735 525.421 183.735 471.935 c 0
 183.735 419.201 192.398 369.105 209.725 321.645 c 0
 226.299 271.171 249.275 232.375 278.655 205.255 c 0
 326.115 162.315 385.629 140.845 457.195 140.845 c 0
EndSplineSet
MinimumDistance: x0,-1 
EndChar
StartChar: P
Encoding: 80 80
OldEncoding: 80
Width: 823
Flags: W
HStem: -1.25 21G<45.8154 244.695> 341.14 164.98<245 480> 795.4 163.85<245 478>
VStem: 45.8154 198.88<13 341 509 783> 587.085 192.1<653 687>
Fore
45.8154 -1.25 m 1
 45.8154 959.25 l 1
 474.085 959.25 l 2
 527.571 959.25 581.435 949.834 635.675 931 c 0
 686.901 912.92 726.451 870.733 754.325 804.44 c 0
 770.898 763.006 779.185 715.17 779.185 660.93 c 0
 779.185 597.65 770.898 548.307 754.325 512.9 c 0
 700.839 398.394 608.932 341.14 478.605 341.14 c 2
 244.695 341.14 l 1
 244.695 -1.25 l 1
 45.8154 -1.25 l 1
244.695 795.4 m 1
 244.695 506.12 l 1
 465.045 506.12 l 2
 510.999 506.12 547.159 532.863 573.525 586.35 c 1
 580.305 621.38 l 1
 584.825 637.2 587.085 653.396 587.085 669.97 c 0
 587.085 688.05 584.825 705 580.305 720.82 c 0
 564.485 770.54 523.052 795.4 456.005 795.4 c 2
 244.695 795.4 l 1
EndSplineSet
MinimumDistance: x5,-1 y8,0 y8,9 
EndChar
StartChar: Q
Encoding: 81 81
OldEncoding: 81
Width: 962
Flags: W
HStem: -28.5752 171.76<444 478> 805.365 172.89<444 478>
VStem: -2.10547 187.58<457 491> 731.265 189.84<441 491>
Fore
817.145 136.405 m 1
 921.105 36.9648 l 1
 819.405 -69.2549 l 1
 708.665 36.9648 l 1
 634.839 -6.72852 551.595 -28.5752 458.935 -28.5752 c 0
 324.089 -28.5752 217.491 11.7285 139.145 92.335 c 0
 99.2188 132.262 65.3184 189.139 37.4453 262.965 c 0
 11.0781 331.519 -2.10547 401.955 -2.10547 474.275 c 0
 -2.10547 548.102 11.0781 618.915 37.4453 686.715 c 0
 65.3184 759.035 99.2188 816.289 139.145 858.475 c 1
 218.245 938.329 324.841 978.255 458.935 978.255 c 0
 525.229 978.255 585.119 968.461 638.605 948.875 c 0
 695.858 927.028 742.188 896.895 777.595 858.475 c 0
 822.795 811.015 858.579 753.009 884.945 684.455 c 0
 909.052 619.669 921.105 549.608 921.105 474.275 c 0
 921.105 412.501 912.065 351.481 893.985 291.215 c 1
 872.892 228.688 847.278 177.085 817.145 136.405 c 1
569.675 168.045 m 1
 470.235 260.705 l 1
 571.935 370.315 l 1
 680.415 265.225 l 1
 714.315 325.491 731.265 395.175 731.265 474.275 c 0
 731.265 526.255 722.979 577.858 706.405 629.085 c 0
 691.339 673.531 667.231 710.445 634.085 739.825 c 1
 588.131 783.519 529.749 805.365 458.935 805.365 c 0
 389.629 805.365 330.869 783.519 282.655 739.825 c 0
 252.521 712.705 229.545 675.039 213.725 626.825 c 0
 194.892 572.585 185.475 521.735 185.475 474.275 c 0
 185.475 428.321 194.892 378.225 213.725 323.985 c 0
 230.299 273.512 253.275 234.715 282.655 207.595 c 0
 330.115 164.655 388.875 143.185 458.935 143.185 c 0
 498.108 143.185 535.021 151.472 569.675 168.045 c 1
EndSplineSet
MinimumDistance: x1,-1 
EndChar
StartChar: R
Encoding: 82 82
OldEncoding: 82
Width: 890
Flags: W
HStem: -1.25 21G<46.7598 245.64 620.8 833.24> 378.43 163.85<246 495> 795.4 163.85<246 527>
VStem: 46.7598 198.88<13 379 557 783> 595.94 201.14<93 114> 632.1 189.84<669 692>
Fore
46.7598 -1.25 m 1
 46.7598 959.25 l 1
 581.25 959.25 l 2
 608.37 959.25 639.256 953.224 673.91 941.17 c 1
 702.536 929.116 729.656 911.79 755.27 889.19 c 1
 779.376 865.084 794.82 837.586 801.6 806.7 c 1
 810.64 769.41 l 1
 817.42 729.86 l 1
 821.94 692.57 l 1
 821.94 663.943 818.174 637.2 810.64 612.34 c 0
 799.34 573.166 783.896 543.786 764.31 524.2 c 1
 746.983 503.86 719.11 483.144 680.69 462.05 c 1
 711.2 442.84 l 1
 746.23 420.24 l 1
 756.776 409.693 765.063 397.264 771.09 382.95 c 1
 778.624 370.144 784.273 351.687 788.04 327.58 c 1
 792.56 223.62 l 1
 797.08 114.01 l 1
 797.08 91.4102 800.094 74.46 806.12 63.1602 c 0
 812.146 53.3662 821.187 43.5732 833.24 33.7803 c 1
 833.24 -1.25 l 1
 620.8 -1.25 l 1
 604.227 33.4033 595.94 63.5371 595.94 89.1504 c 2
 595.94 281.25 l 1
 592.174 305.356 586.523 323.813 578.99 336.62 c 1
 565.43 352.44 551.494 363.363 537.18 369.39 c 0
 522.866 375.416 502.903 378.43 477.29 378.43 c 2
 245.64 378.43 l 1
 245.64 -1.25 l 1
 46.7598 -1.25 l 1
245.64 795.4 m 1
 245.64 542.28 l 1
 514.58 542.28 l 2
 543.206 542.28 570.326 554.71 595.94 579.57 c 0
 620.046 604.43 632.1 639.836 632.1 685.79 c 0
 632.1 758.863 592.174 795.4 512.32 795.4 c 2
 245.64 795.4 l 1
EndSplineSet
MinimumDistance: x8,-1 x0,27 y27,0 y27,28 
EndChar
StartChar: S
Encoding: 83 83
OldEncoding: 83
Width: 826
Flags: W
HStem: -32.915 162.72<361 404.95> 819.105 154.81<342 393>
VStem: 592.53 192.1<257 289.135>
Fore
752.99 666.555 m 1
 565.41 666.555 l 1
 565.41 693.675 558.254 718.158 543.94 740.005 c 0
 531.134 762.605 509.664 782.191 479.53 798.765 c 1
 448.644 812.325 411.73 819.105 368.79 819.105 c 0
 259.557 819.105 201.55 782.191 194.77 708.365 c 1
 194.77 679.738 198.536 658.645 206.07 645.085 c 1
 217.37 632.278 233.566 621.731 254.66 613.445 c 1
 262.946 605.158 280.65 598.001 307.77 591.975 c 0
 308.523 591.975 345.06 584.441 417.38 569.375 c 0
 448.267 564.102 474.256 558.451 495.35 552.425 c 1
 603.076 534.345 678.786 503.081 722.48 458.635 c 0
 763.914 414.941 784.63 358.441 784.63 289.135 c 0
 784.63 241.675 774.084 193.839 752.99 145.625 c 0
 730.39 96.6582 700.256 60.498 662.59 37.1445 c 1
 596.296 -7.30176 496.104 -30.6553 362.01 -32.915 c 0
 332.63 -32.915 293.08 -26.5117 243.36 -13.7051 c 0
 194.394 -1.65137 155.22 15.2988 125.84 37.1445 c 0
 82.9004 67.2783 51.2598 104.191 30.9199 147.885 c 0
 9.07324 193.085 -4.11035 238.661 -8.62988 284.615 c 1
 183.47 284.615 l 1
 183.47 246.948 197.406 213.802 225.28 185.175 c 0
 261.44 148.262 321.33 129.805 404.95 129.805 c 0
 434.33 129.805 463.71 134.325 493.09 143.365 c 0
 519.456 149.392 541.304 159.562 558.63 173.875 c 0
 581.23 194.215 592.53 222.465 592.53 258.625 c 0
 592.53 290.265 582.736 315.879 563.15 335.465 c 0
 548.836 351.285 528.496 363.715 502.13 372.755 c 0
 475.764 381.795 438.85 390.835 391.39 399.875 c 2
 276.13 421.345 l 2
 236.204 428.879 206.07 436.411 185.73 443.945 c 0
 153.336 454.491 123.204 470.688 95.3301 492.535 c 0
 68.9639 514.381 49 543.009 35.4404 578.415 c 1
 19.6201 613.068 11.71 657.139 11.71 710.625 c 1
 20.75 790.479 54.6504 855.265 113.41 904.985 c 1
 171.416 950.938 258.05 973.915 373.31 973.915 c 0
 437.344 973.915 494.974 967.135 546.2 953.575 c 0
 607.22 938.509 657.693 905.361 697.62 854.135 c 0
 734.534 805.169 752.99 742.642 752.99 666.555 c 1
EndSplineSet
MinimumDistance: x12,-1 
EndChar
StartChar: T
Encoding: 84 84
OldEncoding: 84
Width: 758
Flags: W
HStem: -1.25 21G<263.34 461.09> 795.4 163.85<-14 263 461 740>
VStem: 263.34 197.75<13 795>
Fore
-28.2002 959.25 m 1
 740.2 959.25 l 1
 740.2 795.4 l 1
 461.09 795.4 l 1
 461.09 -1.25 l 1
 263.34 -1.25 l 1
 263.34 795.4 l 1
 -28.2002 795.4 l 1
 -28.2002 959.25 l 1
EndSplineSet
MinimumDistance: x1,-1 y3,5 y3,4 x6,0 x6,7 x3,1 x3,2 
EndChar
StartChar: U
Encoding: 85 85
OldEncoding: 85
Width: 892
Flags: W
HStem: -30.0049 171.76<411 445> 941.005 20G<44.1904 243.07 609.19 805.81>
VStem: 44.1904 198.88<288 946> 609.19 196.62<288 946>
Fore
609.19 961.005 m 1
 805.81 961.005 l 1
 805.81 298.825 l 2
 805.81 160.211 745.544 63.7852 625.01 9.54492 c 0
 564.744 -16.8213 499.204 -30.0049 428.39 -30.0049 c 0
 366.616 -30.0049 304.844 -19.082 243.07 2.76465 c 1
 110.483 75.085 44.1904 173.771 44.1904 298.825 c 2
 44.1904 961.005 l 1
 243.07 961.005 l 1
 243.07 296.565 l 2
 243.07 255.131 256.254 218.972 282.62 188.085 c 0
 308.986 157.198 356.07 141.755 423.87 141.755 c 0
 492.424 141.755 541.014 157.198 569.64 188.085 c 1
 596.006 220.479 609.19 256.639 609.19 296.565 c 2
 609.19 961.005 l 1
EndSplineSet
MinimumDistance: x1,-1 
EndChar
StartChar: V
Encoding: 86 86
OldEncoding: 86
Width: 825
Flags: W
HStem: -1.25 21G<305.055 474.555> 939.25 20G<-18.125 178.495 602.245 801.125>
Fore
602.245 959.25 m 1
 801.125 959.25 l 1
 474.555 -1.25 l 1
 305.055 -1.25 l 1
 -18.125 959.25 l 1
 178.495 959.25 l 1
 390.935 234.92 l 1
 602.245 959.25 l 1
EndSplineSet
EndChar
StartChar: W
Encoding: 87 87
OldEncoding: 87
Width: 1170
Flags: W
HStem: -1.25 21G<213.325 391.865 708.265 886.805> 939.25 20G<-55.6152 155.695 447.235 655.155 946.695 1154.62>
Fore
-55.6152 959.25 m 1
 155.695 959.25 l 1
 303.725 239.44 l 1
 447.235 959.25 l 1
 655.155 959.25 l 1
 798.665 230.4 l 1
 946.695 959.25 l 1
 1154.62 959.25 l 1
 886.805 -1.25 l 1
 708.265 -1.25 l 1
 548.935 729.86 l 1
 391.865 -1.25 l 1
 213.325 -1.25 l 1
 -55.6152 959.25 l 1
EndSplineSet
EndChar
StartChar: X
Encoding: 88 88
OldEncoding: 88
Width: 825
Flags: W
HStem: -1.25 21G<-20.6445 209.875 575.995 807.645> 939.25 20G<-7.08496 224.565 569.215 800.865>
Fore
-7.08496 959.25 m 1
 224.565 959.25 l 1
 392.935 648.5 l 1
 569.215 959.25 l 1
 800.865 959.25 l 1
 504.805 489.17 l 1
 807.645 -1.25 l 1
 575.995 -1.25 l 1
 392.935 325.32 l 1
 209.875 -1.25 l 1
 -20.6445 -1.25 l 1
 282.195 482.39 l 1
 -7.08496 959.25 l 1
EndSplineSet
EndChar
StartChar: Y
Encoding: 89 89
OldEncoding: 89
Width: 825
Flags: W
HStem: -1.25 21G<300.145 496.765> 939.25 20G<-16.2549 202.965 582.645 805.255>
VStem: 300.145 196.62<13 354>
Fore
582.645 959.25 m 1
 805.255 959.25 l 1
 496.765 354.7 l 1
 496.765 -1.25 l 1
 300.145 -1.25 l 1
 300.145 354.7 l 1
 -16.2549 959.25 l 1
 202.965 959.25 l 1
 399.585 544.54 l 1
 582.645 959.25 l 1
EndSplineSet
MinimumDistance: x2,-1 
EndChar
StartChar: Z
Encoding: 90 90
OldEncoding: 90
Width: 758
Flags: W
HStem: -1.25 163.85<232 714> 792.01 167.24<8 473.6>
DStem: 483.885 792.01 715.535 795.4 -6.53516 162.6 225.115 162.6
Fore
-6.53516 959.25 m 1
 715.535 959.25 l 1
 715.535 795.4 l 1
 225.115 162.6 l 1
 715.535 162.6 l 1
 715.535 -1.25 l 1
 -6.53516 -1.25 l 1
 -6.53516 162.6 l 1
 483.885 792.01 l 1
 -6.53516 795.4 l 1
 -6.53516 959.25 l 1
EndSplineSet
MinimumDistance: x1,-1 
EndChar
StartChar: bracketleft
Encoding: 91 91
OldEncoding: 91
Width: 408
Flags: W
HStem: 954.59 20G<59.7998 376.2>
VStem: 59.7998 170.63<-117 842>
Fore
376.2 842.38 m 1
 230.43 842.38 l 1
 230.43 -115.86 l 1
 376.2 -115.86 l 1
 376.2 -252.59 l 1
 59.7998 -252.59 l 1
 59.7998 974.59 l 1
 376.2 974.59 l 1
 376.2 842.38 l 1
EndSplineSet
MinimumDistance: x0,-1 y4,2 x2,4 x2,3 y7,1 x1,7 x1,0 
EndChar
StartChar: backslash
Encoding: 92 92
OldEncoding: 92
Width: 344
Flags: W
HStem: -26.25 21G<261.57 358.75>
DStem: -36.75 934.25 62.6904 934.25 261.57 -26.25 358.75 -26.25
Fore
-36.75 934.25 m 1
 62.6904 934.25 l 1
 358.75 -26.25 l 1
 261.57 -26.25 l 1
 -36.75 934.25 l 1
EndSplineSet
EndChar
StartChar: bracketright
Encoding: 93 93
OldEncoding: 93
Width: 416
Flags: W
HStem: 954.59 20G<1.60547 321.395>
VStem: 148.505 172.89<-116 842>
Fore
1.60547 842.38 m 1
 1.60547 974.59 l 1
 321.395 974.59 l 1
 321.395 -252.59 l 1
 1.60547 -252.59 l 1
 1.60547 -115.86 l 1
 148.505 -115.86 l 1
 148.505 842.38 l 1
 1.60547 842.38 l 1
EndSplineSet
MinimumDistance: x2,-1 y1,7 x7,1 x7,0 y4,6 x6,4 x6,5 
EndChar
StartChar: asciicircum
Encoding: 94 94
OldEncoding: 94
Width: 723
Flags: W
DStem: 256.38 897.24 340 731.13 37.1602 336.76 185.19 336.76 340 731.13 419.1 897.24 494.81 336.76 642.84 336.76
Fore
37.1602 336.76 m 1
 256.38 897.24 l 1
 419.1 897.24 l 1
 642.84 336.76 l 1
 494.81 336.76 l 1
 340 731.13 l 1
 185.19 336.76 l 1
 37.1602 336.76 l 1
EndSplineSet
MinimumDistance: x3,-1 
EndChar
StartChar: underscore
Encoding: 95 95
OldEncoding: 95
Width: 689
Flags: W
HStem: -184.265 91.5296<-58 712>
Fore
719.565 -92.7354 m 1
 719.565 -184.265 l 1
 -72.5654 -184.265 l 1
 -72.5654 -92.7354 l 1
 719.565 -92.7354 l 1
EndSplineSet
EndChar
StartChar: grave
Encoding: 96 96
OldEncoding: 96
Width: 291
Flags: HW
Fore
32.5947 786.825 m 4
 30.334 850.858 51.8047 902.461 97.0039 941.635 c 5
 141.45 983.821 184.768 1007.17 226.954 1011.7 c 5
 242.774 978.925 l 5
 208.874 960.845 185.898 946.155 173.845 934.855 c 5
 155.011 920.541 143.334 898.318 138.814 868.185 c 5
 163.674 868.185 187.78 861.028 211.135 846.715 c 4
 232.98 833.908 245.41 807.919 248.424 768.745 c 5
 248.424 743.885 239.761 719.778 222.435 696.425 c 5
 206.614 678.345 184.391 669.305 155.765 669.305 c 4
 114.331 669.305 84.1973 679.852 65.3643 700.945 c 5
 43.5176 722.791 32.5947 751.419 32.5947 786.825 c 4
EndSplineSet
EndChar
StartChar: a
Encoding: 97 97
OldEncoding: 97
Width: 689
Flags: W
HStem: 606.21 132.21<309.824 339.862>
VStem: 432.935 172.89<283 336 513.55 541.8>
Fore
647.635 14.0898 m 1
 453.275 14.0898 l 1
 439.715 32.1699 432.935 55.9004 432.935 85.2803 c 1
 402.802 55.9004 371.161 32.9238 338.015 16.3496 c 0
 295.829 -5.49707 242.719 -16.4199 178.685 -16.4199 c 1
 52.8779 -1.35352 -8.89453 72.0967 -6.63477 203.93 c 0
 -6.63477 258.924 10.3154 308.267 44.2148 351.96 c 0
 72.8408 390.38 125.198 415.994 201.285 428.8 c 1
 259.291 431.06 321.065 441.606 386.605 460.44 c 1
 417.491 475.506 432.935 502.626 432.935 541.8 c 0
 432.935 563.646 422.765 579.844 402.425 590.39 c 0
 383.591 600.937 352.705 606.21 309.765 606.21 c 0
 263.812 603.95 232.171 592.65 214.845 572.31 c 1
 200.531 552.724 192.245 525.604 189.985 490.95 c 1
 15.9648 490.95 l 1
 18.2246 655.93 116.159 738.42 309.765 738.42 c 0
 379.825 738.42 436.325 729.756 479.265 712.43 c 0
 563.639 681.544 605.825 615.25 605.825 513.55 c 2
 605.825 122.57 l 2
 605.825 93.1904 619.762 65.6934 647.635 40.0801 c 1
 647.635 14.0898 l 1
432.935 310.15 m 2
 432.935 349.7 l 1
 410.335 339.153 377.941 329.736 335.755 321.45 c 1
 261.175 312.41 l 1
 236.315 307.89 216.352 298.097 201.285 283.03 c 0
 184.711 264.95 176.425 244.61 176.425 222.01 c 1
 180.945 197.15 l 1
 186.219 185.097 192.245 174.174 199.025 164.38 c 0
 205.805 156.094 218.235 149.313 236.315 144.04 c 0
 252.135 139.52 274.358 137.26 302.985 137.26 c 1
 354.211 144.04 388.111 163.25 404.685 194.89 c 1
 423.519 223.517 432.935 261.937 432.935 310.15 c 2
EndSplineSet
MinimumDistance: x17,-1 
EndChar
StartChar: b
Encoding: 98 98
OldEncoding: 98
Width: 756
Flags: W
HStem: 0.504883 21G<31 212.93> 565.505 159.33<368.87 417.46> 941.005 20G<31 212.93>
VStem: 31 181.93<16 66 320 370 617 946> 523.68 185.32<336 370>
Fore
31 0.504883 m 1
 31 961.005 l 1
 212.93 961.005 l 1
 212.93 616.355 l 1
 248.336 688.675 316.514 724.835 417.46 724.835 c 0
 537.24 722.575 618.977 669.465 662.67 565.505 c 0
 693.557 490.171 709 420.488 709 356.455 c 0
 709 292.421 691.296 218.595 655.89 134.975 c 1
 634.796 91.2812 612.95 59.6416 590.35 40.0547 c 1
 570.764 17.4551 543.267 -0.248047 507.86 -13.0547 c 0
 477.727 -24.3555 440.437 -30.0049 395.99 -30.0049 c 0
 323.67 -27.7451 262.65 6.15527 212.93 71.6953 c 1
 212.93 0.504883 l 1
 31 0.504883 l 1
368.87 565.505 m 0
 315.384 565.505 274.326 538.385 245.7 484.145 c 0
 223.854 441.205 212.93 394.875 212.93 345.155 c 0
 212.93 295.435 223.854 249.105 245.7 206.165 c 0
 273.573 154.185 314.63 128.195 368.87 128.195 c 0
 426.124 128.195 466.804 154.185 490.91 206.165 c 0
 512.756 251.365 523.68 297.695 523.68 345.155 c 0
 523.68 392.615 512.756 438.945 490.91 484.145 c 0
 477.35 514.278 459.646 534.995 437.8 546.295 c 0
 414.446 559.102 391.47 565.505 368.87 565.505 c 0
EndSplineSet
MinimumDistance: x6,-1 
EndChar
StartChar: c
Encoding: 99 99
OldEncoding: 99
Width: 689
Flags: W
HStem: 579.089 159.33<311.077 333.049 333.166 354.648>
Fore
644.985 460.438 m 1
 469.835 460.438 l 1
 457.028 510.912 440.831 542.553 421.245 555.358 c 0
 397.892 571.179 368.512 579.089 333.105 579.089 c 0
 272.839 581.349 230.275 546.695 205.415 475.129 c 1
 200.895 451.398 l 1
 196.375 409.589 l 1
 191.855 354.219 l 1
 191.855 318.812 194.869 289.433 200.895 266.079 c 0
 215.209 214.099 232.159 180.199 251.745 164.379 c 0
 273.591 148.559 301.465 139.519 335.365 137.259 c 0
 368.512 137.259 396.385 144.792 418.985 159.858 c 0
 440.831 176.433 457.781 211.085 469.835 263.818 c 1
 644.985 263.818 l 1
 644.985 221.633 631.802 180.952 605.435 141.778 c 0
 579.821 101.099 555.339 70.2119 531.985 49.1191 c 0
 504.111 25.7656 476.238 9.56836 448.365 0.52832 c 0
 411.451 -10.7715 370.019 -16.4209 324.065 -16.4209 c 0
 257.019 -18.6816 199.765 -3.99121 152.305 27.6484 c 0
 107.858 57.0283 73.959 94.3184 50.6055 139.519 c 0
 24.9912 187.732 11.0547 228.412 8.79492 261.559 c 1
 4.27539 287.925 2.01465 320.318 2.01465 358.738 c 0
 2.01465 432.565 12.9385 492.079 34.7852 537.278 c 1
 58.8916 593.778 86.3887 637.849 117.275 669.488 c 0
 148.915 699.622 179.802 718.079 209.935 724.858 c 0
 250.615 733.898 291.671 738.419 333.105 738.419 c 0
 410.698 740.679 473.225 727.495 520.685 698.869 c 0
 558.352 675.515 588.485 639.355 611.085 590.389 c 0
 633.685 537.655 644.985 494.339 644.985 460.438 c 1
EndSplineSet
EndChar
StartChar: d
Encoding: 100 100
OldEncoding: 100
Width: 761
Flags: W
HStem: -29.9775 158.201<305.633 336.143> -3.9873 21G<488.693 674.013> 567.793 157.07<285.293 336.143> 941.033 20G<488.693 674.013>
VStem: -3.9873 185.32<321 333 333.978 374.707> 488.693 185.32<-3 67 321 371 617 947>
Fore
674.013 961.033 m 1
 674.013 -3.9873 l 1
 488.693 -3.9873 l 1
 488.693 71.7227 l 1
 466.847 39.3291 438.973 14.8467 405.073 -1.72754 c 0
 364.393 -20.5605 331.247 -29.9775 305.633 -29.9775 c 0
 268.72 -32.2373 232.56 -26.5869 197.153 -13.0273 c 0
 164.007 -1.72754 135.379 15.9766 111.273 40.083 c 0
 87.9189 63.4365 67.2031 95.0762 49.123 135.003 c 0
 13.7168 211.843 -3.9873 278.137 -3.9873 333.883 c 0
 -6.24707 414.489 8.44336 490.953 40.083 563.272 c 0
 86.7891 668.739 168.526 722.603 285.293 724.863 c 0
 390.007 724.863 457.807 688.703 488.693 616.383 c 1
 488.693 961.033 l 1
 674.013 961.033 l 1
336.143 567.793 m 0
 283.409 567.793 241.6 540.673 210.713 486.433 c 1
 191.127 441.986 181.333 395.656 181.333 347.443 c 0
 181.333 299.982 191.127 252.899 210.713 206.192 c 1
 240.847 154.213 282.656 128.223 336.143 128.223 c 0
 388.877 128.223 429.557 154.213 458.183 206.192 c 1
 478.523 249.887 488.693 296.969 488.693 347.443 c 0
 488.693 402.437 478.523 448.767 458.183 486.433 c 0
 430.31 540.673 389.629 567.793 336.143 567.793 c 0
EndSplineSet
MinimumDistance: x0,-1 
EndChar
StartChar: e
Encoding: 101 101
OldEncoding: 101
Width: 689
Flags: W
HStem: -16.4199 150.29<313 351.835> 312.41 125.43<174 458> 585.87 152.55<299.041 316.755 316.88 342>
VStem: -10.8945 184.189<293 312>
Fore
647.895 312.41 m 1
 173.295 312.41 l 1
 173.295 261.937 181.205 224.27 197.025 199.41 c 0
 213.599 175.304 234.315 158.354 259.175 148.56 c 0
 287.049 138.767 317.935 133.87 351.835 133.87 c 1
 380.461 142.156 404.568 152.326 424.155 164.38 c 1
 442.235 180.2 453.535 197.15 458.055 215.23 c 1
 641.115 215.23 l 1
 629.062 169.276 606.085 129.35 572.185 95.4502 c 0
 536.025 59.29 494.969 32.1699 449.015 14.0898 c 0
 402.309 -6.25 357.485 -16.4199 314.545 -16.4199 c 0
 256.539 -16.4199 195.142 1.2832 130.355 36.6904 c 1
 95.7012 61.5498 69.335 87.1631 51.2549 113.53 c 1
 27.9014 143.664 11.7051 175.304 2.66504 208.45 c 1
 -4.11523 242.35 -8.63477 270.977 -10.8945 294.33 c 1
 -10.8945 359.116 -8.63477 409.967 -4.11523 446.88 c 0
 9.44531 530.5 35.4346 594.533 73.8555 638.98 c 0
 110.015 681.92 149.565 709.794 192.505 722.6 c 0
 229.419 733.146 270.852 738.42 316.805 738.42 c 0
 385.358 738.42 441.105 725.236 484.045 698.87 c 1
 526.985 674.764 561.639 641.616 588.005 599.43 c 0
 610.605 563.27 624.541 531.63 629.815 504.51 c 0
 638.102 472.87 643.375 441.983 645.635 411.85 c 1
 647.895 312.41 l 1
173.295 437.84 m 1
 458.055 437.84 l 1
 458.055 473.246 449.015 506.394 430.935 537.28 c 0
 409.841 569.674 375.941 585.87 329.235 585.87 c 0
 278.762 588.13 239.965 573.44 212.845 541.8 c 0
 186.479 509.406 173.295 474.754 173.295 437.84 c 1
EndSplineSet
MinimumDistance: x1,-1 
EndChar
StartChar: f
Encoding: 102 102
OldEncoding: 102
Width: 412
Flags: W
HStem: -1.25 21G<92.7549 278.075> 575.05 122.04<8 92 279 385> 820.26 138.99<312 378>
VStem: 92.7549 185.32<13 575 697 782>
Fore
-6.68457 575.05 m 1
 -6.68457 697.09 l 1
 92.7549 697.09 l 1
 92.7549 780.71 l 2
 92.7549 836.456 107.445 880.526 136.825 912.92 c 1
 167.711 943.807 211.028 959.25 266.775 959.25 c 2
 382.035 959.25 l 1
 382.035 820.26 l 1
 317.625 820.26 l 2
 291.259 820.26 278.075 804.063 278.075 771.67 c 2
 278.075 697.09 l 1
 387.685 697.09 l 1
 387.685 575.05 l 1
 278.075 575.05 l 1
 278.075 -1.25 l 1
 92.7549 -1.25 l 1
 92.7549 575.05 l 1
 -6.68457 575.05 l 1
EndSplineSet
MinimumDistance: x11,-1 y13,15 y13,14 x10,12 x10,11 x9,6 x9,7 x2,0 x2,1 
EndChar
StartChar: g
Encoding: 103 103
OldEncoding: 103
Width: 761
Flags: W
HStem: -1.52441 148.03<302 333.87> 587.206 166.109<304 333.87> 722.016 20G<495.46 669.48>
VStem: 0.519531 166.11<346 380> 495.46 174.02<-6 92 346 380 636 732>
Fore
495.46 742.016 m 1
 669.48 742.016 l 1
 669.48 10.9053 l 2
 669.48 -32.7881 658.557 -74.5977 636.71 -114.524 c 0
 616.37 -152.19 589.25 -182.324 555.35 -204.925 c 0
 497.344 -244.098 401.67 -262.555 268.33 -260.294 c 0
 200.53 -258.034 140.64 -235.058 88.6602 -191.364 c 0
 38.9404 -150.685 14.0801 -105.108 14.0801 -54.6348 c 1
 206.18 -54.6348 l 1
 206.18 -95.3145 242.34 -121.305 314.66 -132.604 c 1
 366.64 -132.604 409.956 -118.668 444.61 -90.7939 c 0
 478.51 -64.4277 495.46 -33.1641 495.46 2.99609 c 2
 495.46 103.565 l 1
 481.146 86.9922 462.69 68.1592 440.09 47.0654 c 0
 425.023 31.999 405.813 20.6992 382.46 13.166 c 1
 362.12 3.37207 335.754 -1.52441 303.36 -1.52441 c 0
 252.887 -1.52441 215.22 4.12598 190.36 15.4258 c 0
 162.486 26.7256 132.354 47.4424 99.96 77.5752 c 0
 78.1133 99.4219 60.4102 125.789 46.8496 156.676 c 1
 30.2764 188.315 18.5996 220.709 11.8203 253.855 c 0
 4.28711 291.521 0.519531 327.682 0.519531 362.336 c 0
 0.519531 423.355 9.55957 480.232 27.6396 532.966 c 0
 47.2266 590.22 73.5938 635.042 106.74 667.436 c 1
 159.474 724.689 225.767 753.315 305.62 753.315 c 0
 333.494 753.315 356.847 750.302 375.68 744.275 c 0
 384.72 740.51 400.164 731.846 422.01 718.285 c 1
 453.65 686.646 l 2
 460.43 679.865 474.366 662.916 495.46 635.796 c 1
 495.46 742.016 l 1
333.87 587.206 m 0
 278.124 587.206 234.054 560.839 201.66 508.105 c 1
 178.307 457.632 166.63 410.55 166.63 366.855 c 0
 166.63 320.149 178.307 273.819 201.66 227.865 c 0
 230.286 173.626 274.356 146.506 333.87 146.506 c 0
 393.384 146.506 437.454 173.626 466.08 227.865 c 0
 487.174 269.3 497.72 315.629 497.72 366.855 c 0
 497.72 415.069 487.174 462.152 466.08 508.105 c 1
 433.687 560.839 389.616 587.206 333.87 587.206 c 0
EndSplineSet
MinimumDistance: x1,-1 
EndChar
StartChar: h
Encoding: 104 104
OldEncoding: 104
Width: 758
Flags: W
HStem: -1.25 21G<42.0547 227.375 481.625 666.945> 939.25 20G<42.0547 212.685>
VStem: 42.0547 170.63<620 959> 42.0547 185.32<13 431> 481.625 185.32<13 463>
Fore
212.685 959.25 m 1
 212.685 619.12 l 1
 259.392 688.426 332.841 723.08 433.035 723.08 c 0
 496.315 723.08 550.932 706.884 596.885 674.49 c 0
 643.591 641.344 666.945 589.74 666.945 519.68 c 2
 666.945 -1.25 l 1
 481.625 -1.25 l 1
 481.625 449.62 l 2
 481.625 474.48 476.352 499.34 465.805 524.2 c 1
 452.999 543.033 428.139 555.464 391.225 561.49 c 1
 344.519 561.49 306.099 549.813 275.965 526.46 c 0
 243.571 500.847 227.375 463.934 227.375 415.72 c 2
 227.375 -1.25 l 1
 42.0547 -1.25 l 1
 42.0547 959.25 l 1
 212.685 959.25 l 1
EndSplineSet
MinimumDistance: x4,-1 
EndChar
StartChar: i
Encoding: 105 105
OldEncoding: 105
Width: 344
Flags: W
HStem: -1.25 21G<67.3398 252.66> 795.4 21G<67.3398 252.66> 939.25 20G<67.3398 252.66>
VStem: 67.3398 185.32<13 703 797 959>
Fore
67.3398 795.4 m 1
 67.3398 959.25 l 1
 252.66 959.25 l 1
 252.66 795.4 l 1
 67.3398 795.4 l 1
67.3398 -1.25 m 1
 67.3398 711.78 l 1
 252.66 711.78 l 1
 252.66 -1.25 l 1
 67.3398 -1.25 l 1
EndSplineSet
MinimumDistance: x2,-1 
EndChar
StartChar: j
Encoding: 106 106
OldEncoding: 106
Width: 348
Flags: W
HStem: 708.42 20G<76.54 259.6> 812.04 163.85<77 246>
VStem: 76.54 183.06<-83 719 813 975>
Fore
76.54 812.04 m 1
 76.54 975.89 l 1
 259.6 975.89 l 1
 259.6 812.04 l 1
 76.54 812.04 l 1
76.54 -70.4902 m 2
 76.54 728.42 l 1
 259.6 728.42 l 1
 259.6 -116.82 l 2
 259.6 -140.174 254.704 -161.644 244.91 -181.23 c 0
 235.116 -204.584 223.063 -222.286 208.75 -234.34 c 1
 192.177 -250.914 173.72 -260.33 153.38 -262.59 c 0
 104.414 -270.124 49.4199 -273.89 -11.5996 -273.89 c 1
 -11.5996 -121.34 l 1
 22.2998 -121.34 45.6533 -118.326 58.46 -112.3 c 1
 70.5137 -104.014 76.54 -90.0762 76.54 -70.4902 c 2
EndSplineSet
MinimumDistance: x2,-1 
EndChar
StartChar: k
Encoding: 107 107
OldEncoding: 107
Width: 685
Flags: W
HStem: -1.25 21G<33.0146 214.945 457.895 675.985> 939.25 20G<33.0146 214.945>
VStem: 33.0146 181.93<13 221 434 959>
Fore
33.0146 959.25 m 1
 214.945 959.25 l 1
 214.945 433.8 l 1
 448.855 711.78 l 1
 660.165 711.78 l 1
 419.475 440.58 l 1
 675.985 -1.25 l 1
 457.895 -1.25 l 1
 291.785 303.85 l 1
 214.945 221.36 l 1
 214.945 -1.25 l 1
 33.0146 -1.25 l 1
 33.0146 959.25 l 1
EndSplineSet
MinimumDistance: x1,-1 
EndChar
StartChar: l
Encoding: 108 108
OldEncoding: 108
Width: 344
Flags: W
HStem: -1.25 21G<67.3398 252.66> 939.25 20G<67.3398 252.66>
VStem: 67.3398 185.32<13 959>
Fore
67.3398 959.25 m 1
 252.66 959.25 l 1
 252.66 -1.25 l 1
 67.3398 -1.25 l 1
 67.3398 959.25 l 1
EndSplineSet
MinimumDistance: x1,-1 
EndChar
StartChar: m
Encoding: 109 109
OldEncoding: 109
Width: 1103
Flags: W
HStem: 705.105 20G<12.085 194.015>
VStem: 12.085 181.93<27 461 619 717> 423.405 183.06<27 461> 833.595 185.325<27 509>
Fore
194.015 12.0752 m 1
 12.085 12.0752 l 1
 12.085 725.105 l 1
 194.015 725.105 l 1
 194.015 618.885 l 1
 224.148 661.071 255.035 690.829 286.675 708.155 c 1
 316.809 726.988 360.125 736.405 416.625 736.405 c 1
 460.318 731.885 491.959 722.469 511.545 708.155 c 0
 533.392 691.581 558.251 666.345 586.125 632.445 c 1
 607.972 665.592 634.715 692.711 666.355 713.805 c 1
 697.241 731.885 736.039 740.925 782.745 740.925 c 1
 835.855 736.405 l 1
 957.895 720.585 1018.92 644.121 1018.92 507.015 c 2
 1018.92 12.0752 l 1
 833.595 12.0752 l 1
 833.595 502.495 l 2
 833.595 546.941 802.709 572.555 740.935 579.335 c 1
 697.995 579.335 664.849 565.398 641.495 537.525 c 0
 618.142 507.392 606.465 478.012 606.465 449.385 c 2
 606.465 12.0752 l 1
 423.405 12.0752 l 1
 423.405 502.495 l 1
 412.105 551.461 378.205 577.075 321.705 579.335 c 0
 287.052 579.335 256.919 567.658 231.305 544.305 c 1
 206.445 523.965 194.015 492.325 194.015 449.385 c 2
 194.015 12.0752 l 1
EndSplineSet
MinimumDistance: x12,-1 
EndChar
StartChar: n
Encoding: 110 110
OldEncoding: 110
Width: 758
Flags: W
HStem: 588.635 148.03<353.805 397.875> 705.365 20G<37.4053 220.465>
VStem: 37.4053 183.06<27 477 620 717> 488.275 185.32<27 477>
Fore
37.4053 12.335 m 1
 37.4053 725.365 l 1
 220.465 725.365 l 1
 220.465 619.145 l 1
 240.052 657.565 265.289 686.568 296.175 706.155 c 0
 327.062 726.495 360.961 736.665 397.875 736.665 c 0
 581.688 736.665 673.595 654.929 673.595 491.455 c 2
 673.595 12.335 l 1
 488.275 12.335 l 1
 488.275 449.645 l 2
 488.275 494.092 480.741 527.991 465.675 551.345 c 0
 449.102 576.205 411.812 588.635 353.805 588.635 c 1
 306.345 581.855 272.445 567.165 252.105 544.565 c 0
 231.012 521.211 220.465 495.599 220.465 467.725 c 2
 220.465 12.335 l 1
 37.4053 12.335 l 1
EndSplineSet
MinimumDistance: x6,-1 
EndChar
StartChar: o
Encoding: 111 111
OldEncoding: 111
Width: 758
Flags: W
HStem: -18.5498 160.46<335 369> 581.48 157.07<335 369>
VStem: 0.504883 185.32<348 382> 519.175 185.32<348 382>
Fore
351.935 -18.5498 m 0
 252.495 -18.5498 170.005 10.8301 104.465 69.5898 c 0
 72.8252 98.9697 47.5879 141.534 28.7549 197.28 c 0
 9.92188 253.78 0.504883 308.396 0.504883 361.13 c 0
 0.504883 420.644 9.92188 476.39 28.7549 528.37 c 1
 44.5752 582.61 69.8115 624.044 104.465 652.67 c 1
 166.238 709.924 248.729 738.55 351.935 738.55 c 0
 453.635 738.55 535.371 709.924 597.145 652.67 c 0
 633.305 619.523 660.425 578.09 678.505 528.37 c 1
 695.831 472.624 704.495 416.876 704.495 361.13 c 0
 704.495 307.644 695.831 253.026 678.505 197.28 c 0
 661.179 146.807 634.059 104.243 597.145 69.5898 c 0
 533.865 10.8301 452.129 -18.5498 351.935 -18.5498 c 0
351.935 581.48 m 0
 293.929 581.48 250.235 555.113 220.855 502.38 c 0
 197.501 458.687 185.825 411.604 185.825 361.13 c 0
 185.825 312.164 197.501 265.834 220.855 222.14 c 0
 250.235 168.653 293.929 141.91 351.935 141.91 c 0
 406.929 141.91 450.999 168.653 484.145 222.14 c 1
 507.499 272.613 519.175 318.943 519.175 361.13 c 0
 519.175 413.863 507.499 460.946 484.145 502.38 c 0
 454.765 555.113 410.695 581.48 351.935 581.48 c 0
EndSplineSet
MinimumDistance: x9,-1 
EndChar
StartChar: p
Encoding: 112 112
OldEncoding: 112
Width: 756
Flags: W
HStem: -260.305 21G<29 210.93> -1.53516 153.68<368 405.29> 591.715 161.59<368 400.77> 722.005 20G<29 210.93>
VStem: 29 181.93<-246 92 360 380 636 732> 521.68 185.32<360 380>
Fore
29 742.005 m 1
 210.93 742.005 l 1
 210.93 635.785 l 1
 248.22 678.725 l 2
 258.767 691.531 271.95 704.715 287.77 718.275 c 0
 301.33 728.821 316.773 737.485 334.1 744.265 c 0
 349.92 750.291 372.144 753.305 400.77 753.305 c 0
 482.13 753.305 549.177 724.679 601.91 667.425 c 0
 635.057 632.771 660.67 589.079 678.75 536.345 c 0
 697.584 477.585 707 419.579 707 362.325 c 0
 707 309.591 698.336 256.481 681.01 202.995 c 0
 665.19 151.769 641.46 109.958 609.82 77.5654 c 0
 580.44 48.1846 550.307 27.4688 519.42 15.415 c 0
 493.807 4.11523 455.764 -1.53516 405.29 -1.53516 c 0
 371.39 -1.53516 344.646 3.36133 325.06 13.1553 c 1
 305.474 19.1816 287.017 29.7285 269.69 44.7949 c 0
 259.144 52.3281 239.557 71.915 210.93 103.555 c 1
 210.93 -260.305 l 1
 29 -260.305 l 1
 29 742.005 l 1
369.13 591.715 m 0
 314.89 591.715 272.326 564.595 241.44 510.355 c 1
 221.1 459.129 210.93 412.799 210.93 371.365 c 0
 210.93 329.932 221.1 283.602 241.44 232.375 c 1
 272.326 178.889 314.89 152.145 369.13 152.145 c 0
 421.11 152.145 461.79 178.889 491.17 232.375 c 1
 511.51 280.589 521.68 326.919 521.68 371.365 c 0
 521.68 415.812 511.51 462.142 491.17 510.355 c 1
 461.036 564.595 420.356 591.715 369.13 591.715 c 0
EndSplineSet
MinimumDistance: x9,-1 
EndChar
StartChar: q
Encoding: 113 113
OldEncoding: 113
Width: 761
Flags: W
HStem: -260.305 21G<488.94 672> -1.53516 141.25<296.84 334.13> 719.745 20G<488.94 672>
VStem: -6 185.32<346 380> 488.94 183.06<-246 92 346 380 636 732>
Fore
672 739.745 m 1
 672 -260.305 l 1
 488.94 -260.305 l 1
 488.94 103.555 l 1
 474.626 86.9814 456.17 68.1484 433.57 47.0547 c 0
 418.504 31.9883 399.294 20.6885 375.94 13.1553 c 1
 355.6 3.36133 329.233 -1.53516 296.84 -1.53516 c 0
 244.86 -1.53516 206.44 4.11523 181.58 15.415 c 0
 148.434 28.9746 118.3 49.6914 91.1797 77.5654 c 0
 60.293 108.451 36.1865 150.262 18.8604 202.995 c 0
 2.28711 256.481 -6 309.591 -6 362.325 c 0
 -6 423.345 3.04004 480.222 21.1201 532.955 c 0
 41.46 590.961 67.0732 635.785 97.96 667.425 c 0
 120.56 691.531 148.434 712.625 181.58 730.705 c 0
 209.454 745.771 248.626 753.305 299.1 753.305 c 0
 352.586 751.045 392.137 740.121 417.75 720.535 c 1
 444.87 702.455 468.6 674.205 488.94 635.785 c 1
 488.94 739.745 l 1
 672 739.745 l 1
334.13 587.195 m 0
 280.644 587.195 239.586 560.075 210.96 505.835 c 1
 189.866 459.881 179.32 412.799 179.32 364.585 c 0
 179.32 314.111 189.866 266.275 210.96 221.075 c 0
 237.326 166.835 278.384 139.715 334.13 139.715 c 0
 387.616 139.715 428.296 166.835 456.17 221.075 c 0
 478.017 261.755 488.94 309.591 488.94 364.585 c 0
 488.94 420.331 478.017 467.415 456.17 505.835 c 1
 428.296 560.075 387.616 587.195 334.13 587.195 c 0
EndSplineSet
MinimumDistance: x0,-1 
EndChar
StartChar: r
Encoding: 114 114
OldEncoding: 114
Width: 478
Flags: W
HStem: 705.365 20G<50.8604 233.92>
VStem: 50.8604 183.06<27 415 589 717>
Fore
50.8604 12.335 m 1
 50.8604 725.365 l 1
 233.92 725.365 l 1
 233.92 588.635 l 1
 243.714 613.495 253.506 632.705 263.3 646.265 c 0
 274.6 661.331 294.563 679.035 323.19 699.375 c 0
 356.336 724.235 399.653 736.665 453.14 736.665 c 1
 453.14 549.085 l 1
 388.73 553.605 l 1
 346.544 553.605 313.396 543.812 289.29 524.225 c 0
 261.416 503.131 242.96 466.595 233.92 414.615 c 1
 233.92 12.335 l 1
 50.8604 12.335 l 1
EndSplineSet
MinimumDistance: x2,-1 
EndChar
StartChar: s
Encoding: 115 115
OldEncoding: 115
Width: 689
Flags: W
HStem: -16.4316 138.991<308 338> 599.419 138.989<296 316>
VStem: 22.875 178.54<497.719 528.229> 446.625 178.54<497.759 518.886> 451.145 192.1<197.139 236.688>
Fore
-4.24512 224.259 m 1
 178.815 224.259 l 1
 185.595 199.398 196.895 180.188 212.715 166.629 c 0
 226.275 153.822 242.472 144.028 261.305 137.248 c 0
 287.671 127.455 313.285 122.559 338.145 122.559 c 0
 410.465 120.299 448.131 145.158 451.145 197.139 c 0
 451.145 209.944 447.379 223.129 439.845 236.688 c 0
 433.065 247.988 421.389 254.769 404.815 257.028 c 1
 176.555 323.698 l 2
 116.289 341.024 75.9854 365.132 55.6445 396.019 c 0
 33.7988 429.165 22.875 463.064 22.875 497.719 c 0
 22.875 574.559 51.502 637.085 108.755 685.299 c 1
 153.201 720.705 216.481 738.408 298.595 738.408 c 0
 390.501 740.669 463.951 723.719 518.945 687.559 c 0
 563.392 658.933 592.395 629.553 605.955 599.419 c 0
 618.762 569.285 625.165 535.385 625.165 497.719 c 1
 446.625 497.719 l 1
 446.625 523.332 442.858 542.542 435.325 555.349 c 1
 424.778 568.908 405.568 579.832 377.695 588.118 c 0
 351.329 595.652 328.729 599.419 309.895 599.419 c 0
 279.009 599.419 252.265 592.639 229.665 579.078 c 1
 210.831 570.038 201.415 553.089 201.415 528.229 c 0
 201.415 504.122 215.352 488.679 243.225 481.898 c 2
 508.775 409.578 l 2
 530.621 403.553 552.469 391.875 574.315 374.549 c 0
 596.161 357.223 613.111 337.259 625.165 314.658 c 0
 637.219 288.292 643.245 262.303 643.245 236.688 c 0
 643.245 192.242 631.568 148.172 608.215 104.479 c 0
 583.355 60.0322 543.429 27.6387 488.435 7.29883 c 0
 471.861 2.02539 443.988 -3.24805 404.815 -8.52148 c 0
 373.175 -13.7949 341.535 -16.4316 309.895 -16.4316 c 0
 246.615 -14.1719 194.259 -4.75488 152.825 11.8184 c 1
 52.6318 56.2656 0.275391 127.078 -4.24512 224.259 c 1
EndSplineSet
MinimumDistance: x26,-1 
EndChar
StartChar: t
Encoding: 116 116
OldEncoding: 116
Width: 413
Flags: W
HStem: -26.1309 143.51<280 299> 580.679 122.04<9 84 271 370>
VStem: 84.6904 185.32<164 580 702 886>
Fore
-5.70996 702.719 m 1
 84.6904 702.719 l 1
 84.6904 898.209 l 1
 270.01 898.209 l 1
 270.01 702.719 l 1
 371.71 702.719 l 1
 371.71 580.679 l 1
 270.01 580.679 l 1
 270.01 180.659 l 2
 270.01 138.473 280.18 117.379 300.52 117.379 c 2
 369.45 115.119 l 1
 369.45 -9.18066 l 1
 335.55 -20.4814 306.17 -26.1309 281.31 -26.1309 c 0
 248.164 -28.3906 219.914 -25.001 196.56 -15.9609 c 1
 133.28 2.11914 95.9902 45.8125 84.6904 115.119 c 1
 84.6904 580.679 l 1
 -5.70996 580.679 l 1
 -5.70996 702.719 l 1
EndSplineSet
MinimumDistance: x5,-1 y1,3 y1,2 x4,6 x4,5 x1,16 x1,0 
EndChar
StartChar: u
Encoding: 117 117
OldEncoding: 117
Width: 759
Flags: W
HStem: 707.77 20G<31.4053 213.335 482.275 667.595>
VStem: 31.4053 181.93<264 721> 482.275 185.32<15 97 255 721>
Fore
667.595 727.77 m 1
 667.595 14.7402 l 1
 482.275 14.7402 l 1
 482.275 102.88 l 1
 453.648 59.1865 428.035 30.5596 405.435 17 c 0
 385.849 4.19336 352.701 -6.73047 305.995 -15.7695 c 1
 254.015 -13.5098 211.075 -7.86035 177.175 1.17969 c 0
 138.755 10.2197 106.361 33.1963 79.9951 70.1104 c 1
 47.6016 110.037 31.4053 164.276 31.4053 232.83 c 2
 31.4053 727.77 l 1
 213.335 727.77 l 1
 213.335 285.94 l 2
 213.335 242.246 221.245 209.1 237.065 186.5 c 0
 252.131 161.64 289.045 149.21 347.805 149.21 c 1
 398.278 155.99 432.179 169.927 449.505 191.02 c 1
 471.352 214.374 482.275 239.61 482.275 266.73 c 2
 482.275 727.77 l 1
 667.595 727.77 l 1
EndSplineSet
MinimumDistance: x0,-1 
EndChar
StartChar: v
Encoding: 118 118
OldEncoding: 118
Width: 689
Flags: W
HStem: 706.015 20G<-23.585 170.775 470.225 664.585>
Fore
-23.585 726.015 m 1
 170.775 726.015 l 1
 318.805 202.825 l 1
 470.225 726.015 l 1
 664.585 726.015 l 1
 417.115 12.9854 l 1
 221.625 12.9854 l 1
 -23.585 726.015 l 1
EndSplineSet
EndChar
StartChar: w
Encoding: 119 119
OldEncoding: 119
Width: 964
Flags: W
HStem: 706.015 20G<-51.6553 138.185 354.015 546.115 758.555 950.655>
DStem: 354.015 726.015 451.195 514.705 248.925 225.425 337.065 12.9854 451.195 514.705 546.115 726.015 561.935 12.9854 647.815 225.425
Fore
-51.6553 726.015 m 1
 138.185 726.015 l 1
 248.925 225.425 l 1
 354.015 726.015 l 1
 546.115 726.015 l 1
 647.815 225.425 l 1
 758.555 726.015 l 1
 950.655 726.015 l 1
 751.775 12.9854 l 1
 561.935 12.9854 l 1
 451.195 514.705 l 1
 337.065 12.9854 l 1
 147.225 12.9854 l 1
 -51.6553 726.015 l 1
EndSplineSet
MinimumDistance: x5,-1 
EndChar
StartChar: x
Encoding: 120 120
OldEncoding: 120
Width: 689
Flags: W
HStem: 706.015 20G<-13.415 208.065 441.975 660.065>
Fore
-13.415 726.015 m 1
 208.065 726.015 l 1
 324.455 510.185 l 1
 441.975 726.015 l 1
 660.065 726.015 l 1
 428.415 368.935 l 1
 662.325 12.9854 l 1
 441.975 12.9854 l 1
 324.455 223.165 l 1
 199.025 12.9854 l 1
 -21.3252 12.9854 l 1
 212.585 368.935 l 1
 -13.415 726.015 l 1
EndSplineSet
EndChar
StartChar: y
Encoding: 121 121
OldEncoding: 121
Width: 689
Flags: W
HStem: 722.655 20G<-30.1055 173.295 477.265 667.105>
Fore
-30.1055 742.655 m 1
 173.295 742.655 l 1
 329.235 223.985 l 1
 477.265 742.655 l 1
 667.105 742.655 l 1
 363.135 -118.405 l 1
 356.355 -147.031 338.651 -177.165 310.025 -208.805 c 0
 292.698 -228.392 258.045 -241.575 206.065 -248.355 c 0
 151.825 -255.889 106.249 -259.655 69.335 -259.655 c 1
 69.335 -109.365 l 1
 125.835 -109.365 163.879 -102.961 183.465 -90.1553 c 1
 212.845 -74.335 227.535 -48.3447 227.535 -12.1846 c 0
 227.535 5.1416 224.898 19.0781 219.625 29.625 c 1
 -30.1055 742.655 l 1
EndSplineSet
EndChar
StartChar: z
Encoding: 122 122
OldEncoding: 122
Width: 619
Flags: W
HStem: 12.9854 150.29<230 572> 575.725 150.29<22 328>
DStem: 342.63 575.725 569.76 575.725 -8.7998 163.275 219.46 163.275
Fore
16.0596 726.015 m 1
 569.76 726.015 l 1
 569.76 575.725 l 1
 219.46 163.275 l 1
 578.8 163.275 l 1
 578.8 12.9854 l 1
 -8.7998 12.9854 l 1
 -8.7998 163.275 l 1
 342.63 575.725 l 1
 16.0596 575.725 l 1
 16.0596 726.015 l 1
EndSplineSet
MinimumDistance: x1,-1 
EndChar
StartChar: braceleft
Encoding: 123 123
OldEncoding: 123
Width: 483
Flags: W
HStem: -252.59 129.95<325.489 390> 844.64 129.95<324 390>
VStem: 130.29 150.29<-62 230 482 795>
Fore
21.8096 305.63 m 1
 21.8096 428.8 l 1
 94.1299 428.8 130.29 449.517 130.29 490.95 c 2
 130.29 793.79 l 2
 130.29 849.536 147.24 893.606 181.14 926 c 0
 215.794 958.394 248.187 974.59 278.32 974.59 c 2
 390.19 974.59 l 1
 390.19 844.64 l 1
 341.6 844.64 l 2
 313.727 844.64 296.776 839.366 290.75 828.82 c 0
 283.97 819.026 280.58 801.323 280.58 775.71 c 2
 280.58 495.47 l 2
 280.58 423.903 239.146 380.586 156.28 365.52 c 1
 187.166 361.754 216.546 351.206 244.42 333.88 c 1
 268.526 313.54 280.58 277.756 280.58 226.53 c 2
 280.58 -52.5801 l 2
 280.58 -74.4268 284.724 -91.377 293.01 -103.43 c 0
 299.79 -116.236 315.986 -122.64 341.6 -122.64 c 2
 390.19 -122.64 l 1
 390.19 -252.59 l 1
 278.32 -252.59 l 2
 249.693 -252.59 217.3 -236.394 181.14 -204 c 0
 147.24 -171.606 130.29 -127.536 130.29 -71.79 c 2
 130.29 228.79 l 2
 130.29 280.017 94.1299 305.63 21.8096 305.63 c 1
EndSplineSet
MinimumDistance: x10,-1 y0,1 x2,0 x2,1 
EndChar
StartChar: bar
Encoding: 124 124
OldEncoding: 124
Width: 346
Flags: W
HStem: 954.59 20G<111.02 214.98>
VStem: 111.02 103.96<-238 964>
Fore
214.98 974.59 m 1
 214.98 -252.59 l 1
 111.02 -252.59 l 1
 111.02 974.59 l 1
 214.98 974.59 l 1
EndSplineSet
MinimumDistance: x0,-1 
EndChar
StartChar: braceright
Encoding: 125 125
OldEncoding: 125
Width: 478
Flags: W
HStem: 305.63 123.17<413 431> 954.59 20G<62.8096 173.55>
VStem: 171.29 152.55<-74 244 482 795>
Fore
431.19 428.8 m 1
 431.19 305.63 l 1
 396.536 305.63 370.924 300.356 354.35 289.81 c 0
 334.01 277.756 323.84 257.416 323.84 228.79 c 2
 323.84 -71.79 l 2
 323.84 -129.044 306.137 -173.113 270.73 -204 c 0
 236.076 -236.394 203.684 -252.59 173.55 -252.59 c 2
 62.8096 -252.59 l 1
 62.8096 -122.64 l 1
 111.4 -122.64 l 2
 138.52 -122.64 155.47 -116.236 162.25 -103.43 c 0
 168.276 -93.6367 171.29 -76.6865 171.29 -52.5801 c 2
 171.29 226.53 l 2
 171.29 311.656 213.854 358.74 298.98 367.78 c 1
 268.847 370.04 238.714 380.21 208.58 398.29 c 0
 183.72 413.356 171.29 445.75 171.29 495.47 c 2
 171.29 775.71 l 2
 171.29 801.323 168.276 819.026 162.25 828.82 c 0
 154.716 840.874 137.767 846.9 111.4 846.9 c 2
 62.8096 846.9 l 1
 62.8096 974.59 l 1
 173.55 974.59 l 2
 191.63 974.59 213.477 968.563 239.09 956.51 c 1
 260.937 940.69 280.9 919.597 298.98 893.23 c 1
 315.554 864.604 323.84 831.456 323.84 793.79 c 2
 323.84 493.21 l 2
 323.84 450.27 359.624 428.8 431.19 428.8 c 1
EndSplineSet
MinimumDistance: x0,-1 x25,1 x25,0 
EndChar
StartChar: asciitilde
Encoding: 126 126
OldEncoding: 126
Width: 723
Flags: W
VStem: 537.01 101.7<381 399>
Fore
127.95 248.225 m 1
 35.29 248.225 l 1
 44.3301 315.271 67.3066 366.121 104.22 400.775 c 0
 135.86 428.648 167.5 442.585 199.14 442.585 c 0
 222.494 442.585 248.106 434.675 275.98 418.855 c 2
 409.32 343.145 l 2
 437.946 325.818 461.3 317.155 479.38 317.155 c 0
 517.8 317.155 537.01 345.028 537.01 400.775 c 1
 638.71 400.775 l 1
 638.71 375.915 634.943 350.302 627.41 323.935 c 0
 620.63 302.089 603.68 277.605 576.56 250.485 c 0
 549.44 221.105 520.06 206.415 488.42 206.415 c 0
 460.546 206.415 428.906 216.585 393.5 236.925 c 2
 247.73 314.895 l 2
 224.376 327.701 205.166 334.105 190.1 334.105 c 0
 168.254 334.105 153.563 325.441 146.03 308.115 c 0
 137.744 288.528 131.716 268.565 127.95 248.225 c 1
EndSplineSet
MinimumDistance: x8,-1 
EndChar
StartChar: uni0E10.descless
Encoding: 128 63232
OldEncoding: 63232
Width: 687
Flags: W
HStem: -1.34473 21G<407.385 553.155> 188.495 92.66<203 216.975> 403.195 97.18<204 216.985> 643.885 107.35<544 561.704> 704.905 99.4399<269 303>
VStem: 49.1748 94.9202<333 351> 419.815 133.34<273 415>
Fore
407.385 -1.34473 m 1
 400.605 37.0752 384.409 87.1719 358.795 148.945 c 1
 336.195 209.211 323.389 239.345 320.375 239.345 c 1
 312.841 230.305 301.165 219.381 285.345 206.575 c 1
 265.005 194.521 237.885 188.495 203.985 188.495 c 0
 153.512 188.495 115.845 203.938 90.9854 234.825 c 1
 63.1113 264.959 49.1748 301.119 49.1748 343.305 c 0
 49.1748 386.999 63.1113 423.158 90.9854 451.785 c 0
 118.105 481.919 155.771 498.115 203.985 500.375 c 0
 248.432 500.375 283.839 492.089 310.205 475.515 c 0
 334.312 458.941 353.898 428.809 368.965 385.115 c 1
 400.605 316.185 l 1
 419.815 272.115 l 1
 419.815 380.595 l 2
 419.815 437.849 412.659 474.762 398.345 491.335 c 0
 384.031 507.155 350.885 521.845 298.905 535.405 c 0
 219.805 555.745 165.941 568.175 137.315 572.695 c 2
 14.1445 590.775 l 1
 14.1445 641.625 l 1
 51.0586 692.099 91.3613 732.401 135.055 762.535 c 0
 177.995 790.408 227.339 804.345 283.085 804.345 c 0
 333.559 804.345 383.655 795.682 433.375 778.355 c 1
 494.395 760.275 531.309 751.235 544.115 751.235 c 0
 569.729 751.235 599.108 758.015 632.255 771.575 c 1
 641.295 732.025 l 1
 648.075 708.671 652.595 686.449 654.855 665.355 c 1
 609.655 651.041 572.741 643.885 544.115 643.885 c 1
 488.745 648.405 l 1
 415.295 674.395 l 1
 338.455 696.995 l 2
 323.389 702.269 305.685 704.905 285.345 704.905 c 0
 265.005 704.905 245.041 700.009 225.455 690.215 c 0
 202.855 680.421 190.425 672.135 188.165 665.355 c 1
 280.825 651.795 l 1
 325.271 643.509 356.911 636.352 375.745 630.325 c 0
 452.585 609.985 501.929 582.111 523.775 546.705 c 0
 543.361 514.312 553.155 460.448 553.155 385.115 c 2
 553.155 -1.34473 l 1
 407.385 -1.34473 l 1
203.985 281.155 m 1
 223.571 281.155 238.262 287.182 248.055 299.235 c 0
 258.602 309.781 263.875 324.472 263.875 343.305 c 0
 263.875 360.631 258.602 374.568 248.055 385.115 c 0
 238.262 397.169 223.571 403.195 203.985 403.195 c 0
 184.398 403.195 169.709 397.169 159.915 385.115 c 0
 149.369 374.568 144.095 360.631 144.095 343.305 c 0
 144.095 328.991 149.369 315.055 159.915 301.495 c 1
 171.215 290.195 185.905 283.415 203.985 281.155 c 1
EndSplineSet
MinimumDistance: x36,-1 
EndChar
StartChar: uni0E34.left
Encoding: 129 63233
OldEncoding: 63233
Width: 0
Flags: W
HStem: 915.268 97.182<-676 -621.598> 1083.64 92.66<-566.896 -540.683>
Fore
-540.595 1176.3 m 0
 -486.355 1176.3 -437.765 1160.85 -394.825 1129.97 c 1
 -357.159 1105.11 -329.285 1074.97 -311.205 1039.57 c 0
 -288.605 997.381 -274.669 960.467 -269.395 928.827 c 1
 -251.315 840.688 l 1
 -357.535 873.457 l 1
 -412.528 886.264 -468.651 896.811 -525.905 905.098 c 0
 -563.571 911.877 -614.045 915.268 -677.325 915.268 c 1
 -794.845 910.747 l 1
 -871.685 902.837 l 1
 -859.631 981.938 -823.095 1046.72 -762.075 1097.2 c 1
 -701.055 1152.19 -627.229 1178.56 -540.595 1176.3 c 0
-540.595 1083.64 m 1
 -583.535 1083.64 -620.448 1076.1 -651.335 1061.04 c 0
 -685.235 1043.71 -705.198 1026.01 -711.225 1007.93 c 1
 -675.065 1012.45 l 1
 -618.565 1012.45 l 1
 -538.335 1007.93 l 1
 -495.395 1002.65 -458.105 996.251 -426.465 988.717 c 1
 -373.355 968.377 l 1
 -406.501 1036.18 -462.249 1074.6 -540.595 1083.64 c 1
EndSplineSet
EndChar
StartChar: uni0E35.left
Encoding: 130 63234
OldEncoding: 63234
Width: 0
Flags: W
VStem: -400.305 123.17<1121 1252>
DStem: -627.435 1011.91 -627.435 1011.91 -696.365 1009.64 -557.375 1007.38
Fore
-559.635 1175.75 m 0
 -524.981 1175.75 -490.329 1168.22 -455.675 1153.16 c 1
 -430.062 1139.59 -411.605 1128.67 -400.305 1120.38 c 1
 -400.305 1259.38 l 1
 -277.135 1259.38 l 1
 -277.135 939.585 l 1
 -274.121 939.585 -265.835 904.932 -252.275 835.625 c 1
 -376.575 872.915 l 2
 -418.009 884.215 -474.509 895.139 -546.075 905.685 c 0
 -585.249 911.711 -636.099 914.725 -698.625 914.725 c 2
 -784.505 912.465 l 1
 -851.175 907.945 l 1
 -890.725 902.295 l 1
 -884.698 947.495 -866.241 993.071 -835.355 1039.03 c 0
 -806.729 1080.46 -767.932 1113.61 -718.965 1138.46 c 0
 -666.231 1165.58 -613.121 1178.01 -559.635 1175.75 c 0
-561.895 1083.09 m 1
 -602.575 1083.09 -637.981 1075.56 -668.115 1060.5 c 0
 -703.521 1043.17 -724.615 1024.71 -731.395 1005.12 c 1
 -696.365 1009.64 l 1
 -627.435 1011.91 l 1
 -557.375 1007.38 l 2
 -521.969 1003.62 -485.809 997.215 -448.895 988.175 c 1
 -393.525 967.835 l 1
 -407.085 997.215 -426.295 1021.7 -451.155 1041.29 c 0
 -475.262 1062.38 -512.175 1076.31 -561.895 1083.09 c 1
EndSplineSet
MinimumDistance: x4,-1 
EndChar
StartChar: uni0E36.left
Encoding: 131 63235
OldEncoding: 63235
Width: 0
Flags: W
HStem: 913.945 97.1748<-695 -638.127> 1181.75 90.4102<-394 -376>
Fore
-250.275 1156.89 m 1
 -250.275 1087.59 -270.991 1042.76 -312.425 1022.42 c 1
 -294.345 987.019 -283.421 964.041 -279.655 953.495 c 0
 -267.602 921.855 -257.809 882.305 -250.275 834.845 c 1
 -374.575 872.135 l 2
 -416.009 883.435 -472.509 894.358 -544.075 904.905 c 0
 -583.249 910.932 -634.099 913.945 -696.625 913.945 c 2
 -782.505 911.685 l 1
 -849.175 907.165 l 1
 -888.725 901.515 l 1
 -882.698 946.715 -864.241 992.291 -833.355 1038.25 c 0
 -804.729 1079.68 -765.932 1112.83 -716.965 1137.69 c 0
 -668.751 1162.54 -615.642 1174.97 -557.635 1174.97 c 1
 -530.515 1172.71 l 1
 -511.305 1168.2 l 1
 -509.045 1188.54 -497.369 1210.76 -476.275 1234.87 c 0
 -456.688 1259.72 -425.049 1272.16 -381.355 1272.16 c 0
 -345.195 1272.16 -315.438 1261.61 -292.085 1240.51 c 0
 -270.991 1219.42 -257.055 1191.55 -250.275 1156.89 c 1
-559.895 1082.31 m 1
 -600.575 1082.31 -635.981 1074.78 -666.115 1059.71 c 0
 -702.275 1042.39 -723.369 1024.68 -729.395 1006.61 c 1
 -694.365 1011.12 l 1
 -636.735 1011.12 l 1
 -555.375 1006.61 l 1
 -519.969 1002.84 -483.809 996.435 -446.895 987.395 c 1
 -391.525 967.055 l 1
 -405.085 996.435 -424.295 1020.92 -449.155 1040.5 c 0
 -473.262 1061.6 -510.175 1075.54 -559.895 1082.31 c 1
-384.745 1101.53 m 0
 -372.691 1101.53 -363.275 1106.04 -356.495 1115.08 c 0
 -348.961 1122.62 -345.195 1131.66 -345.195 1142.21 c 0
 -345.195 1152 -348.961 1160.66 -356.495 1168.2 c 0
 -363.275 1177.24 -372.691 1181.75 -384.745 1181.75 c 0
 -410.358 1181.75 -423.165 1168.57 -423.165 1142.21 c 0
 -423.165 1115.08 -410.358 1101.53 -384.745 1101.53 c 0
EndSplineSet
EndChar
StartChar: uni0E37.left
Encoding: 132 63236
OldEncoding: 63236
Width: 0
Flags: W
VStem: -378.525 116.391<1120 1252>
DStem: -612.435 1011.91 -612.435 1011.91 -681.365 1009.64 -542.375 1007.38
Fore
-378.525 1115.87 m 1
 -378.525 1259.38 l 1
 -262.135 1259.38 l 1
 -262.135 939.585 l 1
 -259.121 939.585 -250.835 904.932 -237.275 835.625 c 1
 -361.575 872.915 l 2
 -403.009 884.215 -459.509 895.139 -531.075 905.685 c 0
 -570.249 911.711 -621.099 914.725 -683.625 914.725 c 2
 -769.505 912.465 l 1
 -836.175 907.945 l 1
 -875.725 902.295 l 1
 -847.852 1013.79 -802.275 1087.24 -738.995 1122.64 c 0
 -676.469 1158.05 -610.175 1175.75 -540.115 1175.75 c 1
 -540.115 1259.38 l 1
 -431.635 1259.38 l 1
 -431.635 1148.63 l 1
 -427.869 1148.63 -410.165 1137.71 -378.525 1115.87 c 1
-546.895 1083.09 m 1
 -587.575 1083.09 -622.981 1075.56 -653.115 1060.5 c 0
 -688.521 1043.17 -709.615 1024.71 -716.395 1005.12 c 1
 -681.365 1009.64 l 1
 -612.435 1011.91 l 1
 -542.375 1007.38 l 2
 -506.969 1003.62 -470.809 997.215 -433.895 988.175 c 1
 -378.525 967.835 l 1
 -392.085 997.215 -411.295 1021.7 -436.155 1041.29 c 0
 -460.262 1062.38 -497.175 1076.31 -546.895 1083.09 c 1
EndSplineSet
MinimumDistance: x2,-1 
EndChar
StartChar: ellipsis
Encoding: 133 8230
OldEncoding: 8230
Width: 1076
Flags: W
VStem: 78.8447 215.83<54 72> 414.455 215.83<59 72> 752.325 215.83<59 63>
Fore
630.285 63.9346 m 4
 630.285 14.2148 595.631 -15.165 526.325 -24.2051 c 5
 458.525 -24.2051 421.235 4.04492 414.455 60.5449 c 5
 414.455 122.318 450.991 153.205 524.065 153.205 c 4
 556.459 153.205 582.448 144.165 602.035 126.085 c 4
 620.869 110.265 630.285 89.5488 630.285 63.9346 c 4
968.155 63.9346 m 5
 968.155 14.2148 932.749 -15.165 861.935 -24.2051 c 5
 795.642 -24.2051 759.105 4.04492 752.325 60.5449 c 5
 752.325 122.318 788.108 153.205 859.675 153.205 c 4
 890.562 153.205 917.305 144.165 939.905 126.085 c 5
 956.479 110.265 965.895 89.5488 968.155 63.9346 c 5
294.675 63.9346 m 4
 294.675 5.1748 258.515 -24.2051 186.195 -24.2051 c 4
 114.629 -24.2051 78.8447 5.1748 78.8447 63.9346 c 4
 78.8447 123.448 114.629 153.205 186.195 153.205 c 4
 258.515 153.205 294.675 123.448 294.675 63.9346 c 4
EndSplineSet
MinimumDistance: x5,-1 
EndChar
StartChar: uni0E48.low_left
Encoding: 134 63237
OldEncoding: 63237
Width: 0
Flags: W
VStem: -429.735 134.47<862 1200>
Fore
-429.735 847.72 m 1
 -429.735 1200.28 l 1
 -295.265 1200.28 l 1
 -295.265 847.72 l 1
 -429.735 847.72 l 1
EndSplineSet
MinimumDistance: x2,-1 
EndChar
StartChar: uni0E49.low_left
Encoding: 135 63238
OldEncoding: 63238
Width: 0
Flags: W
HStem: 1131.31 97.1797<-645 -630>
VStem: -774.435 94.9199<1085 1094> -590.245 107.351<1074 1094>
Fore
-482.895 1075.94 m 0
 -485.155 1038.27 -491.559 1006.63 -502.105 981.02 c 1
 -514.159 959.174 -522.445 947.496 -526.965 945.99 c 2
 -499.845 950.51 l 1
 -462.555 965.2 l 2
 -443.722 973.486 -428.278 981.773 -416.225 990.06 c 0
 -398.145 1004.37 -385.715 1017.56 -378.935 1029.61 c 0
 -352.568 1083.85 -339.385 1129.42 -339.385 1166.34 c 1
 -341.645 1219.45 l 1
 -210.565 1219.45 l 1
 -210.565 1048.45 -265.935 936.573 -376.675 883.84 c 0
 -442.215 852.954 -515.665 837.51 -597.025 837.51 c 1
 -661.435 839.77 l 1
 -679.515 842.03 -691.945 844.29 -698.725 846.55 c 1
 -698.725 892.88 l 1
 -688.179 896.646 -678.009 903.804 -668.215 914.35 c 1
 -655.409 924.896 -647.875 935.443 -645.615 945.99 c 1
 -689.685 958.42 l 2
 -712.285 964.446 -732.249 980.644 -749.575 1007.01 c 0
 -766.148 1030.36 -774.435 1057.86 -774.435 1089.5 c 0
 -774.435 1128.68 -761.629 1161.06 -736.015 1186.68 c 0
 -710.401 1214.56 -676.125 1228.49 -633.185 1228.49 c 0
 -597.778 1228.49 -570.281 1220.95 -550.695 1205.89 c 0
 -527.341 1189.31 -510.392 1168.97 -499.845 1144.87 c 1
 -488.545 1124.53 -482.895 1101.56 -482.895 1075.94 c 0
-633.185 1040.91 m 0
 -618.871 1040.91 -608.325 1045.81 -601.545 1055.6 c 0
 -594.012 1065.4 -590.245 1075.94 -590.245 1087.24 c 0
 -590.245 1097.78 -594.012 1107.95 -601.545 1117.75 c 0
 -608.325 1126.79 -618.871 1131.31 -633.185 1131.31 c 0
 -648.251 1131.31 -659.175 1126.79 -665.955 1117.75 c 1
 -674.995 1108.71 -679.515 1098.54 -679.515 1087.24 c 0
 -679.515 1077.44 -674.995 1066.9 -665.955 1055.6 c 0
 -659.175 1045.81 -648.251 1040.91 -633.185 1040.91 c 0
EndSplineSet
MinimumDistance: x0,-1 
EndChar
StartChar: uni0E4A.low_left
Encoding: 136 63239
OldEncoding: 63239
Width: 0
Flags: W
HStem: 832.695 71.19<-671 -667> 1077.91 85.88<-670 -646.976>
VStem: -642.456 76.84<924 945>
Fore
-669.576 832.695 m 0
 -711.01 834.955 -743.402 852.658 -766.756 885.805 c 0
 -795.382 924.225 -808.565 966.035 -806.306 1011.24 c 0
 -806.306 1049.66 -793.122 1085.81 -766.756 1119.71 c 0
 -744.155 1149.09 -711.762 1163.79 -669.576 1163.79 c 0
 -638.689 1163.79 -617.22 1158.13 -605.166 1146.83 c 1
 -587.086 1134.03 -576.916 1125.74 -574.655 1121.97 c 1
 -545.275 1146.83 l 2
 -530.209 1158.13 -509.869 1163.79 -484.256 1163.79 c 0
 -442.822 1163.79 -412.312 1151.36 -392.726 1126.5 c 0
 -372.386 1101.63 -362.216 1067.74 -362.216 1024.79 c 0
 -362.216 987.129 -371.256 952.475 -389.336 920.835 c 1
 -384.062 922.342 -375.022 928.369 -362.216 938.915 c 0
 -347.902 950.215 -336.979 962.645 -329.445 976.205 c 0
 -312.872 1010.86 -304.586 1043.25 -304.586 1073.38 c 0
 -304.586 1094.48 -306.846 1115.2 -311.366 1135.54 c 1
 -218.706 1168.3 l 1
 -212.68 1156.25 -209.666 1133.65 -209.666 1100.5 c 0
 -209.666 1034.21 -225.862 978.089 -258.256 932.135 c 1
 -280.102 898.235 -311.742 875.259 -353.176 863.205 c 0
 -389.336 851.905 -437.926 846.255 -498.945 846.255 c 1
 -501.206 865.465 l 1
 -503.466 883.545 l 1
 -489.905 897.105 -479.735 909.535 -472.956 920.835 c 0
 -460.902 940.421 -454.876 964.905 -454.876 994.285 c 0
 -452.616 1047.02 -469.565 1073.38 -505.726 1073.38 c 0
 -519.286 1073.38 -531.716 1069.62 -543.016 1062.08 c 0
 -548.289 1059.07 -555.822 1052.67 -565.616 1042.88 c 1
 -573.149 1050.41 -583.319 1057.57 -596.126 1064.34 c 0
 -609.686 1073.38 -626.636 1077.91 -646.976 1077.91 c 0
 -683.136 1077.91 -702.346 1060.96 -704.605 1027.05 c 1
 -686.525 1031.58 l 1
 -656.016 1036.09 l 1
 -624.376 1033.83 -602.152 1024.04 -589.346 1006.71 c 0
 -573.525 986.375 -565.616 959.255 -565.616 925.355 c 0
 -565.616 899.741 -575.786 877.895 -596.126 859.815 c 0
 -616.466 841.735 -640.949 832.695 -669.576 832.695 c 0
-671.836 967.165 m 0
 -693.682 967.165 -704.605 956.995 -704.605 936.655 c 0
 -704.605 929.121 -701.592 922.342 -695.565 916.315 c 0
 -688.786 908.028 -680.876 903.885 -671.836 903.885 c 0
 -662.796 903.885 -655.262 907.275 -649.235 914.055 c 0
 -644.716 920.835 -642.456 928.369 -642.456 936.655 c 0
 -642.456 943.435 -644.716 950.592 -649.235 958.125 c 1
 -655.262 964.151 -662.796 967.165 -671.836 967.165 c 0
EndSplineSet
MinimumDistance: x27,-1 
EndChar
StartChar: uni0E4B.low_left
Encoding: 137 63240
OldEncoding: 63240
Width: 0
Flags: W
HStem: 977.98 123.17<-624 -506 -378 -254>
VStem: -505.41 127.69<860 977 1101 1230>
Fore
-505.41 977.98 m 1
 -638.75 977.98 l 1
 -638.75 1101.15 l 1
 -505.41 1101.15 l 1
 -505.41 1232.23 l 1
 -377.72 1232.23 l 1
 -377.72 1101.15 l 1
 -243.25 1101.15 l 1
 -243.25 977.98 l 1
 -377.72 977.98 l 1
 -377.72 845.77 l 1
 -505.41 845.77 l 1
 -505.41 977.98 l 1
EndSplineSet
MinimumDistance: x7,-1 y3,5 y3,4 y0,10 y0,11 x6,8 x6,7 x0,2 x0,1 
EndChar
StartChar: uni0E4C.low_left
Encoding: 138 63241
OldEncoding: 63241
Width: 0
Flags: W
HStem: 840.973 92.66<-435.953 -419.017 -419 -415>
VStem: -596.38 124.3<976 1008.21> -381.68 97.18<967.539 977.692 977.74 988>
Fore
-214.44 1130.25 m 0
 -279.98 1119.71 -347.403 1114.43 -416.71 1114.43 c 0
 -376.784 1114.43 -345.896 1102 -324.05 1077.14 c 1
 -297.684 1052.28 -284.5 1022.15 -284.5 986.743 c 0
 -282.24 949.077 -293.916 915.177 -319.53 885.043 c 0
 -343.637 855.663 -376.784 840.973 -418.97 840.973 c 0
 -470.95 838.713 -513.89 853.403 -547.79 885.043 c 0
 -580.184 915.177 -596.38 956.233 -596.38 1008.21 c 0
 -594.12 1096.35 -557.96 1158.13 -487.9 1193.53 c 1
 -455.506 1207.85 -411.437 1216.13 -355.69 1218.39 c 0
 -297.684 1222.91 -257.756 1230.07 -235.91 1239.86 c 0
 -212.557 1248.9 -200.88 1272.63 -200.88 1311.05 c 1
 -85.6201 1311.05 l 1
 -85.6201 1262.84 -95.4141 1223.67 -115 1193.53 c 0
 -136.847 1160.39 -169.994 1139.29 -214.44 1130.25 c 0
-425.75 1021.77 m 0
 -438.557 1021.77 -449.856 1018.01 -459.65 1010.47 c 1
 -467.937 1000.68 -472.08 989.757 -472.08 977.703 c 0
 -472.08 967.909 -467.937 958.117 -459.65 948.323 c 0
 -450.61 938.529 -439.31 933.633 -425.75 933.633 c 0
 -410.684 933.633 -399.76 938.529 -392.98 948.323 c 1
 -385.446 955.856 -381.68 965.649 -381.68 977.703 c 0
 -381.68 1007.08 -396.37 1021.77 -425.75 1021.77 c 0
EndSplineSet
MinimumDistance: x3,-1 
EndChar
StartChar: uni0E48.low
Encoding: 139 63242
OldEncoding: 63242
Width: 0
Flags: W
VStem: -244.735 134.471<862 1200>
Fore
-244.735 847.72 m 5
 -244.735 1200.28 l 5
 -110.265 1200.28 l 5
 -110.265 847.72 l 5
 -244.735 847.72 l 5
EndSplineSet
MinimumDistance: x2,-1 
EndChar
StartChar: uni0E49.low
Encoding: 140 63243
OldEncoding: 63243
Width: 0
Flags: W
HStem: 1131.31 97.1797<-358 -341>
VStem: -485.305 92.6602<1085 1094> -299.985 103.96<1074 1094>
Fore
-196.025 1075.94 m 4
 -198.285 1027.73 -204.688 995.334 -215.235 978.76 c 5
 -225.028 958.42 -232.562 947.496 -237.835 945.99 c 5
 -231.055 945.99 -218.625 949.38 -200.545 956.16 c 5
 -178.698 961.434 -158.735 968.967 -140.655 978.76 c 4
 -122.575 988.554 -105.625 1005.5 -89.8047 1029.61 c 5
 -63.4385 1080.83 -50.2549 1127.92 -50.2549 1170.86 c 5
 -52.5146 1219.45 l 5
 76.3047 1219.45 l 5
 76.3047 1048.45 20.9346 936.573 -89.8047 883.84 c 4
 -153.085 852.954 -225.781 837.51 -307.895 837.51 c 5
 -372.305 839.77 l 5
 -390.385 842.03 -402.815 844.29 -409.595 846.55 c 5
 -409.595 892.88 l 5
 -399.049 896.646 -388.879 903.804 -379.085 914.35 c 5
 -366.278 924.896 -358.745 935.443 -356.485 945.99 c 5
 -402.815 958.42 l 6
 -425.415 964.446 -445.379 980.644 -462.705 1007.01 c 4
 -477.771 1030.36 -485.305 1057.86 -485.305 1089.5 c 4
 -485.305 1126.42 -472.121 1158.8 -445.755 1186.68 c 4
 -420.895 1214.56 -386.995 1228.49 -344.055 1228.49 c 4
 -295.841 1228.49 -258.929 1212.3 -233.315 1179.9 c 4
 -208.455 1150.52 -196.025 1115.86 -196.025 1075.94 c 4
-346.315 1040.91 m 4
 -332.755 1040.91 -321.455 1045.81 -312.415 1055.6 c 5
 -304.129 1069.16 -299.985 1079.7 -299.985 1087.24 c 4
 -299.985 1096.28 -304.129 1106.45 -312.415 1117.75 c 5
 -321.455 1126.79 -332.755 1131.31 -346.315 1131.31 c 4
 -361.381 1131.31 -372.305 1126.79 -379.085 1117.75 c 5
 -388.125 1108.71 -392.645 1098.54 -392.645 1087.24 c 4
 -392.645 1077.44 -388.125 1066.9 -379.085 1055.6 c 4
 -372.305 1045.81 -361.381 1040.91 -346.315 1040.91 c 4
EndSplineSet
MinimumDistance: x0,-1 
EndChar
StartChar: uni0E4A.low
Encoding: 141 63244
OldEncoding: 63244
Width: 0
Flags: W
HStem: 836.94 81.36<-504 -486> 1101.36 93.79<-504 -478.471>
VStem: -457.001 66.67<935 954> -269.421 101.7<1009 1042.6>
Fore
-503.331 836.94 m 0
 -548.531 836.94 -584.314 856.903 -610.681 896.83 c 0
 -640.062 939.77 -653.621 983.84 -651.361 1029.04 c 0
 -651.361 1072.74 -637.801 1111.9 -610.681 1146.56 c 0
 -585.067 1178.96 -549.285 1195.15 -503.331 1195.15 c 0
 -487.511 1195.15 -472.067 1192.89 -457.001 1188.37 c 1
 -427.621 1174.81 l 1
 -408.411 1161.25 l 1
 -399.371 1149.95 l 1
 -391.837 1157.49 -380.161 1166.53 -364.341 1177.07 c 0
 -347.768 1189.13 -327.051 1195.15 -302.191 1195.15 c 0
 -261.511 1195.15 -227.611 1182.35 -200.491 1156.73 c 1
 -178.645 1126.59 -167.721 1088.56 -167.721 1042.6 c 0
 -167.721 1004.93 -178.645 967.267 -200.491 929.6 c 1
 -169.981 947.68 l 1
 -154.915 961.24 -142.861 975.177 -133.821 989.49 c 0
 -113.481 1020.38 -103.312 1059.18 -103.312 1105.88 c 0
 -103.312 1131.5 -107.831 1156.73 -116.871 1181.59 c 1
 -10.6514 1203.06 l 1
 -4.62402 1184.22 -1.61133 1160.12 -1.61133 1130.74 c 0
 -1.61133 1054.66 -20.0674 991.374 -56.9814 940.9 c 0
 -84.1006 902.48 -118.001 877.996 -158.681 867.45 c 0
 -203.881 854.644 -256.991 848.24 -318.011 848.24 c 1
 -318.011 865.19 l 1
 -321.401 890.05 l 1
 -312.361 898.336 -302.191 912.273 -290.891 931.86 c 0
 -276.577 953.706 -269.421 980.074 -269.421 1010.96 c 0
 -269.421 1068.96 -288.255 1097.97 -325.921 1097.97 c 0
 -344.001 1097.97 -360.197 1093.45 -374.511 1084.41 c 0
 -385.812 1077.63 -394.851 1070.85 -401.631 1064.07 c 1
 -401.631 1064.07 l 1
 -401.631 1065.57 -404.645 1069.35 -410.671 1075.37 c 1
 -438.921 1093.45 l 1
 -452.481 1098.73 -465.665 1101.36 -478.471 1101.36 c 0
 -519.151 1101.36 -540.621 1083.28 -542.881 1047.12 c 1
 -522.541 1055.03 l 1
 -487.511 1059.55 l 1
 -456.625 1057.29 -432.895 1045.61 -416.321 1024.52 c 0
 -398.995 1000.41 -390.331 971.033 -390.331 936.38 c 0
 -390.331 910.767 -401.255 887.79 -423.101 867.45 c 0
 -442.688 847.11 -469.431 836.94 -503.331 836.94 c 0
-492.031 984.97 m 0
 -515.385 984.97 -527.062 974.046 -527.062 952.2 c 0
 -527.062 929.6 -515.385 918.3 -492.031 918.3 c 0
 -468.678 918.3 -457.001 929.6 -457.001 952.2 c 0
 -457.001 961.994 -459.638 969.903 -464.911 975.93 c 0
 -470.938 981.956 -479.978 984.97 -492.031 984.97 c 0
EndSplineSet
MinimumDistance: x12,-1 
EndChar
StartChar: uni0E4B.low
Encoding: 142 63245
OldEncoding: 63245
Width: 0
Flags: W
HStem: 977.98 123.17<-366 -246 -120 4>
VStem: -245.15 125.431<860 977 1101 1230>
Fore
-245.15 977.98 m 1
 -380.75 977.98 l 1
 -380.75 1101.15 l 1
 -245.15 1101.15 l 1
 -245.15 1232.23 l 1
 -119.72 1232.23 l 1
 -119.72 1101.15 l 1
 14.75 1101.15 l 1
 14.75 977.98 l 1
 -119.72 977.98 l 1
 -119.72 845.77 l 5
 -245.15 845.77 l 1
 -245.15 977.98 l 1
EndSplineSet
MinimumDistance: y3,5 y3,4 y0,10 y0,11 x6,8 x6,7 x0,2 x0,1 
EndChar
StartChar: uni0E4C.low
Encoding: 143 63246
OldEncoding: 63246
Width: 0
Flags: HW
HStem: 843.09 90.4004<-268 -255>
VStem: -221.603 97.1797<969.912 979.807 979.83 988>
Fore
-55.4922 1130.11 m 0
 -78.8467 1125.59 -115.006 1121.83 -163.973 1118.81 c 2
 -256.633 1114.29 l 1
 -216.706 1114.29 -185.818 1101.86 -163.973 1077 c 1
 -137.606 1054.4 -124.423 1024.27 -124.423 986.6 c 1
 -122.162 948.934 -133.839 915.033 -159.452 884.9 c 0
 -185.066 857.026 -218.213 843.09 -258.893 843.09 c 0
 -314.639 843.09 -358.709 858.533 -391.103 889.42 c 1
 -424.249 923.32 -439.692 962.87 -437.433 1008.07 c 0
 -437.433 1046.49 -427.263 1084.15 -406.923 1121.07 c 0
 -391.103 1151.21 -364.736 1175.31 -327.822 1193.39 c 0
 -298.442 1206.95 -254.749 1215.99 -196.742 1220.51 c 0
 -141.749 1222.77 -100.692 1229.18 -73.5723 1239.72 c 0
 -51.7266 1247.26 -40.8027 1270.99 -40.8027 1310.91 c 1
 74.457 1310.91 l 1
 74.457 1207.71 31.1406 1147.43 -55.4922 1130.11 c 0
-265.673 1023.89 m 0
 -279.986 1023.89 -291.662 1019.37 -300.702 1010.33 c 0
 -308.236 1000.54 -312.003 990.366 -312.003 979.82 c 0
 -312.003 971.533 -308.236 960.986 -300.702 948.18 c 0
 -293.923 938.387 -282.246 933.49 -265.673 933.49 c 0
 -251.358 933.49 -240.438 938.387 -232.902 948.18 c 0
 -225.369 957.974 -221.603 968.52 -221.603 979.82 c 0
 -221.603 991.874 -225.369 1002.8 -232.902 1012.59 c 1
 -244.202 1020.12 -255.126 1023.89 -265.673 1023.89 c 0
EndSplineSet
MinimumDistance: x4,-1 
EndChar
StartChar: uni0E0D.descless
Encoding: 144 63247
OldEncoding: 63247
Width: 1044
Flags: W
HStem: -14.125 84.75<208 230> -0.56543 119.78<430 498 632 752> 196.055 85.88<209 230> 765.915 20G<800.35 934.82>
VStem: 69.2402 84.7498<128 138> 281.68 83.62<128 149> 499.77 133.34<119 591> 800.35 134.47<160 783>
Fore
934.82 785.915 m 1
 934.82 149.725 l 2
 934.82 109.045 928.416 76.6514 915.61 52.5449 c 0
 904.31 31.4512 885.1 17.5146 857.98 10.7354 c 0
 830.106 3.20215 792.44 -0.56543 744.98 -0.56543 c 2
 422.93 -0.56543 l 1
 422.93 119.215 l 1
 499.77 119.215 l 1
 499.77 591.555 l 2
 499.77 628.469 485.08 657.095 455.7 677.435 c 0
 426.32 697.021 386.017 707.945 334.79 710.205 c 0
 310.684 710.205 280.55 704.555 244.39 693.255 c 0
 202.956 681.201 174.706 665.005 159.64 644.665 c 1
 180.733 640.898 203.71 634.871 228.57 626.585 c 0
 261.716 616.791 291.097 602.102 316.71 582.515 c 1
 316.71 518.105 l 1
 291.097 518.105 266.236 510.195 242.13 494.375 c 0
 218.023 479.309 205.97 444.655 205.97 390.415 c 2
 205.97 279.675 l 1
 210.49 281.935 l 1
 217.27 281.935 l 2
 248.91 281.935 275.653 274.778 297.5 260.465 c 0
 320.854 245.398 337.804 226.941 348.35 205.095 c 0
 359.65 184.755 365.3 161.025 365.3 133.905 c 0
 365.3 107.538 359.65 83.4316 348.35 61.585 c 0
 337.05 38.9854 320.1 20.5283 297.5 6.21484 c 0
 274.9 -7.34473 248.156 -14.125 217.27 -14.125 c 0
 169.057 -14.125 132.896 0.56543 108.79 29.9453 c 1
 82.4238 57.8184 69.2402 93.2246 69.2402 136.165 c 2
 69.2402 381.375 l 2
 69.2402 427.329 74.5137 461.981 85.0596 485.335 c 0
 96.3604 511.701 115.57 533.925 142.69 552.005 c 1
 129.13 558.785 110.674 565.188 87.3203 571.215 c 0
 55.6797 580.255 26.2998 585.528 -0.820312 587.035 c 1
 -0.820312 631.105 l 1
 15.7529 658.225 54.5498 694.385 115.57 739.585 c 0
 175.084 783.278 259.08 805.125 367.56 805.125 c 0
 421.8 805.125 465.116 797.215 497.51 781.395 c 0
 535.177 764.068 561.92 744.858 577.74 723.765 c 0
 598.834 698.151 612.77 672.539 619.55 646.925 c 0
 628.59 619.805 633.11 594.568 633.11 571.215 c 2
 633.11 119.215 l 1
 744.98 119.215 l 2
 769.086 119.215 785.284 123.358 793.57 131.645 c 1
 798.09 138.425 800.35 156.881 800.35 187.015 c 2
 800.35 785.915 l 1
 934.82 785.915 l 1
219.53 70.625 m 0
 230.076 70.625 241.754 74.0146 254.56 80.7949 c 1
 264.354 88.3281 271.134 95.8613 274.9 103.395 c 0
 279.42 112.435 281.68 122.605 281.68 133.905 c 0
 281.68 154.245 276.406 169.688 265.86 180.235 c 0
 255.313 190.781 239.87 196.055 219.53 196.055 c 0
 200.696 196.055 185.254 190.028 173.2 177.975 c 0
 160.394 163.661 153.99 148.972 153.99 133.905 c 0
 153.99 118.839 160.394 104.901 173.2 92.0947 c 0
 185.254 77.7812 200.696 70.625 219.53 70.625 c 0
EndSplineSet
MinimumDistance: x0,-1 y5,7 x7,5 x7,6 
EndChar
StartChar: quoteleft
Encoding: 145 8216
OldEncoding: 8216
Width: 291
Flags: HW
Fore
32.5947 786.825 m 4
 30.334 850.858 51.8047 902.461 97.0039 941.635 c 5
 141.45 983.821 184.768 1007.17 226.954 1011.7 c 5
 242.774 978.925 l 5
 208.874 960.845 185.898 946.155 173.845 934.855 c 5
 155.011 920.541 143.334 898.318 138.814 868.185 c 5
 163.674 868.185 187.78 861.028 211.135 846.715 c 4
 232.98 833.908 245.41 807.919 248.424 768.745 c 5
 248.424 743.885 239.761 719.778 222.435 696.425 c 5
 206.614 678.345 184.391 669.305 155.765 669.305 c 4
 114.331 669.305 84.1973 679.852 65.3643 700.945 c 5
 43.5176 722.791 32.5947 751.419 32.5947 786.825 c 4
EndSplineSet
EndChar
StartChar: quoteright
Encoding: 146 8217
OldEncoding: 8217
Width: 290
Flags: HW
Fore
254.207 880.229 m 4
 267.767 817.702 255.713 763.084 218.047 716.378 c 5
 181.887 666.658 143.467 635.771 102.787 623.718 c 5
 81.3174 653.098 l 5
 111.451 677.204 131.413 695.662 141.207 708.468 c 4
 157.027 725.794 164.561 749.901 163.807 780.788 c 5
 138.947 776.268 114.087 778.904 89.2266 788.698 c 4
 65.1201 797.738 48.1699 821.092 38.377 858.758 c 4
 33.8574 882.864 38 908.102 50.8066 934.468 c 4
 62.8604 955.562 83.2002 968.368 111.827 972.888 c 4
 152.507 980.422 183.771 975.524 205.617 958.198 c 5
 231.23 940.872 247.427 914.882 254.207 880.229 c 4
EndSplineSet
EndChar
StartChar: quotedblleft
Encoding: 147 8220
OldEncoding: 8220
Width: 587
Flags: HW
Fore
30.6172 783.184 m 4
 26.8506 844.957 47.5674 896.938 92.7676 939.123 c 5
 135.707 982.062 178.271 1006.17 220.457 1011.44 c 5
 237.407 979.804 l 5
 205.014 960.97 182.037 945.903 168.478 934.604 c 4
 150.397 919.537 139.474 896.56 135.707 865.674 c 5
 160.567 866.427 184.674 860.399 208.027 847.594 c 4
 230.627 834.787 243.434 808.42 246.447 768.493 c 4
 247.201 742.127 238.913 718.396 221.587 697.304 c 4
 206.521 677.717 184.674 667.924 156.047 667.924 c 4
 115.367 666.417 84.8574 676.587 64.5176 698.434 c 4
 42.6709 719.527 31.3711 747.777 30.6172 783.184 c 4
308.598 789.963 m 4
 304.831 851.737 325.547 903.717 370.747 945.903 c 5
 412.181 988.09 454.367 1011.82 497.308 1017.09 c 5
 515.388 986.583 l 5
 482.993 967.75 460.018 952.307 446.457 940.253 c 4
 429.131 925.939 417.831 903.34 412.558 872.453 c 5
 437.417 872.453 461.523 866.05 484.877 853.243 c 4
 508.23 840.438 521.413 814.447 524.428 775.273 c 4
 525.181 748.153 516.894 724.047 499.567 702.953 c 4
 484.501 684.12 462.653 674.327 434.027 673.573 c 4
 391.841 672.819 361.331 682.989 342.497 704.083 c 5
 320.651 724.424 309.351 753.05 308.598 789.963 c 4
EndSplineSet
EndChar
StartChar: quotedblright
Encoding: 148 8221
OldEncoding: 8221
Width: 588
Flags: HW
Fore
520.396 857.045 m 4
 522.656 795.271 500.81 743.669 454.855 702.235 c 4
 411.162 660.801 367.846 637.825 324.906 633.305 c 5
 309.086 664.945 l 5
 341.479 683.025 364.832 697.715 379.146 709.015 c 4
 397.226 724.081 408.525 746.682 413.046 776.815 c 5
 388.186 776.815 364.456 783.595 341.855 797.155 c 4
 319.256 809.961 306.826 836.329 304.565 876.255 c 4
 304.565 902.621 313.229 926.352 330.556 947.445 c 4
 346.376 966.278 368.6 975.695 397.226 975.695 c 4
 437.906 975.695 468.04 964.771 487.626 942.925 c 5
 509.472 921.079 520.396 892.451 520.396 857.045 c 4
242.416 857.045 m 4
 244.676 795.271 222.829 743.669 176.876 702.235 c 5
 133.936 660.801 90.9961 637.825 48.0557 633.305 c 5
 31.1055 664.945 l 5
 63.499 683.025 86.8525 697.715 101.166 709.015 c 4
 118.492 723.329 130.17 745.929 136.196 776.815 c 5
 112.09 776.815 87.9824 783.595 63.876 797.155 c 4
 41.2754 810.715 28.8457 837.081 26.5859 876.255 c 4
 26.5859 902.621 35.249 926.352 52.5762 947.445 c 4
 68.3955 966.278 90.6191 975.695 119.246 975.695 c 4
 161.433 975.695 191.565 964.771 209.646 942.925 c 5
 231.492 922.585 242.416 893.959 242.416 857.045 c 4
EndSplineSet
EndChar
StartChar: bullet
Encoding: 149 8226
OldEncoding: 8226
Width: 370
Flags: W
Fore
174 205.38 m 0
 112.98 205.38 64.3896 225.344 28.2305 265.27 c 0
 -5.66992 303.69 -22.6201 349.267 -22.6201 402 c 0
 -22.6201 437.406 -15.0869 469.046 -0.0195312 496.92 c 0
 18.0596 529.313 40.6602 554.174 67.7803 571.5 c 0
 97.1602 589.58 132.566 598.62 174 598.62 c 0
 216.94 598.62 253.1 589.58 282.48 571.5 c 0
 311.106 553.42 333.706 529.313 350.28 499.18 c 1
 363.84 469.8 370.62 437.406 370.62 402 c 0
 370.62 347.76 353.67 301.43 319.77 263.01 c 0
 285.87 224.59 237.28 205.38 174 205.38 c 0
EndSplineSet
EndChar
StartChar: endash
Encoding: 150 8211
OldEncoding: 8211
Width: 1090
Flags: W
HStem: 343.165 66.67<-52 1086>
Fore
-66.5596 409.835 m 1
 1090.56 409.835 l 1
 1090.56 343.165 l 1
 -66.5596 343.165 l 1
 -66.5596 409.835 l 1
EndSplineSet
EndChar
StartChar: emdash
Encoding: 151 8212
OldEncoding: 8212
Width: 2183
Flags: W
HStem: 343.165 66.67<-119 2171>
Fore
-133.25 409.835 m 1
 2183.25 409.835 l 1
 2183.25 343.165 l 1
 -133.25 343.165 l 1
 -133.25 409.835 l 1
EndSplineSet
EndChar
StartChar: uni0E31.left
Encoding: 152 63248
OldEncoding: 63248
Width: 0
Flags: W
HStem: 1087.51 92.66<-494 -476>
VStem: -636.602 97.181<1029 1039> -428.682 88.141<1021 1039>
Fore
-484.051 1180.17 m 0
 -438.098 1180.17 -402.691 1166.24 -377.831 1138.37 c 0
 -352.972 1110.49 -340.541 1074.33 -340.541 1029.88 c 0
 -340.541 1014.07 -342.801 999.375 -347.321 985.815 c 0
 -351.841 974.515 -356.361 965.475 -360.881 958.695 c 1
 -303.628 958.695 -250.518 972.255 -201.552 999.375 c 0
 -152.585 1025.74 -110.775 1079.23 -76.1211 1159.83 c 1
 34.6191 1118.03 l 1
 21.8125 1064.54 -4.55469 1016.7 -44.4814 974.515 c 0
 -88.1748 928.562 -132.997 896.921 -178.951 879.595 c 0
 -233.191 857.749 -290.067 846.825 -349.581 846.825 c 1
 -398.171 849.085 l 1
 -457.685 855.111 -514.185 874.321 -567.671 906.715 c 1
 -615.885 938.355 -638.861 979.411 -636.602 1029.88 c 0
 -636.602 1070.56 -622.665 1106.72 -594.791 1138.37 c 0
 -569.932 1166.24 -533.018 1180.17 -484.051 1180.17 c 0
-484.051 976.775 m 0
 -464.465 976.775 -450.527 982.049 -442.241 992.595 c 0
 -433.201 1004.65 -428.682 1017.83 -428.682 1032.14 c 0
 -428.682 1047.21 -433.201 1060.39 -442.241 1071.7 c 0
 -450.527 1082.24 -464.465 1087.51 -484.051 1087.51 c 0
 -503.638 1087.51 -517.575 1082.24 -525.861 1071.7 c 0
 -534.901 1060.39 -539.421 1047.21 -539.421 1032.14 c 0
 -539.421 1017.83 -534.901 1004.65 -525.861 992.595 c 0
 -517.575 982.049 -503.638 976.775 -484.051 976.775 c 0
EndSplineSet
MinimumDistance: x2,-1 
EndChar
StartChar: uni0E4D.left
Encoding: 153 63249
OldEncoding: 63249
Width: 0
Flags: W
HStem: 902.995 94.9199<-455.686 -442> 1121.08 94.9199<-456.824 -442>
VStem: -602.005 97.1797<1048.17 1063> -383.915 94.9199<1048.17 1063>
Fore
-443.805 1216 m 4
 -394.839 1216 -356.419 1200.56 -328.545 1169.67 c 4
 -302.179 1141.05 -288.995 1104.89 -288.995 1061.2 c 4
 -288.995 1019.01 -302.932 981.719 -330.805 949.325 c 5
 -360.185 918.438 -397.852 902.995 -443.805 902.995 c 4
 -492.019 902.995 -530.815 918.438 -560.195 949.325 c 5
 -588.068 983.225 -602.005 1020.51 -602.005 1061.2 c 4
 -602.005 1101.88 -588.068 1138.04 -560.195 1169.67 c 4
 -533.075 1200.56 -494.278 1216 -443.805 1216 c 4
-443.805 997.915 m 4
 -426.479 997.915 -412.165 1004.32 -400.865 1017.12 c 4
 -389.565 1027.67 -383.915 1042.36 -383.915 1061.2 c 4
 -383.915 1077.77 -389.565 1091.33 -400.865 1101.88 c 4
 -412.165 1114.68 -426.479 1121.08 -443.805 1121.08 c 4
 -462.639 1121.08 -477.329 1115.43 -487.875 1104.13 c 4
 -499.175 1093.59 -504.825 1079.28 -504.825 1061.2 c 4
 -504.825 1042.36 -499.175 1027.67 -487.875 1017.12 c 4
 -476.575 1004.32 -461.885 997.915 -443.805 997.915 c 4
EndSplineSet
MinimumDistance: x2,-1 
EndChar
StartChar: uni0E47.left
Encoding: 154 63250
OldEncoding: 63250
Width: 0
Flags: W
HStem: 842.26 83.62<-367 -358> 954.13 103.96<-590 -574> 998.2 82.4899<-367 -354>
VStem: -790.89 114.13<1007.24 1043.4> -327.59 83.62<953 965>
Fore
-364.88 842.26 m 0
 -388.233 842.26 -408.196 847.91 -424.77 859.21 c 1
 -440.59 867.496 -460.554 881.057 -484.66 899.89 c 0
 -512.534 921.736 -530.613 934.92 -538.9 939.44 c 0
 -553.966 949.233 -570.164 954.13 -587.49 954.13 c 0
 -601.804 954.13 -614.61 941.7 -625.91 916.84 c 0
 -637.21 893.486 -642.86 867.12 -642.86 837.74 c 1
 -672.24 837.74 l 1
 -703.88 855.066 -731 883.693 -753.6 923.62 c 1
 -778.46 961.286 -790.89 1001.21 -790.89 1043.4 c 0
 -790.89 1066 -787.876 1084.84 -781.85 1099.9 c 0
 -764.523 1139.08 -742.677 1165.07 -716.31 1177.87 c 0
 -689.943 1192.19 -650.77 1199.34 -598.79 1199.34 c 2
 -541.16 1197.08 l 1
 -441.72 1192.56 l 1
 -398.78 1192.56 -369.4 1199.34 -353.58 1212.9 c 1
 -334.746 1224.2 -325.33 1251.32 -325.33 1294.26 c 1
 -219.11 1294.26 l 1
 -219.11 1224.96 -236.813 1175.61 -272.22 1146.23 c 0
 -307.626 1115.35 -365.634 1099.9 -446.24 1099.9 c 1
 -543.42 1104.42 l 1
 -590.88 1104.42 -625.534 1098.01 -647.38 1085.21 c 0
 -666.966 1074.67 -676.76 1048.68 -676.76 1007.24 c 1
 -674.5 1017.03 -665.46 1027.58 -649.64 1038.88 c 0
 -632.313 1051.68 -607.454 1058.09 -575.06 1058.09 c 0
 -544.927 1058.09 -522.704 1052.44 -508.39 1041.14 c 2
 -473.36 1014.02 l 1
 -457.54 1058.46 -421.38 1080.69 -364.88 1080.69 c 0
 -325.706 1080.69 -295.573 1070.15 -274.48 1049.05 c 0
 -254.14 1027.96 -243.97 999.33 -243.97 963.17 c 0
 -243.97 927.764 -254.894 899.137 -276.74 877.29 c 0
 -298.586 853.937 -327.966 842.26 -364.88 842.26 c 0
-364.88 925.88 m 0
 -353.58 925.88 -344.164 929.646 -336.63 937.18 c 0
 -330.604 943.206 -327.59 951.87 -327.59 963.17 c 0
 -327.59 973.717 -330.604 982.004 -336.63 988.03 c 0
 -343.41 994.81 -352.826 998.2 -364.88 998.2 c 0
 -373.166 998.2 -381.454 994.057 -389.74 985.77 c 0
 -396.52 979.744 -399.91 972.21 -399.91 963.17 c 0
 -399.91 951.87 -396.52 943.206 -389.74 937.18 c 0
 -382.206 929.646 -373.92 925.88 -364.88 925.88 c 0
EndSplineSet
MinimumDistance: x29,-1 
EndChar
StartChar: uni0E48.left
Encoding: 155 63251
OldEncoding: 63251
Width: 0
Flags: W
VStem: -396.085 123.17<1312 1554>
Fore
-396.085 1297.46 m 1
 -396.085 1567.54 l 1
 -272.915 1567.54 l 1
 -272.915 1297.46 l 5
 -396.085 1297.46 l 1
EndSplineSet
MinimumDistance: x2,-1 
EndChar
StartChar: uni0E49.left
Encoding: 156 63252
OldEncoding: 63252
Width: 0
Flags: W
HStem: 1516.95 80.2197<-491 -470>
VStem: -598.235 77.9707<1469 1488> -441.165 88.1396<1468 1481>
Fore
-353.025 1468.36 m 4
 -355.285 1427.67 -360.935 1400.55 -369.975 1387 c 5
 -377.509 1368.92 -383.535 1358.75 -388.055 1356.49 c 5
 -357.545 1364.39 l 6
 -341.725 1368.92 -324.775 1376.45 -306.695 1387 c 4
 -291.629 1396.04 -276.938 1409.97 -262.625 1428.8 c 5
 -248.312 1452.91 -240.025 1475.89 -237.765 1497.74 c 5
 -233.245 1519.58 -230.985 1549.71 -230.985 1588.13 c 5
 -124.765 1588.13 l 5
 -124.765 1440.48 -169.965 1345.56 -260.365 1303.38 c 4
 -317.619 1277.01 -378.639 1263.83 -443.425 1263.83 c 4
 -453.972 1263.83 -472.429 1265.71 -498.795 1269.47 c 6
 -533.825 1274 l 5
 -533.825 1312.42 l 5
 -508.965 1329.37 l 5
 -498.419 1334.64 -492.015 1343.68 -489.755 1356.49 c 5
 -527.045 1366.66 l 6
 -550.398 1374.19 -567.349 1387.75 -577.895 1407.33 c 4
 -591.455 1429.18 -598.235 1453.29 -598.235 1479.66 c 4
 -598.235 1512.05 -586.935 1539.92 -564.335 1563.28 c 4
 -542.488 1585.88 -513.861 1597.17 -478.455 1597.17 c 4
 -437.775 1597.17 -406.889 1584.37 -385.795 1558.75 c 5
 -363.948 1528.62 -353.025 1498.49 -353.025 1468.36 c 4
-480.715 1437.84 m 4
 -454.349 1437.84 -441.165 1451.03 -441.165 1477.39 c 4
 -441.165 1489.45 -444.179 1498.49 -450.205 1504.51 c 4
 -456.985 1512.8 -467.155 1516.95 -480.715 1516.95 c 4
 -492.769 1516.95 -502.938 1512.8 -511.225 1504.51 c 4
 -517.251 1498.49 -520.265 1489.45 -520.265 1477.39 c 4
 -520.265 1468.36 -516.499 1458.94 -508.965 1449.14 c 5
 -499.925 1441.61 -490.509 1437.84 -480.715 1437.84 c 4
EndSplineSet
MinimumDistance: x0,-1 
EndChar
StartChar: uni0E4A.left
Encoding: 157 63253
OldEncoding: 63253
Width: 0
Flags: W
HStem: 1247.67 68.9297<-587 -583> 1480.45 81.3604<-586 -564.08 -430.74 -411.53>
VStem: -557.3 71.1895<1337 1353> -382.15 88.1406<1401 1431.86>
Fore
-585.55 1247.67 m 4
 -623.97 1249.93 -655.61 1267.64 -680.47 1300.78 c 4
 -705.33 1332.42 -717.76 1370.84 -717.76 1416.04 c 5
 -713.24 1458.22 -700.057 1492.88 -678.21 1520 c 4
 -657.116 1547.88 -626.23 1561.81 -585.55 1561.81 c 4
 -567.47 1561.81 -552.78 1559.55 -541.48 1555.03 c 5
 -506.45 1534.69 l 5
 -495.15 1522.26 l 5
 -495.15 1522.26 l 5
 -490.63 1529.04 -480.46 1537.71 -464.64 1548.25 c 4
 -451.08 1557.29 -433.376 1561.81 -411.53 1561.81 c 4
 -371.604 1561.81 -342.224 1550.14 -323.39 1526.78 c 4
 -303.804 1504.94 -294.01 1473.3 -294.01 1431.86 c 4
 -294.01 1395.7 -302.296 1361.8 -318.87 1330.16 c 5
 -315.104 1331.66 -306.816 1338.83 -294.01 1351.63 c 5
 -278.943 1363.69 -268.773 1374.23 -263.5 1383.27 c 4
 -246.927 1414.91 -238.64 1446.55 -238.64 1478.19 c 4
 -238.64 1495.51 -240.9 1515.11 -245.42 1536.95 c 5
 -157.28 1566.33 l 5
 -151.254 1550.51 -148.24 1530.54 -148.24 1506.44 c 4
 -148.24 1439.4 -164.437 1384.77 -196.83 1342.59 c 5
 -218.677 1310.19 -248.81 1288.35 -287.23 1277.05 c 4
 -323.39 1266.51 -369.72 1261.23 -426.22 1261.23 c 5
 -426.22 1279.31 l 5
 -428.48 1298.52 l 5
 -421.7 1304.54 -412.284 1315.84 -400.23 1332.42 c 4
 -390.438 1346.74 -384.41 1370.08 -382.15 1402.48 c 4
 -382.15 1425.08 -385.164 1443.53 -391.19 1457.85 c 4
 -397.97 1471.41 -411.153 1478.19 -430.74 1478.19 c 4
 -443.546 1478.19 -454.847 1474.43 -464.64 1466.89 c 5
 -477.446 1460.11 -484.604 1454.09 -486.11 1448.81 c 5
 -486.11 1448.81 l 5
 -486.11 1451.07 -489.124 1454.09 -495.15 1457.85 c 6
 -525.66 1473.67 l 6
 -536.96 1478.19 -549.767 1480.45 -564.08 1480.45 c 4
 -599.486 1480.45 -618.32 1465 -620.58 1434.12 c 4
 -619.826 1434.88 -613.424 1436.75 -601.37 1439.77 c 5
 -574.25 1442.03 l 6
 -547.884 1442.03 -526.036 1432.62 -508.71 1413.78 c 4
 -493.644 1396.46 -486.11 1370.84 -486.11 1336.94 c 4
 -486.11 1314.34 -495.15 1293.63 -513.23 1274.79 c 5
 -535.076 1256.71 -559.184 1247.67 -585.55 1247.67 c 4
-587.81 1374.23 m 4
 -608.15 1374.23 -618.32 1365.19 -618.32 1347.11 c 4
 -618.32 1326.77 -608.15 1316.6 -587.81 1316.6 c 4
 -567.47 1316.6 -557.3 1326.77 -557.3 1347.11 c 4
 -557.3 1365.19 -567.47 1374.23 -587.81 1374.23 c 4
EndSplineSet
MinimumDistance: x12,-1 
EndChar
StartChar: uni0E4B.left
Encoding: 158 63254
OldEncoding: 63254
Width: 0
Flags: W
HStem: 1377.76 106.221<-507 -407 -291 -185>
VStem: -406.695 116.391<1293 1377 1483 1583>
Fore
-406.695 1377.76 m 5
 -521.955 1377.76 l 5
 -521.955 1483.98 l 5
 -406.695 1483.98 l 5
 -406.695 1585.68 l 5
 -290.305 1585.68 l 5
 -290.305 1483.98 l 5
 -175.045 1483.98 l 5
 -175.045 1377.76 l 5
 -290.305 1377.76 l 5
 -290.305 1278.32 l 5
 -406.695 1278.32 l 5
 -406.695 1377.76 l 5
EndSplineSet
MinimumDistance: x7,-1 y3,5 y3,4 y0,10 y0,11 x6,8 x6,7 x0,2 x0,1 
EndChar
StartChar: uni0E4C.left
Encoding: 159 63255
OldEncoding: 63255
Width: 0
Flags: W
HStem: 1181.13 79.1006<-393.482 -372>
VStem: -526.025 106.221<1298 1322.38> -345.225 84.75<1287.81 1299.76 1299.79 1310>
Fore
-201.715 1426.34 m 0
 -206.988 1425.59 -248.045 1421.82 -324.885 1415.04 c 1
 -373.475 1412.78 l 1
 -339.575 1412.78 -312.455 1402.61 -292.115 1382.27 c 0
 -271.021 1358.92 -260.475 1333.68 -260.475 1306.56 c 0
 -258.215 1271.91 -268.009 1242.53 -289.855 1218.42 c 0
 -312.455 1193.56 -341.081 1181.13 -375.735 1181.13 c 0
 -420.935 1178.87 -457.095 1192.06 -484.215 1220.68 c 1
 -512.089 1246.3 -526.025 1280.2 -526.025 1322.38 c 0
 -526.025 1399.98 -495.139 1452.33 -433.365 1479.45 c 0
 -403.231 1493.01 -365.565 1500.92 -320.365 1503.18 c 0
 -278.179 1505.44 -244.278 1510.72 -218.665 1519 c 0
 -198.325 1525.78 -188.155 1545.75 -188.155 1578.89 c 1
 -90.9746 1578.89 l 1
 -90.9746 1538.21 -100.392 1505.07 -119.225 1479.45 c 1
 -137.305 1448.57 -164.802 1430.86 -201.715 1426.34 c 0
-382.515 1335.94 m 0
 -407.375 1335.94 -419.805 1323.89 -419.805 1299.78 c 0
 -419.805 1273.42 -407.375 1260.23 -382.515 1260.23 c 0
 -357.655 1260.23 -345.225 1273.42 -345.225 1299.78 c 0
 -345.225 1310.33 -348.615 1318.62 -355.395 1324.64 c 0
 -362.929 1332.18 -371.969 1335.94 -382.515 1335.94 c 0
EndSplineSet
MinimumDistance: x4,-1 
EndChar
StartChar: uni0E01
Encoding: 161 3585
OldEncoding: 3585
Width: 807
Flags: W
HStem: -1.34473 21G<83.7998 220.53 562.92 696.26> 702.645 101.7<348 384>
VStem: 83.7998 136.73<13 399> 562.92 133.34<13 553>
Fore
157.25 551.225 m 1
 143.69 558.005 125.233 564.408 101.88 570.435 c 0
 70.2402 579.475 40.8604 584.749 13.7402 586.255 c 1
 13.7402 630.325 l 1
 41.9902 665.355 l 2
 52.5371 677.408 74.7598 696.619 108.66 722.985 c 1
 145.573 747.092 184.37 766.301 225.05 780.615 c 0
 266.483 796.435 318.84 804.345 382.12 804.345 c 0
 444.646 804.345 498.51 794.929 543.71 776.095 c 0
 591.17 755.001 628.46 725.621 655.58 687.955 c 0
 682.7 648.781 696.26 600.945 696.26 544.445 c 2
 696.26 -1.34473 l 1
 562.92 -1.34473 l 1
 562.92 533.145 l 2
 562.92 588.892 545.216 631.455 509.81 660.835 c 0
 474.403 688.709 428.073 702.645 370.82 702.645 c 0
 305.28 702.645 240.494 682.305 176.46 641.625 c 1
 205.84 634.845 l 2
 211.866 634.092 231.076 628.818 263.47 619.025 c 0
 287.576 609.985 310.177 597.555 331.27 581.735 c 1
 331.27 517.325 l 1
 305.656 517.325 280.796 509.415 256.69 493.595 c 0
 232.584 478.528 220.53 443.875 220.53 389.635 c 2
 220.53 -1.34473 l 1
 83.7998 -1.34473 l 1
 83.7998 380.595 l 2
 83.7998 426.549 89.0732 461.201 99.6201 484.555 c 0
 110.92 510.921 130.13 533.145 157.25 551.225 c 1
EndSplineSet
MinimumDistance: x10,-1 
EndChar
StartChar: uni0E02
Encoding: 162 3586
OldEncoding: 3586
Width: 792
Flags: W
HStem: -1.47461 119.78<170 259 396 492> 444.875 94.92<128.215 142> 765.005 20G<544.635 681.365>
VStem: -20.3652 100.57<587 607> 259.875 136.73<118 367> 359.315 116.39<588.423 607> 544.635 136.73<173 784>
Fore
359.315 588.385 m 1
 359.315 627.559 350.275 656.185 332.195 674.265 c 1
 309.595 690.839 287.749 700.255 266.655 702.515 c 1
 273.435 692.722 279.839 681.045 285.865 667.485 c 0
 293.398 646.392 297.165 624.921 297.165 603.075 c 0
 294.905 556.369 280.215 518.325 253.095 488.945 c 1
 223.715 459.565 186.049 444.875 140.095 444.875 c 0
 94.8945 444.875 56.0986 460.318 23.7051 491.205 c 0
 -5.6748 521.339 -20.3652 558.629 -20.3652 603.075 c 0
 -20.3652 645.262 -8.68848 682.175 14.665 713.815 c 0
 39.5254 744.701 69.6582 767.679 105.065 782.745 c 0
 139.719 798.565 178.139 806.475 220.325 806.475 c 0
 297.165 806.475 358.938 785.381 405.645 743.195 c 0
 452.352 702.515 475.705 653.925 475.705 597.425 c 0
 475.705 564.278 472.691 540.549 466.665 526.235 c 0
 460.639 511.921 450.469 493.465 436.155 470.865 c 2
 405.645 420.015 l 1
 399.619 404.948 396.605 384.608 396.605 358.995 c 2
 396.605 118.305 l 1
 482.485 118.305 l 2
 509.605 118.305 527.309 122.448 535.595 130.735 c 1
 541.621 139.021 544.635 157.479 544.635 186.105 c 2
 544.635 785.005 l 1
 681.365 785.005 l 1
 681.365 148.815 l 2
 681.365 86.2881 666.675 46.3613 637.295 29.0352 c 1
 608.669 8.69531 557.065 -1.47461 482.485 -1.47461 c 2
 167.215 -1.47461 l 1
 167.215 118.305 l 1
 259.875 118.305 l 1
 259.875 354.475 l 2
 259.875 380.842 264.019 404.195 272.305 424.535 c 0
 279.085 441.108 291.139 460.318 308.465 482.165 c 0
 322.778 498.738 334.455 514.935 343.495 530.755 c 0
 348.769 539.041 354.041 558.251 359.315 588.385 c 1
140.095 539.795 m 0
 159.682 539.795 175.125 546.198 186.425 559.005 c 0
 195.465 570.305 199.985 583.865 199.985 599.685 c 0
 199.985 617.765 195.465 632.455 186.425 643.755 c 0
 175.879 655.055 160.435 660.705 140.095 660.705 c 0
 122.015 660.705 107.325 654.301 96.0254 641.495 c 0
 85.4785 630.949 80.2051 617.012 80.2051 599.685 c 0
 80.2051 583.111 85.4785 569.551 96.0254 559.005 c 0
 107.325 546.198 122.015 539.795 140.095 539.795 c 0
EndSplineSet
MinimumDistance: x23,-1 y27,29 x29,27 x29,28 
EndChar
StartChar: uni0E03
Encoding: 163 3587
OldEncoding: 3587
Width: 874
Flags: W
HStem: -1.60547 119.78<253 344 479 575> 340.785 92.66<148.387 163> 554.355 91.53<157 163>
VStem: 220.45 94.92<482.498 493.314 493.356 502> 344.75 134.47<118 486> 441.93 114.13<647 655> 629.51 134.47<173 783>
Fore
161.69 340.785 m 0
 101.424 340.785 56.9766 359.995 28.3496 398.415 c 1
 -2.53711 436.081 -17.9805 484.671 -17.9805 544.185 c 0
 -17.9805 567.539 -16.4736 588.631 -13.46 607.465 c 0
 -9.69336 646.639 6.50293 682.799 35.1299 715.945 c 0
 57.7305 743.818 86.3564 766.795 121.01 784.875 c 0
 150.39 800.695 175.626 808.605 196.72 808.605 c 1
 284.86 760.015 l 1
 384.3 808.605 l 1
 424.227 801.825 462.646 783.369 499.56 753.235 c 0
 537.227 722.349 556.06 687.318 556.06 648.145 c 0
 556.06 623.285 549.656 601.815 536.85 583.735 c 1
 497.3 537.405 l 1
 485.246 520.831 479.22 499.361 479.22 472.995 c 2
 479.22 118.175 l 1
 567.36 118.175 l 2
 594.48 118.175 612.184 122.318 620.47 130.605 c 1
 626.496 138.892 629.51 157.349 629.51 185.975 c 2
 629.51 784.875 l 1
 763.98 784.875 l 1
 763.98 185.975 l 2
 763.98 118.175 753.057 70.3379 731.21 42.4648 c 1
 711.624 13.085 666.046 -1.60547 594.48 -1.60547 c 2
 249.83 -1.60547 l 1
 249.83 118.175 l 1
 344.75 118.175 l 1
 344.75 484.295 l 2
 344.75 549.835 368.856 595.411 417.07 621.025 c 1
 433.644 633.079 441.93 644.001 441.93 653.795 c 0
 441.93 671.121 424.98 688.071 391.08 704.645 c 1
 284.86 653.795 l 1
 176.38 704.645 l 1
 153.78 700.879 134.193 689.955 117.62 671.875 c 1
 104.813 653.795 97.2803 639.858 95.0195 630.065 c 1
 98.7861 633.831 104.813 636.845 113.1 639.105 c 0
 125.906 643.625 142.104 645.885 161.69 645.885 c 0
 193.33 645.885 220.45 639.105 243.05 625.545 c 1
 263.39 615.751 280.34 598.801 293.9 574.695 c 0
 308.214 549.081 315.37 524.222 315.37 500.115 c 0
 317.63 457.929 304.446 419.509 275.82 384.855 c 1
 248.7 355.475 210.656 340.785 161.69 340.785 c 0
159.43 433.445 m 0
 179.017 433.445 193.706 439.472 203.5 451.525 c 0
 214.8 464.331 220.45 478.269 220.45 493.335 c 0
 220.45 511.415 214.8 526.105 203.5 537.405 c 1
 194.46 548.705 179.77 554.355 159.43 554.355 c 0
 144.363 554.355 129.674 547.951 115.36 535.145 c 0
 104.813 524.599 99.54 510.661 99.54 493.335 c 0
 99.54 476.762 104.813 462.825 115.36 451.525 c 0
 128.92 439.472 143.61 433.445 159.43 433.445 c 0
EndSplineSet
MinimumDistance: x19,-1 y23,25 x25,23 x25,24 
EndChar
StartChar: uni0E04
Encoding: 164 3588
OldEncoding: 3588
Width: 800
Flags: W
HStem: -1.73535 21G<137.56 274.29 555.66 690.13> 512.415 94.92<338.738 352.634> 704.515 106.22<328 362>
VStem: 9.87012 116.39<494 523> 137.56 136.73<13 159> 398.59 94.92<445 463> 555.66 134.47<13 543>
Fore
338.7 294.325 m 1
 301.41 298.845 l 1
 283.33 303.365 274.29 306.379 274.29 307.885 c 2
 274.29 -1.73535 l 1
 137.56 -1.73535 l 1
 137.56 134.995 l 2
 137.56 170.401 131.91 202.041 120.61 229.915 c 0
 107.05 262.309 90.8535 293.948 72.0195 324.835 c 0
 57.707 348.188 42.2637 380.581 25.6904 422.015 c 0
 15.1436 449.135 9.87012 483.035 9.87012 523.715 c 0
 12.1299 585.488 29.833 637.845 62.9805 680.785 c 0
 96.126 725.985 138.69 758.379 190.67 777.965 c 0
 244.91 799.812 300.28 810.735 356.78 810.735 c 0
 416.294 810.735 471.286 800.565 521.76 780.225 c 0
 570.727 759.885 611.406 728.245 643.8 685.305 c 0
 674.687 643.119 690.13 592.269 690.13 532.755 c 2
 690.13 -1.73535 l 1
 555.66 -1.73535 l 1
 555.66 525.975 l 2
 555.66 583.229 535.696 627.299 495.77 658.185 c 0
 454.336 689.071 405.746 704.515 350 704.515 c 0
 291.994 704.515 240.39 688.318 195.19 655.925 c 0
 149.236 621.271 126.26 575.695 126.26 519.195 c 0
 126.26 486.049 131.534 455.161 142.08 426.535 c 0
 150.366 401.675 155.64 389.245 157.9 389.245 c 1
 157.9 391.505 l 2
 157.9 435.951 170.33 481.528 195.19 528.235 c 1
 218.544 578.709 266.38 605.075 338.7 607.335 c 0
 384.653 607.335 422.32 592.645 451.7 563.265 c 0
 479.573 533.131 493.51 495.842 493.51 451.395 c 0
 493.51 409.209 479.573 373.049 451.7 342.915 c 0
 423.826 312.781 386.16 296.585 338.7 294.325 c 1
338.7 389.245 m 0
 357.534 389.245 372.977 395.271 385.03 407.325 c 1
 394.07 419.379 398.59 434.068 398.59 451.395 c 0
 398.59 469.475 394.07 484.165 385.03 495.465 c 0
 374.483 506.765 359.04 512.415 338.7 512.415 c 0
 320.62 512.415 305.93 506.012 294.63 493.205 c 0
 284.084 482.658 278.81 468.722 278.81 451.395 c 0
 278.81 433.315 284.084 418.625 294.63 407.325 c 0
 306.684 395.271 321.374 389.245 338.7 389.245 c 0
EndSplineSet
MinimumDistance: x15,-1 
EndChar
StartChar: uni0E05
Encoding: 165 3589
OldEncoding: 3589
Width: 800
Flags: W
HStem: -1.08496 21G<137.56 274.29 555.66 690.13> 513.065 94.92<338.738 352.634>
VStem: 9.87012 116.39<495 535> 137.56 136.73<13 159> 398.59 94.92<445 463> 555.66 134.47<13 543>
Fore
246.04 800.085 m 1
 366.95 749.235 l 1
 495.77 800.085 l 1
 540.97 787.278 579.014 765.432 609.9 734.545 c 0
 640.786 703.658 661.504 670.512 672.05 635.105 c 0
 684.104 595.179 690.13 561.278 690.13 533.405 c 2
 690.13 -1.08496 l 1
 555.66 -1.08496 l 1
 555.66 528.885 l 2
 555.66 564.291 551.894 595.179 544.36 621.545 c 0
 537.58 642.639 518.37 662.602 486.73 681.435 c 1
 366.95 637.365 l 1
 250.56 688.215 l 1
 211.387 672.395 180.5 650.171 157.9 621.545 c 1
 136.807 589.905 126.26 556.005 126.26 519.845 c 0
 126.26 486.698 131.534 455.812 142.08 427.185 c 0
 150.366 402.325 155.64 389.895 157.9 389.895 c 1
 157.9 392.155 l 2
 157.9 436.602 170.33 482.179 195.19 528.885 c 1
 218.544 579.358 266.38 605.725 338.7 607.985 c 0
 384.653 607.985 422.32 593.295 451.7 563.915 c 0
 479.573 533.781 493.51 496.491 493.51 452.045 c 0
 493.51 409.858 479.573 373.698 451.7 343.565 c 0
 423.826 313.432 386.16 297.235 338.7 294.975 c 1
 301.41 299.495 l 1
 283.33 304.015 274.29 307.028 274.29 308.535 c 2
 274.29 -1.08496 l 1
 137.56 -1.08496 l 1
 137.56 135.645 l 2
 137.56 171.052 131.91 202.691 120.61 230.565 c 0
 107.05 262.959 90.8535 294.599 72.0195 325.485 c 0
 57.707 348.839 42.2637 381.231 25.6904 422.665 c 0
 15.1436 449.785 9.87012 483.685 9.87012 524.365 c 0
 12.1299 659.211 90.8535 751.119 246.04 800.085 c 1
338.7 389.895 m 0
 357.534 389.895 372.977 395.921 385.03 407.975 c 1
 394.07 420.028 398.59 434.719 398.59 452.045 c 0
 398.59 470.125 394.07 484.815 385.03 496.115 c 0
 374.483 507.415 359.04 513.065 338.7 513.065 c 0
 320.62 513.065 305.93 506.661 294.63 493.855 c 0
 284.084 483.309 278.81 469.371 278.81 452.045 c 0
 278.81 433.965 284.084 419.275 294.63 407.975 c 0
 306.684 395.921 321.374 389.895 338.7 389.895 c 0
EndSplineSet
MinimumDistance: x5,-1 
EndChar
StartChar: uni0E06
Encoding: 166 3590
OldEncoding: 3590
Width: 1002
Flags: W
HStem: -0.174805 21G<757.985 892.455> 766.305 20G<757.985 892.455>
VStem: 161.345 106.22<145.08 163> 216.715 97.18<474.889 487.97 488 497> 343.275 134.47<108 241 362 487> 440.455 114.13<637 649> 757.985 134.47<221 785>
Fore
477.745 465.385 m 2
 477.745 363.685 l 1
 521.438 356.905 557.599 347.488 586.225 335.435 c 0
 605.812 327.901 640.841 308.691 691.315 277.805 c 1
 724.461 255.205 746.685 235.995 757.985 220.175 c 1
 757.985 786.305 l 1
 892.455 786.305 l 1
 892.455 -0.174805 l 1
 757.985 -0.174805 l 1
 757.985 13.3848 746.309 39.752 722.955 78.9248 c 0
 698.849 120.358 666.455 158.025 625.775 191.925 c 0
 586.602 225.071 537.259 245.035 477.745 251.815 c 1
 477.745 119.605 l 2
 477.745 81.1846 464.562 48.792 438.195 22.4248 c 0
 412.581 -3.18848 377.929 -15.9951 334.235 -15.9951 c 0
 279.995 -15.9951 237.432 1.70801 206.545 37.1152 c 0
 176.411 71.7686 161.345 113.201 161.345 161.415 c 0
 161.345 211.889 177.541 256.711 209.935 295.885 c 0
 241.575 335.812 286.021 358.411 343.275 363.685 c 1
 343.275 478.945 l 2
 343.275 544.485 367.381 590.062 415.595 615.675 c 1
 432.169 622.455 440.455 632.249 440.455 645.055 c 0
 440.455 665.395 423.505 683.099 389.605 698.165 c 1
 283.385 647.315 l 1
 174.905 698.165 l 1
 150.799 694.398 130.835 683.099 115.015 664.265 c 0
 99.9482 645.432 89.7783 629.235 84.5049 615.675 c 1
 89.0254 620.195 98.4414 624.715 112.755 629.235 c 0
 121.795 633.001 137.991 636.015 161.345 638.275 c 1
 205.791 638.275 241.951 624.339 269.825 596.465 c 0
 299.205 567.085 313.895 532.432 313.895 492.505 c 0
 316.155 451.071 301.465 414.158 269.825 381.765 c 0
 238.938 350.879 202.778 335.435 161.345 335.435 c 0
 101.079 337.695 56.2549 356.151 26.875 390.805 c 0
 -4.01172 428.472 -19.4551 476.309 -19.4551 534.315 c 0
 -19.4551 556.161 -17.9482 577.631 -14.9346 598.725 c 0
 -5.89453 657.485 22.7314 706.075 70.9453 744.495 c 0
 117.651 782.161 159.085 800.995 195.245 800.995 c 1
 283.385 754.665 l 1
 382.825 800.995 l 1
 421.245 796.475 460.041 778.771 499.215 747.885 c 0
 536.129 716.999 554.585 681.969 554.585 642.795 c 0
 554.585 623.209 551.195 607.012 544.415 594.205 c 1
 517.295 555.785 l 1
 486.785 516.235 l 1
 480.759 504.935 477.745 487.985 477.745 465.385 c 2
281.125 108.305 m 0
 287.905 94.7451 299.581 87.9648 316.155 87.9648 c 0
 334.235 87.9648 343.275 98.5117 343.275 119.605 c 2
 343.275 256.335 l 1
 322.935 254.075 304.479 243.528 287.905 224.695 c 1
 274.345 202.849 267.565 181.001 267.565 159.155 c 0
 267.565 141.829 272.085 124.879 281.125 108.305 c 0
155.695 425.835 m 0
 173.021 425.835 187.711 431.861 199.765 443.915 c 0
 211.065 454.461 216.715 469.151 216.715 487.985 c 0
 216.715 505.312 211.818 519.249 202.025 529.795 c 0
 189.972 541.849 174.528 547.875 155.695 547.875 c 0
 139.121 547.875 124.809 541.849 112.755 529.795 c 0
 101.455 519.249 95.8047 505.312 95.8047 487.985 c 0
 95.8047 469.151 101.455 454.461 112.755 443.915 c 0
 124.809 431.861 139.121 425.835 155.695 425.835 c 0
EndSplineSet
MinimumDistance: x6,-1 
EndChar
StartChar: uni0E07
Encoding: 167 3591
OldEncoding: 3591
Width: 641
Flags: W
HStem: 490.635 92.66<368 370> 706.465 94.92<368 385>
VStem: 213.67 97.18<632 655> 396.73 134.47<120 492> 431.76 99.44<632 655>
DStem: -11.2002 492.895 96.1504 562.955 248.7 53.3252 174.12 430.745 -11.2002 492.895 174.12 430.745 248.7 53.3252 290.51 236.385
Fore
370.74 801.385 m 0
 416.693 801.385 455.49 787.448 487.13 759.575 c 1
 516.51 729.441 531.2 694.035 531.2 653.355 c 2
 531.2 113.215 l 2
 531.2 71.7812 518.017 38.6348 491.65 13.7754 c 1
 462.27 -10.332 428.37 -22.3848 389.95 -22.3848 c 0
 325.164 -22.3848 278.08 2.85156 248.7 53.3252 c 2
 -11.2002 492.895 l 1
 96.1504 562.955 l 1
 174.12 430.745 l 1
 290.51 236.385 l 1
 352.66 125.645 l 1
 363.96 103.799 374.13 92.875 383.17 92.875 c 0
 392.21 92.875 396.73 107.565 396.73 136.945 c 2
 396.73 492.895 l 1
 389.95 492.895 l 1
 370.74 490.635 l 1
 326.294 490.635 287.874 506.079 255.48 536.965 c 1
 227.606 567.099 213.67 603.259 213.67 645.445 c 0
 213.67 688.385 227.606 724.921 255.48 755.055 c 0
 284.86 785.941 323.28 801.385 370.74 801.385 c 0
370.74 583.295 m 0
 390.326 583.295 405.017 589.321 414.81 601.375 c 0
 426.11 612.675 431.76 627.365 431.76 645.445 c 0
 431.76 664.278 426.11 678.969 414.81 689.515 c 1
 406.523 700.815 391.834 706.465 370.74 706.465 c 0
 355.674 706.465 340.983 700.062 326.67 687.255 c 0
 316.124 676.709 310.85 662.771 310.85 645.445 c 0
 310.85 627.365 316.124 612.675 326.67 601.375 c 0
 340.23 589.321 354.92 583.295 370.74 583.295 c 0
EndSplineSet
MinimumDistance: x2,-1 
EndChar
StartChar: uni0E08
Encoding: 168 3592
OldEncoding: 3592
Width: 755
Flags: W
HStem: -9.60547 97.1807<494 500> 235.605 94.92<231 245.369> 450.305 94.92<225 243> 690.995 109.61<309 357>
VStem: 75.4648 94.9202<378.736 392> 510.515 134.47<127 551>
Fore
644.985 156.505 m 2
 644.985 87.9512 631.049 43.1279 603.175 22.0352 c 0
 577.562 0.941406 542.909 -9.60547 499.215 -9.60547 c 0
 462.302 -9.60547 432.169 -0.56543 408.815 17.5146 c 0
 384.709 34.0879 367.005 61.9619 355.705 101.135 c 1
 330.845 200.575 l 1
 311.635 260.465 l 1
 310.881 258.205 303.349 252.932 289.035 244.645 c 0
 276.981 238.619 257.771 235.605 231.405 235.605 c 0
 179.425 237.865 141.381 253.309 117.275 281.935 c 1
 89.4014 312.068 75.4648 348.229 75.4648 390.415 c 0
 75.4648 430.342 89.4014 466.501 117.275 498.895 c 0
 143.642 529.781 181.685 545.225 231.405 545.225 c 0
 312.765 545.225 365.499 509.818 389.605 439.005 c 0
 391.111 435.991 392.241 432.979 392.995 429.965 c 2
 481.135 116.955 l 1
 483.395 97.3682 488.669 87.5752 496.955 87.5752 c 0
 505.995 87.5752 510.515 101.512 510.515 129.385 c 2
 510.515 536.185 l 2
 510.515 592.685 493.565 632.235 459.665 654.835 c 0
 426.519 678.941 384.331 690.995 333.105 690.995 c 0
 237.432 690.995 155.695 648.055 87.8945 562.175 c 1
 2.01465 624.325 l 1
 73.5811 741.845 185.451 800.605 337.625 800.605 c 0
 426.519 800.605 500.345 778.005 559.105 732.805 c 0
 616.358 689.865 644.985 625.831 644.985 540.705 c 2
 644.985 156.505 l 2
231.405 330.525 m 0
 250.991 330.525 266.435 335.799 277.735 346.345 c 1
 286.775 357.645 291.295 372.335 291.295 390.415 c 0
 291.295 408.495 286.775 423.185 277.735 434.485 c 1
 266.435 445.031 250.991 450.305 231.405 450.305 c 0
 211.818 450.305 197.129 444.278 187.335 432.225 c 0
 176.035 420.925 170.385 406.988 170.385 390.415 c 0
 170.385 373.842 176.035 359.905 187.335 348.605 c 0
 199.389 336.552 214.079 330.525 231.405 330.525 c 0
EndSplineSet
MinimumDistance: x0,-1 
EndChar
StartChar: uni0E09
Encoding: 169 3593
OldEncoding: 3593
Width: 867
Flags: W
HStem: -0.43457 21G<159.05 289> 439.135 94.92<136 152> 695.645 109.61<350 384>
VStem: -16.0996 97.1797<366 384> 200.86 92.661<366 384> 553.42 133.34<111 256 356 560> 745.521 91.529<152 154 154.413 165.664 165.695 183.146>
Fore
138.71 534.055 m 0
 180.896 534.055 217.057 520.871 247.19 494.505 c 0
 278.076 469.645 293.521 436.499 293.521 395.065 c 2
 293.521 207.485 l 1
 320.641 245.905 358.684 277.545 407.65 302.405 c 1
 452.851 328.019 501.44 346.475 553.42 357.775 c 1
 553.42 538.575 l 2
 553.42 590.555 537.977 630.105 507.09 657.225 c 0
 476.204 682.839 429.12 695.645 365.84 695.645 c 0
 325.914 695.645 285.61 682.839 244.931 657.225 c 0
 206.51 631.611 171.856 600.725 140.971 564.565 c 1
 50.5703 626.715 l 1
 83.7168 676.435 129.294 719.751 187.3 756.665 c 1
 243.8 789.059 307.08 805.255 377.141 805.255 c 0
 471.307 805.255 547.017 781.901 604.271 735.195 c 1
 659.264 686.981 686.76 622.195 686.76 540.835 c 2
 686.76 357.775 l 1
 735.727 348.735 773.017 325.759 798.63 288.845 c 0
 827.257 245.905 840.063 201.081 837.05 154.375 c 1
 837.05 103.148 821.984 62.4688 791.851 32.335 c 0
 761.717 -0.0585938 724.427 -16.2549 679.98 -16.2549 c 0
 646.08 -16.2549 616.7 -6.46191 591.84 13.125 c 0
 566.227 34.9717 553.42 67.3652 553.42 110.305 c 2
 553.42 258.335 l 1
 483.36 241.009 423.094 207.108 372.62 156.635 c 0
 323.654 107.668 295.78 55.3115 289 -0.43457 c 1
 159.05 -0.43457 l 1
 159.05 226.695 l 1
 150.01 224.435 l 1
 138.71 222.175 l 1
 90.4961 224.435 52.8301 240.631 25.71 270.765 c 0
 -2.16309 299.392 -16.0996 334.799 -16.0996 376.985 c 0
 -16.0996 416.911 -2.16309 453.071 25.71 485.465 c 0
 52.8301 517.858 90.4961 534.055 138.71 534.055 c 0
745.521 165.675 m 0
 745.521 190.535 739.87 211.629 728.57 228.955 c 0
 718.024 244.021 704.087 253.815 686.76 258.335 c 1
 686.76 112.565 l 1
 689.021 92.9785 695.424 83.1846 705.971 83.1846 c 1
 712.75 85.4453 719.53 89.9648 726.311 96.7451 c 1
 739.87 131.775 l 1
 743.637 144.581 745.521 155.881 745.521 165.675 c 0
140.971 317.095 m 0
 159.804 317.095 175.246 323.121 187.3 335.175 c 1
 196.34 346.475 200.86 361.165 200.86 379.245 c 0
 200.86 397.325 196.34 412.015 187.3 423.315 c 0
 176.754 433.861 161.311 439.135 140.971 439.135 c 0
 123.644 439.135 108.954 433.108 96.9004 421.055 c 0
 86.3535 409.755 81.0801 395.818 81.0801 379.245 c 0
 81.0801 361.919 86.3535 347.981 96.9004 337.435 c 0
 108.2 323.875 122.891 317.095 140.971 317.095 c 0
EndSplineSet
MinimumDistance: x18,-1 
EndChar
StartChar: uni0E0A
Encoding: 170 3594
OldEncoding: 3594
Width: 799
Flags: W
HStem: -4.13965 119.78<190 277 412 512> 439.95 97.18<157 163>
VStem: -0.240234 101.7<585 604> 222.37 97.18<585 604> 277.74 134.47<116 364> 555.72 133.34<170 474>
Fore
372.66 587.98 m 0
 374.92 624.14 365.504 652.014 344.41 671.6 c 1
 327.084 691.187 307.12 702.11 284.52 704.37 c 1
 286.78 702.11 294.313 689.68 307.12 667.08 c 1
 315.406 644.48 319.55 623.01 319.55 602.67 c 0
 319.55 556.717 305.613 517.92 277.74 486.28 c 0
 248.36 455.394 208.81 439.95 159.09 439.95 c 0
 114.644 439.95 76.2236 455.394 43.8301 486.28 c 0
 14.4502 515.66 -0.240234 554.456 -0.240234 602.67 c 0
 -0.240234 641.09 12.1904 674.99 37.0498 704.37 c 1
 59.6504 733.75 89.0303 756.727 125.19 773.3 c 0
 162.104 790.626 196.756 799.29 229.15 799.29 c 0
 287.91 799.29 339.514 786.86 383.96 762 c 0
 429.16 736.387 457.786 705.5 469.84 669.34 c 1
 488.674 669.34 518.807 681.017 560.24 704.37 c 1
 601.674 724.71 644.613 773.3 689.06 850.14 c 1
 786.24 786.86 l 1
 764.394 734.88 735.39 695.706 699.23 669.34 c 0
 666.084 645.233 638.964 629.036 617.87 620.75 c 1
 629.924 615.477 645.366 601.54 664.2 578.94 c 1
 680.773 555.586 689.06 516.414 689.06 461.42 c 2
 689.06 146.15 l 2
 689.06 103.21 684.54 70.8164 675.5 48.9697 c 0
 665.706 27.877 649.51 13.9404 626.91 7.16016 c 0
 602.05 -0.373047 566.644 -4.13965 520.69 -4.13965 c 2
 180.56 -4.13965 l 1
 180.56 115.64 l 1
 277.74 115.64 l 1
 277.74 356.33 l 2
 277.74 379.684 281.506 400.776 289.04 419.61 c 0
 296.573 437.69 308.25 456.146 324.07 474.98 c 1
 357.97 523.57 l 1
 367.764 540.144 372.66 561.613 372.66 587.98 c 0
161.35 537.13 m 0
 179.43 537.13 194.12 543.533 205.42 556.34 c 0
 216.72 566.887 222.37 580.446 222.37 597.02 c 0
 222.37 615.854 216.72 630.544 205.42 641.09 c 0
 194.874 652.39 180.184 658.04 161.35 658.04 c 0
 144.023 658.04 129.71 651.637 118.41 638.83 c 0
 107.11 628.283 101.46 614.347 101.46 597.02 c 0
 101.46 580.446 107.11 566.887 118.41 556.34 c 0
 129.71 543.533 144.023 537.13 161.35 537.13 c 0
483.4 572.16 m 1
 481.14 537.506 477.374 515.283 472.1 505.49 c 0
 463.813 487.41 455.15 473.474 446.11 463.68 c 1
 438.576 452.38 430.29 436.184 421.25 415.09 c 0
 415.224 400.023 412.21 375.916 412.21 342.77 c 2
 412.21 115.64 l 1
 490.18 115.64 l 2
 518.807 115.64 537.264 119.784 545.55 128.07 c 0
 552.33 135.604 555.72 154.06 555.72 183.44 c 2
 555.72 448.99 l 2
 555.72 497.204 546.304 529.597 527.47 546.17 c 1
 511.65 563.496 496.96 572.16 483.4 572.16 c 1
EndSplineSet
MinimumDistance: x15,-1 y25,27 x27,25 x27,26 
EndChar
StartChar: uni0E0B
Encoding: 171 3595
OldEncoding: 3595
Width: 847
Flags: W
HStem: -4.13965 119.78<229 325 466 556> 338.25 92.66<138 156> 551.82 91.53<138 156>
VStem: 202.25 97.18<478.655 490.787 490.819 499> 325.42 134.47<116 370> 605.66 133.34<170 470>
Fore
369.49 806.07 m 1
 398.87 803.81 432.017 788.366 468.93 759.74 c 0
 504.336 731.113 524.3 700.98 528.82 669.34 c 1
 550.666 672.354 579.294 685.536 614.7 708.89 c 1
 651.613 729.983 692.294 777.066 736.74 850.14 c 1
 836.18 786.86 l 1
 813.58 733.374 785.33 694.2 751.43 669.34 c 0
 718.284 645.233 691.164 629.036 670.07 620.75 c 1
 682.124 616.23 696.813 602.294 714.14 578.94 c 1
 730.714 552.573 739 513.4 739 461.42 c 2
 739 146.15 l 2
 739 83.623 728.454 42.9434 707.36 24.1104 c 0
 684.006 5.27637 638.43 -4.13965 570.63 -4.13965 c 2
 228.24 -4.13965 l 1
 228.24 115.64 l 1
 325.42 115.64 l 1
 325.42 368.76 l 2
 325.42 392.866 329.187 413.584 336.72 430.91 c 1
 346.514 447.483 358.943 463.68 374.01 479.5 c 1
 411.3 528.09 l 1
 419.586 542.403 424.86 562.366 427.12 587.98 c 1
 427.12 619.62 424.106 642.974 418.08 658.04 c 0
 412.054 671.6 398.87 685.16 378.53 698.72 c 1
 378.53 699.85 l 1
 374.01 702.11 l 1
 270.05 651.26 l 1
 160.44 702.11 l 1
 134.073 697.59 114.863 686.666 102.81 669.34 c 0
 90.0039 651.26 82.4697 637.323 80.21 627.53 c 1
 83.9766 631.296 90.0039 634.31 98.29 636.57 c 0
 107.33 641.09 123.526 643.35 146.88 643.35 c 0
 175.506 643.35 202.626 636.57 228.24 623.01 c 0
 250.086 610.956 267.036 594.006 279.09 572.16 c 0
 292.65 548.054 299.43 523.193 299.43 497.58 c 0
 301.69 454.64 287.754 416.974 257.62 384.58 c 0
 230.5 353.693 193.586 338.25 146.88 338.25 c 0
 87.3662 338.25 41.79 357.46 10.1504 395.88 c 1
 -20.7363 437.313 -36.1797 485.903 -36.1797 541.65 c 1
 -31.6602 604.93 l 1
 -23.373 646.363 -7.17676 681.77 16.9297 711.15 c 0
 44.8037 742.79 73.4297 766.52 102.81 782.34 c 0
 133.696 798.16 159.31 806.07 179.65 806.07 c 1
 270.05 757.48 l 1
 332.2 786.86 l 1
 369.49 806.07 l 1
531.08 572.16 m 1
 528.82 545.794 524.3 525.83 517.52 512.27 c 0
 509.986 493.437 501.323 478.746 491.53 468.2 c 1
 468.93 417.35 l 1
 462.903 400.023 459.89 375.164 459.89 342.77 c 2
 459.89 115.64 l 1
 537.86 115.64 l 2
 566.486 115.64 584.943 119.784 593.23 128.07 c 0
 601.517 137.863 605.66 156.32 605.66 183.44 c 2
 605.66 448.99 l 2
 605.66 497.956 595.49 530.35 575.15 546.17 c 1
 559.33 563.496 544.64 572.16 531.08 572.16 c 1
142.36 430.91 m 0
 161.193 430.91 176.637 436.937 188.69 448.99 c 1
 197.73 461.796 202.25 475.733 202.25 490.8 c 0
 202.25 508.88 197.73 523.57 188.69 534.87 c 1
 177.39 546.17 161.946 551.82 142.36 551.82 c 0
 125.786 551.82 111.097 545.416 98.29 532.61 c 0
 87.7441 522.063 82.4697 508.126 82.4697 490.8 c 0
 82.4697 474.227 87.7441 460.29 98.29 448.99 c 0
 110.344 436.937 125.034 430.91 142.36 430.91 c 0
EndSplineSet
MinimumDistance: x9,-1 y13,15 x15,13 x15,14 
EndChar
StartChar: uni0E0C
Encoding: 172 3596
OldEncoding: 3596
Width: 1044
Flags: W
HStem: -14.125 84.75<208 230> -0.56543 21G<800.35 934.82> 196.055 85.88<209 230> 765.915 20G<800.35 934.82>
VStem: 69.2402 84.7498<125 139> 281.68 83.62<125 146> 392.42 74.58<125 146> 499.77 133.34<292 591> 520.11 113<77 181> 800.35 134.47<185 783>
Fore
633.11 92.0947 m 2
 633.11 61.208 623.316 35.5947 603.73 15.2549 c 0
 583.39 -4.33203 553.256 -14.125 513.33 -14.125 c 0
 473.403 -14.125 443.27 -0.188477 422.93 27.6846 c 0
 402.59 54.8047 392.42 90.9648 392.42 136.165 c 0
 392.42 173.079 401.084 206.979 418.41 237.865 c 0
 434.983 264.231 462.104 282.688 499.77 293.235 c 1
 499.77 591.555 l 2
 499.77 628.469 485.08 657.095 455.7 677.435 c 0
 426.32 697.021 386.017 707.945 334.79 710.205 c 0
 310.684 710.205 280.55 704.555 244.39 693.255 c 0
 202.956 681.201 174.706 665.005 159.64 644.665 c 1
 180.733 640.898 203.71 634.871 228.57 626.585 c 0
 261.716 616.791 291.097 602.102 316.71 582.515 c 1
 316.71 518.105 l 1
 291.097 518.105 266.236 510.195 242.13 494.375 c 0
 218.023 479.309 205.97 444.655 205.97 390.415 c 2
 205.97 279.675 l 1
 210.49 281.935 l 1
 217.27 281.935 l 2
 248.91 281.935 275.653 274.778 297.5 260.465 c 0
 320.854 245.398 337.804 226.941 348.35 205.095 c 0
 359.65 184.755 365.3 161.025 365.3 133.905 c 0
 365.3 107.538 359.65 83.4316 348.35 61.585 c 0
 337.05 38.9854 320.1 20.5283 297.5 6.21484 c 0
 274.9 -7.34473 248.156 -14.125 217.27 -14.125 c 0
 169.057 -14.125 132.896 0.56543 108.79 29.9453 c 1
 82.4238 57.8184 69.2402 93.2246 69.2402 136.165 c 2
 69.2402 381.375 l 2
 69.2402 427.329 74.5137 461.981 85.0596 485.335 c 0
 96.3604 511.701 115.57 533.925 142.69 552.005 c 1
 129.13 558.785 110.674 565.188 87.3203 571.215 c 0
 54.9268 580.255 25.5469 585.528 -0.820312 587.035 c 1
 -0.820312 631.105 l 1
 15.7529 658.225 54.5498 694.385 115.57 739.585 c 0
 175.084 783.278 259.08 805.125 367.56 805.125 c 0
 421.8 805.125 465.116 797.215 497.51 781.395 c 0
 535.177 764.068 561.92 744.858 577.74 723.765 c 0
 598.834 698.151 612.77 672.539 619.55 646.925 c 0
 628.59 619.805 633.11 594.568 633.11 571.215 c 2
 633.11 286.455 l 1
 661.736 279.675 688.104 267.999 712.21 251.425 c 0
 745.356 231.085 765.32 217.901 772.1 211.875 c 0
 785.66 201.329 795.076 192.289 800.35 184.755 c 1
 800.35 785.915 l 1
 934.82 785.915 l 1
 934.82 -0.56543 l 1
 800.35 -0.56543 l 1
 789.05 25.0488 769.84 58.9482 742.72 101.135 c 1
 711.08 144.829 674.544 171.948 633.11 182.495 c 1
 633.11 92.0947 l 2
219.53 70.625 m 0
 230.076 70.625 241.754 74.0146 254.56 80.7949 c 1
 264.354 88.3281 271.134 95.8613 274.9 103.395 c 0
 279.42 112.435 281.68 122.605 281.68 133.905 c 0
 281.68 154.245 276.406 169.688 265.86 180.235 c 0
 255.313 190.781 239.87 196.055 219.53 196.055 c 0
 200.696 196.055 185.254 190.028 173.2 177.975 c 0
 160.394 163.661 153.99 148.972 153.99 133.905 c 0
 153.99 118.839 160.394 104.901 173.2 92.0947 c 0
 185.254 77.7812 200.696 70.625 219.53 70.625 c 0
520.11 78.5352 m 1
 520.11 205.095 l 1
 499.77 202.835 485.834 195.302 478.3 182.495 c 0
 470.767 169.688 467 151.231 467 127.125 c 0
 467 110.552 471.52 96.6152 480.56 85.3154 c 1
 488.094 72.5088 496.756 66.1055 506.55 66.1055 c 0
 513.33 66.1055 517.85 70.248 520.11 78.5352 c 1
EndSplineSet
MinimumDistance: x45,-1 
EndChar
StartChar: uni0E0D
Encoding: 173 3597
OldEncoding: 3597
Width: 1044
Flags: W
HStem: -99.1553 84.75<531 545> -43.4453 20G<798.09 930.3> 7.06543 84.75<208 230> 20.625 119.78<423 498 632 756> 217.245 85.88<209 230>
VStem: 69.2402 84.7498<149 159> 281.68 83.62<149 170> 392.42 88.14<-162.381 -149.454> 499.77 133.34<140 612> 608.25 81.36<-171 -153> 800.35 134.47<181 807>
Fore
934.82 807.105 m 1
 934.82 170.915 l 2
 934.82 130.235 928.416 97.8418 915.61 73.7354 c 0
 904.31 52.6416 885.1 38.7051 857.98 31.9248 c 0
 830.106 24.3916 792.44 20.625 744.98 20.625 c 2
 422.93 20.625 l 1
 422.93 140.405 l 1
 499.77 140.405 l 1
 499.77 612.745 l 2
 499.77 649.658 485.08 678.285 455.7 698.625 c 0
 426.32 718.211 386.017 729.135 334.79 731.395 c 0
 310.684 731.395 280.55 725.745 244.39 714.445 c 0
 202.956 702.392 174.706 686.195 159.64 665.855 c 1
 180.733 662.089 203.71 656.062 228.57 647.775 c 0
 261.716 637.981 291.097 623.291 316.71 603.705 c 1
 316.71 539.295 l 1
 291.097 539.295 266.236 531.385 242.13 515.565 c 0
 218.023 500.499 205.97 465.845 205.97 411.605 c 2
 205.97 300.865 l 1
 210.49 303.125 l 1
 217.27 303.125 l 2
 248.91 303.125 275.653 295.969 297.5 281.655 c 0
 320.854 266.589 337.804 248.131 348.35 226.285 c 0
 359.65 205.945 365.3 182.215 365.3 155.095 c 0
 365.3 128.729 359.65 104.622 348.35 82.7754 c 0
 337.05 60.1748 320.1 41.7188 297.5 27.4053 c 0
 274.9 13.8447 248.156 7.06543 217.27 7.06543 c 0
 169.057 7.06543 132.896 21.7549 108.79 51.1348 c 1
 82.4238 79.0088 69.2402 114.415 69.2402 157.355 c 2
 69.2402 402.565 l 2
 69.2402 448.519 74.5137 483.171 85.0596 506.525 c 0
 96.3604 532.892 115.57 555.115 142.69 573.195 c 1
 129.13 579.975 110.674 586.379 87.3203 592.405 c 0
 55.6797 601.445 26.2998 606.719 -0.820312 608.225 c 1
 -0.820312 652.295 l 1
 15.7529 679.415 54.5498 715.575 115.57 760.775 c 0
 175.084 804.469 259.08 826.315 367.56 826.315 c 0
 421.8 826.315 465.116 818.405 497.51 802.585 c 0
 535.177 785.259 561.92 766.049 577.74 744.955 c 0
 598.834 719.342 612.77 693.729 619.55 668.115 c 0
 628.59 640.995 633.11 615.759 633.11 592.405 c 2
 633.11 140.405 l 1
 744.98 140.405 l 2
 769.086 140.405 785.284 144.549 793.57 152.835 c 1
 798.09 159.615 800.35 178.071 800.35 208.205 c 2
 800.35 807.105 l 1
 934.82 807.105 l 1
665.88 -246.055 m 1
 693 -246.055 722.38 -232.119 754.02 -204.245 c 1
 783.4 -174.865 798.09 -114.599 798.09 -23.4453 c 1
 930.3 -23.4453 l 1
 930.3 -108.571 915.61 -176.371 886.23 -226.845 c 0
 855.344 -278.071 818.054 -312.725 774.36 -330.805 c 1
 732.927 -351.145 686.597 -361.315 635.37 -361.315 c 0
 592.43 -361.315 557.776 -356.041 531.41 -345.495 c 0
 478.677 -326.661 442.517 -302.555 422.93 -273.175 c 0
 400.33 -239.275 390.16 -202.361 392.42 -162.435 c 0
 392.42 -123.262 406.356 -88.6084 434.23 -58.4746 c 1
 459.09 -29.0947 495.626 -14.4053 543.84 -14.4053 c 0
 592.807 -14.4053 629.72 -29.0947 654.58 -58.4746 c 0
 677.934 -88.6084 689.61 -124.015 689.61 -164.695 c 0
 689.61 -199.349 681.7 -226.469 665.88 -246.055 c 1
543.84 -224.585 m 0
 562.674 -224.585 578.87 -218.559 592.43 -206.505 c 0
 602.977 -195.205 608.25 -180.515 608.25 -162.435 c 0
 608.25 -143.602 602.977 -128.911 592.43 -118.365 c 0
 578.116 -105.559 561.92 -99.1553 543.84 -99.1553 c 0
 525.76 -99.1553 510.316 -105.559 497.51 -118.365 c 0
 486.21 -128.911 480.56 -143.602 480.56 -162.435 c 0
 480.56 -179.009 486.964 -193.698 499.77 -206.505 c 0
 511.823 -218.559 526.514 -224.585 543.84 -224.585 c 0
219.53 91.8154 m 0
 230.076 91.8154 241.754 95.2051 254.56 101.985 c 1
 264.354 109.519 271.134 117.052 274.9 124.585 c 0
 279.42 133.625 281.68 143.795 281.68 155.095 c 0
 281.68 175.435 276.406 190.879 265.86 201.425 c 0
 255.313 211.972 239.87 217.245 219.53 217.245 c 0
 200.696 217.245 185.254 211.219 173.2 199.165 c 0
 160.394 184.852 153.99 170.161 153.99 155.095 c 0
 153.99 140.028 160.394 126.092 173.2 113.285 c 0
 185.254 98.9717 200.696 91.8154 219.53 91.8154 c 0
EndSplineSet
MinimumDistance: x0,-1 x7,5 x7,6 
EndChar
StartChar: uni0E0E
Encoding: 174 3598
OldEncoding: 3598
Width: 880
Flags: W
HStem: -357.043 114.131<240 242 242.444 269.362> -127.652 113<270.694 293> 226.037 88.141<127 152> 724.367 101.7<421 466>
VStem: -14.1104 88.1407<153 171> 78.5498 108.48<-194 -186> 207.37 85.88<153 171> 635.64 134.47<-173 575>
Fore
509.08 -88.1025 m 1
 556.54 -115.223 582.53 -130.666 587.05 -134.433 c 2
 635.64 -173.982 l 1
 635.64 554.867 l 2
 635.64 609.861 617.184 652.424 580.27 682.558 c 0
 544.11 710.432 498.534 724.367 443.54 724.367 c 0
 411.9 724.367 378.754 718.718 344.1 707.417 c 0
 310.2 698.377 278.56 683.688 249.18 663.348 c 1
 316.98 647.527 l 2
 343.347 641.501 372.35 626.812 403.99 603.457 c 1
 403.99 539.048 l 1
 379.884 539.048 356.153 531.138 332.8 515.317 c 0
 306.434 499.497 293.25 464.844 293.25 411.357 c 2
 293.25 161.628 l 2
 293.25 115.674 280.066 78.7607 253.7 50.8877 c 1
 230.347 22.2607 192.68 6.81738 140.7 4.55762 c 1
 88.7197 6.81738 51.0537 22.2607 27.7002 50.8877 c 1
 -0.173828 79.5137 -14.1104 114.921 -14.1104 157.107 c 0
 -14.1104 202.308 -0.173828 239.221 27.7002 267.848 c 1
 52.5596 298.733 90.2266 314.178 140.7 314.178 c 2
 152 314.178 l 1
 156.52 311.917 l 1
 156.52 402.317 l 2
 156.52 446.011 162.924 480.664 175.73 506.277 c 0
 187.784 533.397 206.24 555.621 231.1 572.947 c 1
 219.046 578.974 200.59 585.377 175.73 592.157 c 0
 141.83 601.197 111.696 606.471 85.3301 607.978 c 1
 85.3301 652.048 l 1
 114.71 687.077 l 2
 129.023 702.897 151.624 722.107 182.51 744.707 c 0
 216.41 768.062 254.076 787.271 295.51 802.338 c 0
 338.45 818.157 391.56 826.067 454.84 826.067 c 0
 517.366 826.067 571.606 815.897 617.56 795.558 c 1
 665.773 777.478 702.687 748.098 728.3 707.417 c 1
 756.174 668.244 770.11 621.161 770.11 566.167 c 2
 770.11 -357.043 l 1
 635.64 -357.043 l 1
 604 -311.843 573.113 -277.942 542.98 -255.343 c 0
 509.834 -228.223 486.104 -210.519 471.79 -202.232 c 1
 453.71 -245.173 425.836 -281.333 388.17 -310.713 c 0
 343.724 -343.858 295.134 -359.303 242.4 -357.043 c 0
 199.46 -357.043 161.04 -340.093 127.14 -306.192 c 1
 94.7461 -276.059 78.5498 -235.756 78.5498 -185.282 c 0
 80.8096 -133.303 99.2666 -92.6221 133.92 -63.2422 c 0
 168.573 -33.1094 214.15 -16.9121 270.65 -14.6523 c 0
 305.304 -14.6523 348.244 -22.9395 399.47 -39.5127 c 1
 409.64 -2.22266 l 1
 423.2 64.4473 l 1
 536.2 38.457 l 1
 524.9 -32.7324 l 1
 509.08 -88.1025 l 1
140.7 91.5674 m 0
 161.04 91.5674 177.236 98.7236 189.29 113.037 c 0
 201.344 127.351 207.37 142.794 207.37 159.367 c 0
 207.37 178.954 202.097 195.151 191.55 207.957 c 0
 179.496 220.011 162.546 226.037 140.7 226.037 c 0
 120.36 226.037 104.164 220.011 92.1104 207.957 c 0
 80.0566 193.644 74.0303 177.447 74.0303 159.367 c 0
 74.0303 142.794 80.0566 127.351 92.1104 113.037 c 0
 104.164 98.7236 120.36 91.5674 140.7 91.5674 c 0
293.25 -233.873 m 1
 317.356 -223.326 335.06 -208.637 346.36 -189.803 c 0
 358.414 -172.477 365.57 -158.916 367.83 -149.122 c 1
 338.45 -134.809 306.81 -127.652 272.91 -127.652 c 0
 246.544 -127.652 225.45 -133.679 209.63 -145.732 c 0
 194.563 -157.786 187.03 -173.229 187.03 -192.062 c 1
 191.55 -213.532 l 1
 198.33 -233.119 218.294 -242.912 251.44 -242.912 c 0
 271.026 -242.912 284.964 -239.898 293.25 -233.873 c 1
EndSplineSet
MinimumDistance: x34,-1 
EndChar
StartChar: uni0E0F
Encoding: 175 3599
OldEncoding: 3599
Width: 880
Flags: W
HStem: -359.185 99.44<200 224> -158.045 97.1798<205 226> 226.155 88.14<129 146> 724.485 101.7<430 468>
VStem: -14.1104 80.2305<151 169> 200.59 92.66<151 169> 635.64 134.47<-178 575>
Fore
555.41 -97.0254 m 1
 635.64 -178.385 l 1
 635.64 554.985 l 2
 635.64 609.979 617.184 652.541 580.27 682.675 c 0
 544.11 710.549 498.534 724.485 443.54 724.485 c 0
 411.9 724.485 378.754 718.835 344.1 707.535 c 0
 310.2 698.495 278.56 683.805 249.18 663.465 c 1
 316.98 647.645 l 2
 343.347 641.619 372.35 626.929 403.99 603.575 c 1
 403.99 539.165 l 1
 379.884 539.165 356.153 531.255 332.8 515.435 c 0
 306.434 499.615 293.25 464.961 293.25 411.475 c 2
 293.25 161.745 l 2
 293.25 115.792 280.066 78.8779 253.7 51.0049 c 1
 230.347 22.3779 192.68 6.93457 140.7 4.6748 c 1
 88.7197 6.93457 51.0537 22.3779 27.7002 51.0049 c 1
 -0.173828 79.6318 -14.1104 115.038 -14.1104 157.225 c 0
 -14.1104 202.425 -0.173828 239.339 27.7002 267.965 c 1
 52.5596 298.852 90.2266 314.295 140.7 314.295 c 2
 152 314.295 l 1
 156.52 312.035 l 1
 156.52 402.435 l 2
 156.52 446.129 162.924 480.781 175.73 506.395 c 0
 187.784 533.515 206.24 555.738 231.1 573.065 c 1
 219.046 579.092 200.59 585.495 175.73 592.275 c 0
 141.83 601.315 111.696 606.589 85.3301 608.095 c 1
 85.3301 652.165 l 1
 114.71 687.195 l 2
 129.023 703.015 151.624 722.225 182.51 744.825 c 0
 216.41 768.179 254.076 787.389 295.51 802.455 c 0
 338.45 818.275 391.56 826.185 454.84 826.185 c 0
 517.366 826.185 571.606 816.015 617.56 795.675 c 1
 665.773 777.595 702.687 748.215 728.3 707.535 c 1
 756.174 668.361 770.11 621.278 770.11 566.285 c 2
 770.11 -356.925 l 1
 642.42 -356.925 l 1
 547.5 -242.795 l 1
 441.28 -356.925 l 1
 429.227 -331.312 416.044 -309.465 401.73 -291.385 c 0
 391.184 -277.825 379.884 -265.019 367.83 -252.965 c 1
 356.53 -275.565 341.086 -297.035 321.5 -317.375 c 0
 295.887 -345.249 257.844 -359.185 207.37 -359.185 c 0
 165.937 -359.185 132.79 -344.495 107.93 -315.115 c 0
 80.0566 -283.475 66.1201 -242.419 66.1201 -191.945 c 1
 70.6396 -150.512 87.5898 -118.119 116.97 -94.7646 c 0
 147.856 -72.165 182.887 -60.8652 222.06 -60.8652 c 0
 260.48 -60.8652 296.64 -71.4121 330.54 -92.5049 c 1
 336.566 -76.6846 342.594 -55.9688 348.62 -30.3555 c 0
 358.414 11.0781 364.063 41.2119 365.57 60.0449 c 1
 465.01 43.0947 l 1
 449.19 -51.8252 432.24 -118.871 414.16 -158.045 c 1
 432.24 -173.865 l 1
 452.58 -199.855 l 1
 518.12 -136.575 l 2
 542.98 -111.715 555.41 -98.5312 555.41 -97.0254 c 1
140.7 91.6846 m 1
 163.3 95.4512 178.744 103.361 187.03 115.415 c 0
 196.07 126.715 200.59 141.405 200.59 159.485 c 0
 200.59 179.071 195.316 195.269 184.77 208.075 c 0
 172.716 220.129 154.26 226.155 129.4 226.155 c 1
 109.813 223.895 94.3701 217.115 83.0703 205.815 c 0
 71.7695 193.762 66.1201 179.071 66.1201 161.745 c 0
 66.1201 141.405 73.2764 125.208 87.5898 113.155 c 1
 99.6436 98.8418 117.347 91.6846 140.7 91.6846 c 1
242.4 -252.965 m 0
 255.206 -246.938 266.884 -234.509 277.43 -215.675 c 1
 288.73 -189.685 l 1
 288.73 -189.685 l 1
 261.61 -168.591 237.88 -158.045 217.54 -158.045 c 0
 191.174 -158.045 173.094 -170.099 163.3 -194.205 c 1
 163.3 -237.898 179.496 -259.745 211.89 -259.745 c 0
 223.19 -259.745 233.36 -257.485 242.4 -252.965 c 0
EndSplineSet
MinimumDistance: x33,-1 
EndChar
StartChar: uni0E10
Encoding: 176 3600
OldEncoding: 3600
Width: 665
Flags: W
HStem: -417.751 81.359<48 50 50.5804 72.4918> -251.642 79.101<49 66> -88.9209 80.2295<421 427> 213.919 94.92<186 204> 428.619 97.18<194.077 204> 669.309 107.35<536 553.994> 730.329 99.44<258 293>
VStem: 39.2051 97.1799<365 371> 291.195 83.62<-148 -131> 476.515 77.97<-148 -131>
Fore
399.675 24.0791 m 1
 392.895 62.499 376.698 112.596 351.085 174.369 c 1
 328.485 234.635 315.302 264.769 311.535 264.769 c 1
 299.481 252.715 287.052 241.792 274.245 231.999 c 1
 254.659 219.945 227.915 213.919 194.015 213.919 c 0
 144.295 213.919 106.251 229.362 79.8848 260.249 c 0
 52.7646 291.135 39.2051 327.295 39.2051 368.729 c 0
 39.2051 411.669 52.7646 447.829 79.8848 477.209 c 0
 107.759 507.343 145.802 523.539 194.015 525.799 c 0
 237.709 525.799 273.115 517.513 300.235 500.938 c 0
 323.589 485.119 343.552 454.985 360.125 410.539 c 1
 390.635 341.608 l 1
 408.715 297.539 l 1
 408.715 406.019 l 2
 408.715 448.959 405.701 479.093 399.675 496.419 c 0
 392.142 516.005 381.972 529.188 369.165 535.969 c 0
 360.879 539.735 334.889 548.022 291.195 560.829 c 0
 212.849 581.169 158.608 593.599 128.475 598.119 c 2
 6.43457 616.199 l 1
 6.43457 667.049 l 1
 27.5283 698.688 51.2588 726.562 77.625 750.669 c 0
 107.759 778.542 137.892 797.752 168.025 808.299 c 1
 197.405 822.612 232.812 829.769 274.245 829.769 c 0
 315.679 829.769 365.398 821.105 423.405 803.778 c 0
 479.151 785.699 516.818 776.659 536.405 776.659 c 0
 562.019 776.659 591.398 783.438 624.545 796.999 c 0
 625.299 796.999 629.065 783.815 635.845 757.449 c 1
 647.145 690.778 l 1
 600.438 676.465 563.525 669.309 536.405 669.309 c 1
 481.035 673.829 l 1
 406.455 699.818 l 1
 330.745 722.419 l 2
 312.665 727.692 293.831 730.329 274.245 730.329 c 0
 254.659 730.329 234.695 725.433 214.355 715.639 c 0
 194.015 706.599 182.715 698.312 180.455 690.778 c 1
 269.725 677.219 l 1
 364.645 655.749 l 1
 448.265 632.395 498.361 604.522 514.935 572.129 c 0
 533.769 538.982 543.185 485.119 543.185 410.539 c 2
 543.185 24.0791 l 1
 399.675 24.0791 l 1
401.935 -322.831 m 1
 439.225 -297.972 l 1
 439.225 -269.722 l 1
 423.405 -271.981 l 1
 381.219 -271.981 348.825 -258.798 326.225 -232.432 c 1
 302.871 -208.325 291.195 -177.438 291.195 -139.771 c 0
 291.195 -102.857 303.625 -71.9717 328.485 -47.1113 c 0
 351.839 -21.498 383.479 -8.69141 423.405 -8.69141 c 0
 461.825 -8.69141 493.465 -20.7451 518.325 -44.8516 c 0
 542.432 -68.2051 554.485 -97.585 554.485 -132.991 c 2
 554.485 -271.981 l 2
 554.485 -295.335 547.705 -313.791 534.145 -327.352 c 1
 521.339 -343.925 504.389 -357.861 483.295 -369.161 c 2
 406.455 -413.231 l 1
 316.055 -362.381 l 1
 238.085 -410.972 l 1
 174.805 -348.821 l 1
 153.711 -397.035 112.278 -420.012 50.5049 -417.751 c 0
 19.6182 -417.751 -9.00879 -404.567 -35.375 -378.201 c 1
 -57.2217 -351.835 -68.1445 -320.947 -68.1445 -285.541 c 0
 -68.1445 -253.147 -54.208 -226.405 -26.335 -205.312 c 0
 0.03125 -183.465 30.165 -172.541 64.0654 -172.541 c 0
 96.459 -172.541 125.839 -183.465 152.205 -205.312 c 1
 163.505 -145.421 l 1
 168.025 -115.287 170.285 -80.2578 170.285 -40.3311 c 1
 258.425 -40.3311 l 1
 258.425 -88.5449 255.411 -130.355 249.385 -165.762 c 0
 242.605 -207.195 231.682 -242.602 216.615 -271.981 c 1
 253.905 -309.271 l 1
 286.675 -291.191 l 2
 306.262 -279.138 316.055 -271.981 316.055 -269.722 c 1
 401.935 -322.831 l 1
61.8047 -251.642 m 0
 45.2314 -251.642 33.5547 -256.161 26.7754 -265.201 c 0
 19.2412 -274.995 15.4746 -285.918 15.4746 -297.972 c 0
 15.4746 -323.585 30.918 -336.392 61.8047 -336.392 c 0
 78.3789 -336.392 92.3154 -329.611 103.615 -316.051 c 0
 113.409 -303.245 119.435 -292.321 121.695 -283.281 c 1
 117.175 -276.501 110.395 -269.722 101.355 -262.941 c 0
 88.5488 -255.407 75.3652 -251.642 61.8047 -251.642 c 0
425.665 -194.012 m 0
 440.731 -194.012 452.785 -188.361 461.825 -177.062 c 1
 471.619 -168.021 476.515 -156.345 476.515 -142.031 c 0
 476.515 -128.472 471.619 -116.418 461.825 -105.871 c 0
 453.539 -94.5713 441.485 -88.9209 425.665 -88.9209 c 0
 406.831 -88.9209 394.401 -94.5713 388.375 -105.871 c 1
 379.335 -117.171 374.815 -129.225 374.815 -142.031 c 0
 374.815 -156.345 379.335 -168.021 388.375 -177.062 c 1
 395.155 -188.361 407.585 -194.012 425.665 -194.012 c 0
196.275 308.839 m 0
 215.108 308.839 230.552 314.865 242.605 326.919 c 1
 251.645 338.973 256.165 352.909 256.165 368.729 c 0
 256.165 385.303 251.645 399.238 242.605 410.539 c 1
 230.552 422.593 215.108 428.619 196.275 428.619 c 0
 176.688 428.619 161.999 422.593 152.205 410.539 c 0
 141.659 399.992 136.385 386.055 136.385 368.729 c 0
 136.385 352.155 141.659 338.219 152.205 326.919 c 0
 164.259 314.865 178.948 308.839 196.275 308.839 c 0
EndSplineSet
MinimumDistance: x49,-1 
EndChar
StartChar: uni0E11
Encoding: 177 3601
OldEncoding: 3601
Width: 1027
Flags: W
HStem: -1.60547 21G<320.61 447.17 782.78 917.25> 340.785 92.66<131 149> 554.355 91.53<131 149> 683.175 106.22<751 755>
VStem: 195.18 94.92<482 500> 320.61 134.47<323 500> 417.79 108.48<647 659> 782.78 134.47<13 632>
DStem: 590.68 656.055 718.37 651.535 455.08 322.705 447.17 -1.60547
Fore
455.08 477.515 m 2
 455.08 322.705 l 1
 590.68 656.055 l 1
 613.28 706.528 632.866 741.182 649.44 760.015 c 0
 666.767 779.602 701.42 789.395 753.4 789.395 c 0
 825.72 789.395 871.296 773.198 890.13 740.805 c 0
 908.21 709.165 917.25 663.211 917.25 602.945 c 2
 917.25 -1.60547 l 1
 782.78 -1.60547 l 1
 782.78 592.775 l 2
 782.78 625.921 781.273 650.028 778.26 665.095 c 0
 776 674.135 768.466 680.161 755.66 683.175 c 1
 744.36 683.175 734.943 679.408 727.41 671.875 c 1
 718.37 651.535 l 1
 447.17 -1.60547 l 1
 320.61 -1.60547 l 1
 320.61 484.295 l 2
 320.61 549.835 344.34 595.411 391.8 621.025 c 1
 409.126 632.325 417.79 643.249 417.79 653.795 c 0
 417.79 668.861 400.84 685.812 366.94 704.645 c 1
 260.72 653.795 l 1
 151.11 704.645 l 1
 127.756 700.125 108.546 689.201 93.4805 671.875 c 1
 80.6738 653.795 73.1396 639.858 70.8799 630.065 c 1
 74.6465 633.831 80.6738 636.845 88.96 639.105 c 0
 100.26 643.625 116.456 645.885 137.55 645.885 c 0
 167.684 645.885 194.804 639.105 218.91 625.545 c 0
 241.51 614.245 259.214 597.295 272.02 574.695 c 0
 281.813 555.108 287.84 530.249 290.1 500.115 c 1
 290.1 454.915 276.164 417.249 248.29 387.115 c 0
 221.17 356.229 184.256 340.785 137.55 340.785 c 0
 78.0361 340.785 33.2129 359.241 3.08008 396.155 c 0
 -27.8066 435.329 -43.25 483.919 -43.25 541.925 c 0
 -43.25 566.031 -41.7432 587.879 -38.7305 607.465 c 0
 -30.4434 648.145 -14.2471 684.305 9.86035 715.945 c 1
 36.2266 746.831 64.8535 769.809 95.7402 784.875 c 0
 124.366 800.695 149.98 808.605 172.58 808.605 c 1
 260.72 760.015 l 1
 360.16 808.605 l 1
 400.086 801.825 437.754 783.369 473.16 753.235 c 0
 508.566 722.349 526.27 687.318 526.27 648.145 c 0
 526.27 630.818 524.01 616.505 519.49 605.205 c 1
 491.24 570.175 l 2
 482.954 560.381 473.914 547.198 464.12 530.625 c 0
 458.094 520.831 455.08 503.129 455.08 477.515 c 2
135.29 433.445 m 0
 154.124 433.445 169.566 439.472 181.62 451.525 c 1
 190.66 464.331 195.18 478.269 195.18 493.335 c 0
 195.18 511.415 190.66 526.105 181.62 537.405 c 1
 170.32 548.705 154.876 554.355 135.29 554.355 c 0
 118.716 554.355 104.026 547.951 91.2197 535.145 c 0
 80.6738 524.599 75.4004 510.661 75.4004 493.335 c 0
 75.4004 476.762 80.6738 462.825 91.2197 451.525 c 0
 103.273 439.472 117.964 433.445 135.29 433.445 c 0
EndSplineSet
MinimumDistance: x6,-1 
EndChar
StartChar: uni0E12
Encoding: 178 3602
OldEncoding: 3602
Width: 1082
Flags: W
HStem: -0.43457 21G<112.01 229.53 834.08 969.68> 513.715 94.92<319 337> 766.045 20G<836.34 969.68>
VStem: -15.6797 115.26<492 515> 171.9 97.18<449 457> 388.86 94.92<452 467> 428.41 76.84<114.069 138> 536.89 134.47<292 565> 556.1 115.26<77 182> 836.34 133.34<185 771>
Fore
204.67 163.415 m 1
 249.87 233.475 l 1
 296.2 300.145 l 1
 263.807 302.405 234.804 318.602 209.19 348.735 c 0
 184.33 378.115 171.9 413.521 171.9 454.955 c 0
 171.9 498.648 186.59 535.185 215.97 564.565 c 0
 245.35 593.945 283.017 608.635 328.97 608.635 c 0
 377.184 608.635 414.097 594.699 439.71 566.825 c 0
 469.09 532.171 483.78 494.129 483.78 452.695 c 0
 486.04 402.975 472.104 357.775 441.97 317.095 c 1
 229.53 -0.43457 l 1
 112.01 -0.43457 l 1
 112.01 76.4053 105.606 137.425 92.7998 182.625 c 1
 57.7695 253.815 l 2
 37.4297 293.741 18.9736 337.059 2.40039 383.765 c 1
 -9.65332 425.951 -15.6797 470.021 -15.6797 515.975 c 0
 -13.4199 580.009 13.7002 639.145 65.6797 693.385 c 1
 114.646 748.379 167.756 784.161 225.01 800.735 c 1
 350.44 747.625 l 1
 477 802.995 l 1
 556.1 763.821 607.704 725.778 631.81 688.865 c 1
 658.177 654.211 671.36 602.608 671.36 534.055 c 2
 671.36 286.585 l 1
 708.273 278.299 742.174 262.102 773.06 237.995 c 1
 836.34 184.885 l 1
 836.34 786.045 l 1
 969.68 786.045 l 1
 969.68 -0.43457 l 1
 834.08 -0.43457 l 1
 822.78 28.1914 803.946 62.0918 777.58 101.265 c 0
 749.706 144.205 714.3 171.325 671.36 182.625 c 1
 671.36 92.2246 l 2
 671.36 63.5986 660.813 37.9854 639.72 15.3848 c 0
 619.38 -4.20117 590 -13.9951 551.58 -13.9951 c 0
 511.653 -13.9951 481.52 -0.0585938 461.18 27.8154 c 0
 437.073 57.9482 426.15 94.1084 428.41 136.295 c 0
 428.41 172.455 437.826 206.355 456.66 237.995 c 0
 473.233 264.361 499.977 282.818 536.89 293.365 c 1
 536.89 552.135 l 2
 536.89 595.829 530.863 627.469 518.81 647.055 c 0
 507.51 665.889 491.313 681.331 470.22 693.385 c 1
 350.44 647.055 l 1
 225.01 693.385 l 1
 141.39 649.691 99.5801 589.049 99.5801 511.455 c 0
 99.5801 454.955 121.427 383.012 165.12 295.625 c 0
 178.68 267.751 189.227 239.125 196.76 209.745 c 1
 204.67 163.415 l 1
556.1 78.665 m 1
 556.1 205.225 l 1
 522.2 200.705 505.25 174.715 505.25 127.255 c 0
 505.25 112.188 509.017 98.252 516.55 85.4453 c 1
 527.097 72.6387 535.76 66.2354 542.54 66.2354 c 0
 549.32 66.2354 553.84 70.3779 556.1 78.665 c 1
328.97 390.545 m 0
 348.557 390.545 363.246 396.571 373.04 408.625 c 0
 383.586 419.925 388.86 434.615 388.86 452.695 c 0
 388.86 471.528 383.586 486.219 373.04 496.765 c 1
 364.754 508.065 350.063 513.715 328.97 513.715 c 0
 310.89 513.715 296.2 507.312 284.9 494.505 c 0
 274.354 483.959 269.08 470.021 269.08 452.695 c 0
 269.08 434.615 274.354 419.925 284.9 408.625 c 0
 296.954 396.571 311.644 390.545 328.97 390.545 c 0
EndSplineSet
MinimumDistance: x26,-1 
EndChar
StartChar: uni0E13
Encoding: 179 3603
OldEncoding: 3603
Width: 1073
Flags: W
HStem: -13.9951 84.75<199 221> -0.43457 21G<491.125 619.945> 196.185 85.88<200 221> 766.045 20G<791.705 926.175>
VStem: 60.5947 84.7503<126 144> 273.035 83.62<126 144> 491.125 133.34<245 591> 791.705 134.47<101 256 356 783> 983.805 92.655<152 180>
Fore
491.125 -0.43457 m 1
 491.125 591.685 l 2
 491.125 628.599 476.435 657.225 447.055 677.565 c 0
 417.675 697.151 377.371 708.075 326.145 710.335 c 0
 302.039 710.335 271.905 704.685 235.745 693.385 c 0
 194.312 681.331 166.062 665.135 150.995 644.795 c 1
 172.089 641.028 195.065 635.001 219.925 626.715 c 0
 253.071 616.921 282.451 602.231 308.065 582.645 c 1
 308.065 518.235 l 1
 282.451 518.235 257.591 510.325 233.485 494.505 c 0
 209.379 479.438 197.325 444.785 197.325 390.545 c 2
 197.325 279.805 l 1
 201.845 282.065 l 1
 208.625 282.065 l 2
 240.265 282.065 267.009 274.909 288.855 260.595 c 0
 312.209 245.528 329.159 227.071 339.705 205.225 c 0
 351.005 184.885 356.655 161.155 356.655 134.035 c 0
 356.655 107.668 351.005 83.5615 339.705 61.7148 c 0
 328.405 39.1152 311.455 20.6582 288.855 6.34473 c 0
 266.255 -7.21484 239.512 -13.9951 208.625 -13.9951 c 0
 160.411 -13.9951 124.251 0.695312 100.145 30.0752 c 1
 73.7783 57.9482 60.5947 93.3555 60.5947 136.295 c 2
 60.5947 381.505 l 2
 60.5947 427.459 65.8691 462.111 76.415 485.465 c 0
 87.7148 511.831 106.925 534.055 134.045 552.135 c 1
 120.485 558.915 102.028 565.318 78.6748 571.345 c 0
 46.2812 580.385 16.9014 585.658 -9.46484 587.165 c 1
 -9.46484 631.235 l 1
 7.1084 658.355 45.9053 694.515 106.925 739.715 c 0
 166.438 783.408 250.435 805.255 358.915 805.255 c 0
 413.155 805.255 456.472 797.345 488.865 781.525 c 0
 526.531 764.199 553.275 744.988 569.095 723.895 c 0
 590.188 698.281 604.125 672.669 610.905 647.055 c 0
 619.945 619.935 624.465 594.699 624.465 571.345 c 2
 624.465 244.775 l 1
 646.312 271.142 673.432 295.249 705.825 317.095 c 0
 741.231 340.448 769.858 354.009 791.705 357.775 c 1
 791.705 786.045 l 1
 926.175 786.045 l 1
 926.175 357.775 l 1
 973.635 348.735 1011.3 325.759 1039.17 288.845 c 0
 1064.04 253.438 1076.46 208.615 1076.46 154.375 c 0
 1076.46 103.901 1061.02 63.2217 1030.13 32.335 c 0
 1000 -0.0585938 962.711 -16.2549 918.265 -16.2549 c 0
 882.858 -16.2549 853.102 -6.46191 828.995 13.125 c 0
 804.135 33.4648 791.705 65.8584 791.705 110.305 c 2
 791.705 258.335 l 1
 745.751 239.501 708.085 205.602 678.705 156.635 c 0
 645.559 103.901 625.972 51.5449 619.945 -0.43457 c 1
 491.125 -0.43457 l 1
210.885 70.7549 m 0
 221.432 70.7549 233.108 74.1445 245.915 80.9248 c 1
 255.709 88.458 262.488 95.9912 266.255 103.525 c 0
 270.775 112.565 273.035 122.735 273.035 134.035 c 0
 273.035 154.375 267.762 169.818 257.215 180.365 c 0
 246.669 190.911 231.225 196.185 210.885 196.185 c 0
 192.052 196.185 176.608 190.159 164.555 178.105 c 0
 151.749 163.791 145.345 149.102 145.345 134.035 c 0
 145.345 118.969 151.749 105.031 164.555 92.2246 c 0
 176.608 77.9121 192.052 70.7549 210.885 70.7549 c 0
983.805 165.675 m 0
 983.805 189.028 977.401 209.369 964.595 226.695 c 0
 952.541 243.269 939.735 253.815 926.175 258.335 c 1
 926.175 112.565 l 2
 926.175 92.9785 931.448 83.1846 941.995 83.1846 c 0
 954.802 85.4453 964.972 94.4854 972.505 110.305 c 0
 980.039 129.139 983.805 147.595 983.805 165.675 c 0
EndSplineSet
EndChar
StartChar: uni0E14
Encoding: 180 3604
OldEncoding: 3604
Width: 799
Flags: W
HStem: -1.34473 21G<129.04 246.56 553.92 688.39> 510.545 94.92<338 357> 687.955 116.39<338 372>
VStem: 3.61035 115.26<489 515> 188.93 97.18<445 453> 405.89 94.92<449 463> 553.92 134.47<13 547>
Fore
350.52 804.345 m 0
 465.78 802.085 550.53 774.965 604.77 722.985 c 0
 660.517 670.251 688.39 606.972 688.39 533.145 c 2
 688.39 -1.34473 l 1
 553.92 -1.34473 l 1
 553.92 544.445 l 2
 553.92 591.905 534.71 628.441 496.29 654.055 c 1
 456.363 676.655 409.28 687.955 355.04 687.955 c 0
 294.02 687.955 239.403 671.005 191.19 637.105 c 0
 142.977 603.205 118.87 556.875 118.87 498.115 c 0
 118.87 453.669 139.964 385.869 182.15 294.715 c 0
 195.71 266.841 206.256 238.215 213.79 208.835 c 1
 221.7 162.505 l 1
 266.9 230.305 l 2
 265.394 228.799 280.836 251.021 313.23 296.975 c 1
 280.836 299.235 251.834 315.432 226.22 345.565 c 0
 201.36 374.945 188.93 410.352 188.93 451.785 c 0
 188.93 495.479 203.62 532.015 233 561.395 c 0
 262.38 590.775 300.046 605.465 346 605.465 c 0
 394.214 605.465 431.126 591.528 456.74 563.655 c 0
 486.12 529.001 500.81 490.959 500.81 449.525 c 0
 503.07 399.805 489.134 354.605 459 313.925 c 1
 246.56 -1.34473 l 1
 129.04 -1.34473 l 1
 129.04 75.4951 122.637 136.515 109.83 181.715 c 1
 74.7998 252.905 l 1
 56.7197 292.079 39.7695 335.395 23.9502 382.855 c 1
 10.3896 433.329 3.61035 477.398 3.61035 515.065 c 0
 5.87012 562.525 22.0664 608.102 52.2002 651.795 c 0
 81.5801 696.995 121.884 733.908 173.11 762.535 c 0
 225.09 790.408 284.227 804.345 350.52 804.345 c 0
346 389.635 m 0
 365.586 389.635 380.276 395.661 390.07 407.715 c 0
 400.616 419.015 405.89 432.951 405.89 449.525 c 0
 405.89 468.358 400.616 483.049 390.07 493.595 c 1
 381.784 504.895 367.094 510.545 346 510.545 c 0
 329.427 510.545 314.736 504.142 301.93 491.335 c 0
 291.384 480.789 286.11 466.852 286.11 449.525 c 0
 286.11 432.951 291.384 419.015 301.93 407.715 c 0
 313.983 395.661 328.674 389.635 346 389.635 c 0
EndSplineSet
MinimumDistance: x2,-1 
EndChar
StartChar: uni0E15
Encoding: 181 3605
OldEncoding: 3605
Width: 799
Flags: W
HStem: -1.21484 21G<129.17 246.69 554.05 688.52> 512.935 94.92<336 354>
VStem: 1.48047 115.26<491 514> 189.06 97.18<445 463> 406.02 94.92<451 463> 554.05 134.47<13 565>
Fore
688.52 -1.21484 m 1
 554.05 -1.21484 l 1
 554.05 551.355 l 2
 554.05 595.049 548.023 626.688 535.97 646.275 c 0
 524.67 665.108 508.474 680.551 487.38 692.605 c 1
 367.6 646.275 l 1
 242.17 692.605 l 1
 158.55 648.911 116.74 588.269 116.74 510.675 c 0
 116.74 454.175 138.586 382.231 182.28 294.845 c 0
 195.84 266.972 206.387 238.345 213.92 208.965 c 1
 221.83 162.635 l 1
 267.03 232.695 l 1
 313.36 299.365 l 1
 280.966 301.625 251.964 317.821 226.35 347.955 c 0
 201.49 377.335 189.06 412.741 189.06 454.175 c 0
 189.06 497.869 203.75 534.405 233.13 563.785 c 0
 262.51 593.165 300.177 607.855 346.13 607.855 c 0
 394.344 607.855 431.256 593.919 456.87 566.045 c 0
 486.25 531.392 500.94 493.349 500.94 451.915 c 0
 503.2 402.195 489.264 356.995 459.13 316.315 c 1
 246.69 -1.21484 l 1
 129.17 -1.21484 l 1
 129.17 75.625 122.767 136.645 109.96 181.845 c 1
 74.9297 253.035 l 2
 54.5898 292.961 36.1338 336.278 19.5596 382.985 c 1
 7.50684 425.171 1.48047 469.241 1.48047 515.195 c 0
 3.74023 579.229 30.8604 638.365 82.8398 692.605 c 1
 131.807 747.599 184.916 783.381 242.17 799.955 c 1
 367.6 746.845 l 1
 494.16 802.215 l 1
 573.26 763.041 624.863 724.999 648.97 688.085 c 1
 675.336 653.432 688.52 601.829 688.52 533.275 c 2
 688.52 -1.21484 l 1
346.13 389.765 m 0
 365.716 389.765 380.406 395.791 390.2 407.845 c 0
 400.746 419.145 406.02 433.835 406.02 451.915 c 0
 406.02 470.749 400.746 485.438 390.2 495.985 c 1
 381.914 507.285 367.224 512.935 346.13 512.935 c 0
 328.05 512.935 313.36 506.531 302.06 493.725 c 0
 291.514 483.179 286.24 469.241 286.24 451.915 c 0
 286.24 433.835 291.514 419.145 302.06 407.845 c 0
 314.113 395.791 328.804 389.765 346.13 389.765 c 0
EndSplineSet
MinimumDistance: x0,-1 
EndChar
StartChar: uni0E16
Encoding: 182 3606
OldEncoding: 3606
Width: 807
Flags: W
HStem: -14.125 88.1396<236 249> -0.56543 21G<562.92 696.26> 207.355 88.14<238.659 255.075> 703.425 101.7<348 396>
VStem: 83.7998 94.9202<136 146> 312.06 83.62<128 146> 562.92 133.34<0 554>
Fore
220.53 295.495 m 1
 238.61 295.495 l 2
 288.33 295.495 326.75 280.052 353.87 249.165 c 0
 381.744 218.278 395.68 182.119 395.68 140.685 c 0
 395.68 96.9912 381.744 60.832 353.87 32.2051 c 1
 326.75 1.31836 288.33 -14.125 238.61 -14.125 c 0
 191.903 -14.125 154.99 1.31836 127.87 32.2051 c 1
 98.4902 60.832 83.7998 96.9912 83.7998 140.685 c 2
 83.7998 381.375 l 2
 83.7998 427.329 89.0732 461.981 99.6201 485.335 c 0
 110.92 511.701 130.13 533.925 157.25 552.005 c 1
 143.69 558.785 125.233 565.188 101.88 571.215 c 0
 70.2402 580.255 40.8604 585.528 13.7402 587.035 c 1
 13.7402 631.105 l 1
 41.9902 666.135 l 2
 52.5371 678.188 74.7598 697.398 108.66 723.765 c 1
 145.573 747.871 184.37 767.081 225.05 781.395 c 0
 266.483 797.215 318.84 805.125 382.12 805.125 c 0
 444.646 805.125 498.51 795.709 543.71 776.875 c 0
 591.17 755.781 628.46 726.401 655.58 688.735 c 0
 682.7 649.562 696.26 601.725 696.26 545.225 c 2
 696.26 -0.56543 l 1
 562.92 -0.56543 l 1
 562.92 533.925 l 2
 562.92 589.671 545.216 632.235 509.81 661.615 c 0
 474.403 689.488 428.073 703.425 370.82 703.425 c 0
 305.28 703.425 240.494 683.085 176.46 642.405 c 1
 205.84 635.625 l 2
 211.866 634.871 231.076 629.599 263.47 619.805 c 0
 287.576 610.765 310.177 598.335 331.27 582.515 c 1
 331.27 518.105 l 1
 305.656 518.105 280.796 510.195 256.69 494.375 c 0
 232.584 479.309 220.53 444.655 220.53 390.415 c 2
 220.53 295.495 l 1
249.91 74.0146 m 1
 267.99 76.2754 282.68 83.0547 293.98 94.3555 c 0
 306.034 106.408 312.06 121.099 312.06 138.425 c 0
 312.06 158.012 306.034 174.961 293.98 189.275 c 0
 281.927 201.329 263.47 207.355 238.61 207.355 c 1
 218.27 205.095 203.58 198.315 194.54 187.015 c 0
 183.994 176.469 178.72 161.025 178.72 140.685 c 0
 178.72 124.111 184.746 108.668 196.8 94.3555 c 0
 208.1 80.7949 225.804 74.0146 249.91 74.0146 c 1
EndSplineSet
MinimumDistance: x20,-1 
EndChar
StartChar: uni0E17
Encoding: 183 3607
OldEncoding: 3607
Width: 875
Flags: W
HStem: -1.08496 21G<173.08 299.64 635.25 769.72> 683.695 106.22<599 609> 705.165 94.92<136.012 153>
VStem: -7.71973 94.9199<637 656> 173.08 133.34<324 491> 206.98 99.44<637 658> 635.25 134.47<13 623>
DStem: 443.15 656.575 570.84 652.055 306.42 323.225 299.64 -1.08496
Fore
173.08 -1.08496 m 1
 173.08 491.595 l 1
 122.23 489.335 l 1
 83.0566 493.855 51.417 511.559 27.3096 542.445 c 0
 3.95703 572.579 -7.71973 607.231 -7.71973 646.405 c 0
 -7.71973 689.345 6.2168 725.881 34.0898 756.015 c 1
 58.9502 785.395 96.6162 800.085 147.09 800.085 c 0
 196.81 800.085 236.36 784.642 265.74 753.755 c 0
 292.86 723.621 306.42 685.579 306.42 639.625 c 2
 306.42 323.225 l 1
 443.15 656.575 l 2
 464.244 707.049 483.454 742.455 500.78 762.795 c 1
 519.613 780.875 554.644 789.915 605.87 789.915 c 0
 680.45 789.915 725.65 773.719 741.47 741.325 c 1
 760.304 710.438 769.72 664.485 769.72 603.465 c 2
 769.72 -1.08496 l 1
 635.25 -1.08496 l 1
 635.25 593.295 l 2
 635.25 626.441 633.744 650.549 630.73 665.615 c 0
 629.224 674.655 621.69 680.682 608.13 683.695 c 1
 596.076 683.695 587.414 679.929 582.14 672.395 c 0
 577.62 667.875 573.854 661.095 570.84 652.055 c 1
 299.64 -1.08496 l 1
 173.08 -1.08496 l 1
147.09 581.995 m 0
 166.677 581.995 181.366 588.021 191.16 600.075 c 0
 201.706 611.375 206.98 626.065 206.98 644.145 c 0
 206.98 662.979 201.706 677.669 191.16 688.215 c 1
 182.874 699.515 168.184 705.165 147.09 705.165 c 0
 130.517 705.165 115.826 698.762 103.02 685.955 c 0
 92.4736 675.408 87.2002 661.472 87.2002 644.145 c 0
 87.2002 626.065 92.4736 611.375 103.02 600.075 c 0
 115.073 588.021 129.764 581.995 147.09 581.995 c 0
EndSplineSet
MinimumDistance: x14,-1 
EndChar
StartChar: uni0E18
Encoding: 184 3608
OldEncoding: 3608
Width: 690
Flags: W
HStem: -1.21484 119.78<39 129 261 401> 646.275 102.83<535 553> 702.775 99.44<260 287>
VStem: 129.25 133.34<119 479> 445.65 134.47<173 399>
Fore
138.29 632.715 m 1
 158.63 634.975 l 1
 216.26 634.975 l 2
 354.12 634.975 455.443 609.738 520.23 559.265 c 1
 560.156 525.365 580.12 466.605 580.12 382.985 c 2
 580.12 149.075 l 2
 580.12 85.7949 569.196 45.1152 547.35 27.0352 c 1
 527.764 8.20215 482.187 -1.21484 410.62 -1.21484 c 2
 32.0703 -1.21484 l 1
 32.0703 118.565 l 1
 129.25 118.565 l 1
 129.25 486.945 l 1
 262.59 486.945 l 1
 262.59 118.565 l 1
 383.5 118.565 l 2
 410.62 118.565 428.323 122.709 436.61 130.995 c 1
 442.637 139.281 445.65 157.738 445.65 186.365 c 2
 445.65 385.245 l 2
 445.65 412.365 443.39 433.835 438.87 449.655 c 0
 434.35 465.475 421.166 481.671 399.32 498.245 c 1
 385.006 511.805 346.586 521.975 284.06 528.755 c 0
 214 536.289 148.46 540.055 87.4404 540.055 c 2
 -7.48047 537.795 l 1
 -7.48047 619.155 l 1
 18.8867 666.615 56.5537 709.179 105.52 746.845 c 0
 155.24 783.759 214 802.215 281.8 802.215 c 0
 324.74 802.215 376.344 793.551 436.61 776.225 c 0
 492.356 758.145 528.517 749.105 545.09 749.105 c 0
 572.964 749.105 601.59 756.639 630.97 771.705 c 1
 661.48 672.265 l 1
 620.8 654.938 584.264 646.275 551.87 646.275 c 0
 525.504 646.275 481.057 655.691 418.53 674.525 c 0
 352.236 693.358 301.764 702.775 267.11 702.775 c 0
 231.704 702.775 202.7 694.111 180.1 676.785 c 0
 162.02 663.225 148.084 648.535 138.29 632.715 c 1
EndSplineSet
MinimumDistance: x4,-1 y10,12 y10,11 y8,10 x10,8 x10,9 
EndChar
StartChar: uni0E19
Encoding: 185 3609
OldEncoding: 3609
Width: 859
Flags: W
HStem: -0.43457 21G<159.05 289> 710.335 94.92<136 152> 766.045 20G<553.42 686.76>
VStem: -16.0996 97.1797<638 656> 159.05 134.471<201 496> 200.86 92.661<638 656> 553.42 133.34<111 256 356 784> 745.521 91.529<152 154 154.413 165.664 165.695 183.146>
Fore
553.42 786.045 m 1
 686.76 786.045 l 1
 686.76 357.775 l 1
 735.727 348.735 773.017 325.759 798.63 288.845 c 0
 827.257 245.905 840.063 201.081 837.05 154.375 c 1
 837.05 103.148 821.984 62.4688 791.851 32.335 c 0
 761.717 -0.0585938 724.427 -16.2549 679.98 -16.2549 c 0
 646.08 -16.2549 616.7 -6.46191 591.84 13.125 c 0
 566.227 34.9717 553.42 67.3652 553.42 110.305 c 2
 553.42 258.335 l 1
 494.66 241.009 438.914 204.849 386.181 149.855 c 0
 332.694 96.3682 300.3 46.2715 289 -0.43457 c 1
 159.05 -0.43457 l 1
 159.05 496.765 l 1
 150.01 496.765 l 1
 138.71 494.505 l 1
 91.25 494.505 53.584 510.701 25.71 543.095 c 0
 -2.16309 573.229 -16.0996 608.635 -16.0996 649.315 c 0
 -16.0996 692.255 -2.16309 728.791 25.71 758.925 c 0
 54.3369 789.812 92.0039 805.255 138.71 805.255 c 0
 181.65 805.255 217.811 792.825 247.19 767.965 c 1
 278.076 739.339 293.521 705.438 293.521 666.265 c 2
 293.521 200.705 l 1
 324.406 241.385 363.204 274.531 409.91 300.145 c 0
 458.877 328.019 506.714 347.229 553.42 357.775 c 1
 553.42 786.045 l 1
140.971 587.165 m 0
 160.557 587.165 176 593.568 187.3 606.375 c 0
 196.34 617.675 200.86 631.988 200.86 649.315 c 0
 200.86 667.395 196.34 682.085 187.3 693.385 c 0
 176.754 704.685 161.311 710.335 140.971 710.335 c 0
 122.891 710.335 108.2 703.932 96.9004 691.125 c 0
 86.3535 680.579 81.0801 666.642 81.0801 649.315 c 0
 81.0801 631.235 86.3535 616.921 96.9004 606.375 c 0
 108.2 593.568 122.891 587.165 140.971 587.165 c 0
745.521 165.675 m 0
 745.521 190.535 739.87 211.629 728.57 228.955 c 0
 718.024 244.021 704.087 253.815 686.76 258.335 c 1
 686.76 112.565 l 1
 689.021 92.9785 695.424 83.1846 705.971 83.1846 c 1
 712.75 85.4453 719.53 89.9648 726.311 96.7451 c 1
 739.87 131.775 l 1
 743.637 144.581 745.521 155.881 745.521 165.675 c 0
EndSplineSet
MinimumDistance: x4,-1 
EndChar
StartChar: uni0E1A
Encoding: 186 3610
OldEncoding: 3610
Width: 831
Flags: W
HStem: -1.08496 119.78<65 149 287 533> 489.335 92.66<101 133> 705.165 94.92<126 133> 765.395 20G<584.3 721.03>
VStem: -27.0303 94.9199<637 655> 153.77 134.47<119 491> 188.8 99.44<637 655> 584.3 136.73<173 783>
Fore
153.77 118.695 m 1
 153.77 491.595 l 1
 147.744 490.089 130.794 489.335 102.92 489.335 c 1
 64.5 493.855 32.8604 511.559 8 542.445 c 0
 -15.3535 574.085 -27.0303 608.738 -27.0303 646.405 c 0
 -27.0303 674.278 -21.3799 699.892 -10.0801 723.245 c 0
 1.97363 748.105 19.6768 766.562 43.0303 778.615 c 0
 67.1367 792.929 95.7637 800.085 128.91 800.085 c 0
 177.876 800.085 217.05 784.642 246.43 753.755 c 0
 274.304 723.621 288.24 685.579 288.24 639.625 c 2
 288.24 118.695 l 1
 513.11 118.695 l 2
 543.244 118.695 563.206 123.591 573 133.385 c 0
 580.534 140.919 584.3 158.621 584.3 186.495 c 2
 584.3 785.395 l 1
 721.03 785.395 l 5
 721.03 151.465 l 2
 721.03 91.9512 704.834 52.0254 672.44 31.6846 c 0
 637.034 9.83789 583.924 -1.08496 513.11 -1.08496 c 2
 52.0703 -1.08496 l 1
 52.0703 118.695 l 1
 153.77 118.695 l 1
128.91 581.995 m 0
 144.73 581.995 159.42 588.021 172.98 600.075 c 0
 183.526 611.375 188.8 626.065 188.8 644.145 c 0
 188.8 662.979 183.526 677.669 172.98 688.215 c 0
 161.68 699.515 146.99 705.165 128.91 705.165 c 0
 112.336 705.165 97.6465 698.762 84.8398 685.955 c 0
 73.54 675.408 67.8896 661.472 67.8896 644.145 c 0
 67.8896 626.065 73.54 611.375 84.8398 600.075 c 0
 96.8936 588.021 111.584 581.995 128.91 581.995 c 0
EndSplineSet
MinimumDistance: x15,-1 y19,0 x0,19 x0,20 
EndChar
StartChar: uni0E1B
Encoding: 187 3611
OldEncoding: 3611
Width: 831
Flags: W
HStem: -17.9854 119.78<65 149 287 533> 472.435 92.66<101 133> 688.265 94.92<126 133>
VStem: -27.0303 94.9199<620 639> 153.77 134.47<102 474> 188.8 99.44<620 639> 584.3 136.73<157 1071>
Fore
153.77 101.795 m 1
 153.77 474.695 l 1
 147.744 473.188 130.794 472.435 102.92 472.435 c 1
 64.5 476.955 32.8604 494.658 8 525.545 c 0
 -15.3535 557.185 -27.0303 591.839 -27.0303 629.505 c 0
 -27.0303 657.379 -21.3799 682.991 -10.0801 706.345 c 0
 1.97363 731.205 19.6768 749.661 43.0303 761.715 c 0
 67.1367 776.028 95.7637 783.185 128.91 783.185 c 0
 177.876 783.185 217.05 767.741 246.43 736.855 c 0
 274.304 706.722 288.24 668.679 288.24 622.725 c 2
 288.24 101.795 l 1
 513.11 101.795 l 2
 543.244 101.795 563.206 106.691 573 116.485 c 0
 580.534 124.019 584.3 141.722 584.3 169.595 c 2
 584.3 1076.99 l 1
 721.03 1076.99 l 1
 721.03 134.565 l 2
 721.03 75.0518 704.834 35.125 672.44 14.7852 c 0
 637.034 -7.06152 583.924 -17.9854 513.11 -17.9854 c 2
 52.0703 -17.9854 l 1
 52.0703 101.795 l 1
 153.77 101.795 l 1
128.91 565.095 m 0
 144.73 565.095 159.42 571.121 172.98 583.175 c 0
 183.526 594.475 188.8 609.165 188.8 627.245 c 0
 188.8 646.079 183.526 660.769 172.98 671.315 c 0
 161.68 682.615 146.99 688.265 128.91 688.265 c 0
 112.336 688.265 97.6465 681.861 84.8398 669.055 c 0
 73.54 658.509 67.8896 644.571 67.8896 627.245 c 0
 67.8896 609.165 73.54 594.475 84.8398 583.175 c 0
 96.8936 571.121 111.584 565.095 128.91 565.095 c 0
EndSplineSet
MinimumDistance: x15,-1 y19,0 x0,19 x0,20 
EndChar
StartChar: uni0E1C
Encoding: 188 3612
OldEncoding: 3612
Width: 814
Flags: W
HStem: -1.08496 21G<60.9502 188.64 572.84 705.05> 705.165 94.92<210.292 234> 765.395 20G<570.58 705.05>
VStem: 60.9502 99.4398<637 655> 60.9502 134.47<266 491> 281.3 94.92<637 655> 570.58 134.47<13 15 266 783>
Fore
188.64 -1.08496 m 1
 60.9502 -1.08496 l 1
 60.9502 639.625 l 2
 60.9502 684.071 74.8867 722.115 102.76 753.755 c 0
 132.14 784.642 171.69 800.085 221.41 800.085 c 0
 255.31 800.085 284.313 792.929 308.42 778.615 c 0
 331.773 763.549 348.724 745.092 359.27 723.245 c 0
 370.57 699.892 376.22 674.278 376.22 646.405 c 0
 376.22 607.231 364.544 572.579 341.19 542.445 c 0
 317.084 511.559 285.443 493.855 246.27 489.335 c 1
 195.42 491.595 l 1
 195.42 265.595 l 1
 383 457.695 l 1
 570.58 265.595 l 1
 570.58 785.395 l 1
 705.05 785.395 l 1
 705.05 -1.08496 l 1
 572.84 -1.08496 l 1
 572.84 60.6885 557.396 109.278 526.51 144.685 c 2
 380.74 308.535 l 1
 232.71 144.685 l 2
 203.33 113.045 188.64 64.4551 188.64 -1.08496 c 1
221.41 705.165 m 0
 204.836 705.165 190.146 698.762 177.34 685.955 c 0
 166.04 675.408 160.39 661.472 160.39 644.145 c 0
 160.39 626.065 166.04 611.375 177.34 600.075 c 0
 189.394 588.021 204.084 581.995 221.41 581.995 c 0
 237.23 581.995 251.92 588.021 265.48 600.075 c 0
 276.026 611.375 281.3 626.065 281.3 644.145 c 0
 281.3 662.979 276.026 677.669 265.48 688.215 c 0
 254.18 699.515 239.49 705.165 221.41 705.165 c 0
EndSplineSet
MinimumDistance: x15,-1 
EndChar
